<svg xmlns="http://www.w3.org/2000/svg" xmlns:xlink="http://www.w3.org/1999/xlink" viewBox="0 0 101.4 54.8"><defs><clipPath id="a"><rect x="0.4" y="0.2" width="101" height="55" rx="2" ry="2" style="fill:none"/></clipPath><clipPath id="c"><rect width="101.4" height="54.8" style="fill:none"/></clipPath></defs><title>livro</title><g style="clip-path:url(#a)"><g style="clip-path:url(#a)"><g style="clip-path:url(#c)"><path d="M99.4,55.2H2.4a2,2,0,0,1-2-2V2.2a2,2,0,0,1,2-2h97a2,2,0,0,1,2,2v51A2,2,0,0,1,99.4,55.2Z" style="fill:#b2ba09"/></g><g style="clip-path:url(#a)"><path d="M7.44,12.27A2.74,2.74,0,0,0,4.71,15v24.6a.68.68,0,0,0,.68.69H8.81v-28Z" style="fill:#656d78"/></g><g style="clip-path:url(#a)"><path d="M7.44,37.56a2,2,0,1,0,0,4.1H30v-4.1Z" style="fill:#e6e9ed"/></g><g style="clip-path:url(#a)"><path d="M30.67,13a.68.68,0,0,0-.68-.68H8.81v1.37h0V36.88h0v1.37H30a.68.68,0,0,0,.68-.69h0V13Z" style="fill:#ed5564"/></g><g style="clip-path:url(#a)"><path d="M13.59,40.29H8.12a.68.68,0,0,1,0-1.37h5.47a.68.68,0,0,1,0,1.37Z" style="fill:#ccd1d9"/><path d="M24.52,38.92a.68.68,0,0,0,0,1.37H30V38.93H24.52Z" style="fill:#ccd1d9"/></g><g style="clip-path:url(#a)"><path d="M5.39,17.74a.68.68,0,0,0,0-1.37H4.71v1.37Z" style="fill:#434a54"/><path d="M5.39,21.84a.68.68,0,0,0,0-1.37H4.71v1.37Z" style="fill:#434a54"/><path d="M5.39,25.94a.68.68,0,0,0,0-1.37H4.71v1.37Z" style="fill:#434a54"/><path d="M5.39,30a.68.68,0,0,0,0-1.37H4.71V30Z" style="fill:#434a54"/><path d="M5.39,34.14a.68.68,0,0,0,0-1.37H4.71v1.37h.68Z" style="fill:#434a54"/></g><g style="clip-path:url(#a)"><path d="M30.67,41.66A.68.68,0,0,0,30,41H8.81v1.37H30A.68.68,0,0,0,30.67,41.66Z" style="fill:#ed5564"/></g><g style="clip-path:url(#a)"><path d="M8.81,41H7.44a1.37,1.37,0,1,1,0-2.73H8.81V36.88H7.44a2.73,2.73,0,0,0,0,5.47H8.81V41Z" style="fill:#656d78"/></g><g style="clip-path:url(#a)"><path d="M12.91,39.61H8.12v4.78a.69.69,0,0,0,.28.56A.68.68,0,0,0,9,45l1.83-.61,1.83.61a.67.67,0,0,0,.22,0,.68.68,0,0,0,.68-.68V39.61Z" style="fill:#ffce54"/></g><g style="clip-path:url(#a)"><path d="M19.06,31.41a.68.68,0,0,1-.68-.68V18.43a.68.68,0,0,1,1.37,0v12.3A.68.68,0,0,1,19.06,31.41Z" style="fill:#f6bb42"/></g><g style="clip-path:url(#a)"><path d="M23.16,31.41H15A.68.68,0,0,1,15,30h8.2a.68.68,0,0,1,0,1.37Z" style="fill:#434a54"/></g><g style="clip-path:url(#a)"><path d="M14.92,19.58h0v-.09l0,0,0,0,0,0,0,0,0,0,0,0,0,0,0,0,0,0,0,0,0,0,0,0H14l0,0,0,0,0,0,0,0,0,0,0,0,0,0,0,0,0,0,0,0,0,0,0,0,0,0v.09h0l-2.05,6.15a.68.68,0,0,0,.43.86.67.67,0,0,0,.22,0,.68.68,0,0,0,.65-.47l1.4-4.2,1.4,4.2a.68.68,0,0,0,.65.47.67.67,0,0,0,.22,0,.68.68,0,0,0,.43-.86Z" style="fill:#e6e9ed"/><path d="M26.54,25.73l-2-6.15h0v-.09l0,0,0,0,0,0,0,0,0,0,0,0,0,0,0,0,0,0,0,0,0,0,0,0h-.61l0,0,0,0,0,0,0,0,0,0,0,0,0,0,0,0,0,0,0,0,0,0,0,0,0,0,0,0v.07h0l-2,6.15a.68.68,0,0,0,1.3.43l1.4-4.2,1.4,4.2a.68.68,0,0,0,1.3-.43Z" style="fill:#e6e9ed"/></g><g style="clip-path:url(#a)"><path d="M23.84,20.48H14.27a.68.68,0,1,1,0-1.37h9.57a.68.68,0,1,1,0,1.37Z" style="fill:#ffce54"/><path d="M14.27,28.68a2.74,2.74,0,0,1-2.73-2.73H17A2.74,2.74,0,0,1,14.27,28.68Z" style="fill:#ffce54"/><path d="M23.84,28.68a2.74,2.74,0,0,1-2.73-2.73h5.47A2.74,2.74,0,0,1,23.84,28.68Z" style="fill:#ffce54"/></g></g><g style="opacity:0.33;isolation:isolate"><text transform="translate(73.99 66.53)" style="isolation:isolate;font-size:12px;fill:#1e1e1e;font-family:Politica-BoldItalic, Politica;font-weight:700;font-style:italic">LEI ORGÂNICA</text><text transform="translate(73.49 66.03)" style="isolation:isolate;font-size:12px;fill:#1e1e1e;font-family:Politica-BoldItalic, Politica;font-weight:700;font-style:italic">LEI ORGÂNICA</text><text transform="translate(72.99 65.53)" style="isolation:isolate;font-size:12px;fill:#1e1e1e;font-family:Politica-BoldItalic, Politica;font-weight:700;font-style:italic">LEI ORGÂNICA</text><text transform="translate(72.49 65.03)" style="isolation:isolate;font-size:12px;fill:#1e1e1e;font-family:Politica-BoldItalic, Politica;font-weight:700;font-style:italic">LEI ORGÂNICA</text><text transform="translate(71.99 64.53)" style="isolation:isolate;font-size:12px;fill:#1e1e1e;font-family:Politica-BoldItalic, Politica;font-weight:700;font-style:italic">LEI ORGÂNICA</text><text transform="translate(71.49 64.03)" style="isolation:isolate;font-size:12px;fill:#1e1e1e;font-family:Politica-BoldItalic, Politica;font-weight:700;font-style:italic">LEI ORGÂNICA</text><text transform="translate(70.99 63.53)" style="isolation:isolate;font-size:12px;fill:#1e1e1e;font-family:Politica-BoldItalic, Politica;font-weight:700;font-style:italic">LEI ORGÂNICA</text><text transform="translate(70.49 63.03)" style="isolation:isolate;font-size:12px;fill:#1e1e1e;font-family:Politica-BoldItalic, Politica;font-weight:700;font-style:italic">LEI ORGÂNICA</text><text transform="translate(69.99 62.53)" style="isolation:isolate;font-size:12px;fill:#1e1e1e;font-family:Politica-BoldItalic, Politica;font-weight:700;font-style:italic">LEI ORGÂNICA</text><text transform="translate(69.49 62.03)" style="isolation:isolate;font-size:12px;fill:#1e1e1e;font-family:Politica-BoldItalic, Politica;font-weight:700;font-style:italic">LEI ORGÂNICA</text><text transform="translate(68.99 61.53)" style="isolation:isolate;font-size:12px;fill:#1e1e1e;font-family:Politica-BoldItalic, Politica;font-weight:700;font-style:italic">LEI ORGÂNICA</text><text transform="translate(68.49 61.03)" style="isolation:isolate;font-size:12px;fill:#1e1e1e;font-family:Politica-BoldItalic, Politica;font-weight:700;font-style:italic">LEI ORGÂNICA</text><text transform="translate(67.99 60.53)" style="isolation:isolate;font-size:12px;fill:#1e1e1e;font-family:Politica-BoldItalic, Politica;font-weight:700;font-style:italic">LEI ORGÂNICA</text><text transform="translate(67.49 60.03)" style="isolation:isolate;font-size:12px;fill:#1e1e1e;font-family:Politica-BoldItalic, Politica;font-weight:700;font-style:italic">LEI ORGÂNICA</text><text transform="translate(66.99 59.53)" style="isolation:isolate;font-size:12px;fill:#1e1e1e;font-family:Politica-BoldItalic, Politica;font-weight:700;font-style:italic">LEI ORGÂNICA</text><text transform="translate(66.49 59.03)" style="isolation:isolate;font-size:12px;fill:#1e1e1e;font-family:Politica-BoldItalic, Politica;font-weight:700;font-style:italic">LEI ORGÂNICA</text><text transform="translate(65.99 58.53)" style="isolation:isolate;font-size:12px;fill:#1e1e1e;font-family:Politica-BoldItalic, Politica;font-weight:700;font-style:italic">LEI ORGÂNICA</text><text transform="translate(65.49 58.03)" style="isolation:isolate;font-size:12px;fill:#1e1e1e;font-family:Politica-BoldItalic, Politica;font-weight:700;font-style:italic">LEI ORGÂNICA</text><text transform="translate(64.99 57.53)" style="isolation:isolate;font-size:12px;fill:#1e1e1e;font-family:Politica-BoldItalic, Politica;font-weight:700;font-style:italic">LEI ORGÂNICA</text><text transform="translate(64.49 57.03)" style="isolation:isolate;font-size:12px;fill:#1e1e1e;font-family:Politica-BoldItalic, Politica;font-weight:700;font-style:italic">LEI ORGÂNICA</text><text transform="translate(63.99 56.53)" style="isolation:isolate;font-size:12px;fill:#1e1e1e;font-family:Politica-BoldItalic, Politica;font-weight:700;font-style:italic">LEI ORGÂNICA</text><text transform="translate(63.49 56.03)" style="isolation:isolate;font-size:12px;fill:#1e1e1e;font-family:Politica-BoldItalic, Politica;font-weight:700;font-style:italic">LEI ORGÂNICA</text><text transform="translate(62.99 55.53)" style="isolation:isolate;font-size:12px;fill:#1e1e1e;font-family:Politica-BoldItalic, Politica;font-weight:700;font-style:italic">LEI ORGÂNICA</text><text transform="translate(62.49 55.03)" style="isolation:isolate;font-size:12px;fill:#1e1e1e;font-family:Politica-BoldItalic, Politica;font-weight:700;font-style:italic">LEI ORGÂNICA</text><text transform="translate(61.99 54.53)" style="isolation:isolate;font-size:12px;fill:#1e1e1e;font-family:Politica-BoldItalic, Politica;font-weight:700;font-style:italic">LEI ORGÂNICA</text><text transform="translate(61.49 54.03)" style="isolation:isolate;font-size:12px;fill:#1e1e1e;font-family:Politica-BoldItalic, Politica;font-weight:700;font-style:italic">LEI ORGÂNICA</text><text transform="translate(60.99 53.53)" style="isolation:isolate;font-size:12px;fill:#1e1e1e;font-family:Politica-BoldItalic, Politica;font-weight:700;font-style:italic">LEI ORGÂNICA</text><text transform="translate(60.49 53.03)" style="isolation:isolate;font-size:12px;fill:#1e1e1e;font-family:Politica-BoldItalic, Politica;font-weight:700;font-style:italic">LEI ORGÂNICA</text><text transform="translate(59.99 52.53)" style="isolation:isolate;font-size:12px;fill:#1e1e1e;font-family:Politica-BoldItalic, Politica;font-weight:700;font-style:italic">LEI ORGÂNICA</text><text transform="translate(59.49 52.03)" style="isolation:isolate;font-size:12px;fill:#1e1e1e;font-family:Politica-BoldItalic, Politica;font-weight:700;font-style:italic">LEI ORGÂNICA</text><text transform="translate(58.99 51.53)" style="isolation:isolate;font-size:12px;fill:#1e1e1e;font-family:Politica-BoldItalic, Politica;font-weight:700;font-style:italic">LEI ORGÂNICA</text><text transform="translate(58.49 51.03)" style="isolation:isolate;font-size:12px;fill:#1e1e1e;font-family:Politica-BoldItalic, Politica;font-weight:700;font-style:italic">LEI ORGÂNICA</text><text transform="translate(57.99 50.53)" style="isolation:isolate;font-size:12px;fill:#1e1e1e;font-family:Politica-BoldItalic, Politica;font-weight:700;font-style:italic">LEI ORGÂNICA</text><text transform="translate(57.49 50.03)" style="isolation:isolate;font-size:12px;fill:#1e1e1e;font-family:Politica-BoldItalic, Politica;font-weight:700;font-style:italic">LEI ORGÂNICA</text><text transform="translate(56.99 49.53)" style="isolation:isolate;font-size:12px;fill:#1e1e1e;font-family:Politica-BoldItalic, Politica;font-weight:700;font-style:italic">LEI ORGÂNICA</text><text transform="translate(56.49 49.03)" style="isolation:isolate;font-size:12px;fill:#1e1e1e;font-family:Politica-BoldItalic, Politica;font-weight:700;font-style:italic">LEI ORGÂNICA</text><text transform="translate(55.99 48.53)" style="isolation:isolate;font-size:12px;fill:#1e1e1e;font-family:Politica-BoldItalic, Politica;font-weight:700;font-style:italic">LEI ORGÂNICA</text><text transform="translate(55.49 48.03)" style="isolation:isolate;font-size:12px;fill:#1e1e1e;font-family:Politica-BoldItalic, Politica;font-weight:700;font-style:italic">LEI ORGÂNICA</text><text transform="translate(54.99 47.53)" style="isolation:isolate;font-size:12px;fill:#1e1e1e;font-family:Politica-BoldItalic, Politica;font-weight:700;font-style:italic">LEI ORGÂNICA</text><text transform="translate(54.49 47.03)" style="isolation:isolate;font-size:12px;fill:#1e1e1e;font-family:Politica-BoldItalic, Politica;font-weight:700;font-style:italic">LEI ORGÂNICA</text><text transform="translate(53.99 46.53)" style="isolation:isolate;font-size:12px;fill:#1e1e1e;font-family:Politica-BoldItalic, Politica;font-weight:700;font-style:italic">LEI ORGÂNICA</text><text transform="translate(53.49 46.03)" style="isolation:isolate;font-size:12px;fill:#1e1e1e;font-family:Politica-BoldItalic, Politica;font-weight:700;font-style:italic">LEI ORGÂNICA</text><text transform="translate(52.99 45.53)" style="isolation:isolate;font-size:12px;fill:#1e1e1e;font-family:Politica-BoldItalic, Politica;font-weight:700;font-style:italic">LEI ORGÂNICA</text><text transform="translate(52.49 45.03)" style="isolation:isolate;font-size:12px;fill:#1e1e1e;font-family:Politica-BoldItalic, Politica;font-weight:700;font-style:italic">LEI ORGÂNICA</text><text transform="translate(51.99 44.53)" style="isolation:isolate;font-size:12px;fill:#1e1e1e;font-family:Politica-BoldItalic, Politica;font-weight:700;font-style:italic">LEI ORGÂNICA</text><text transform="translate(51.49 44.03)" style="isolation:isolate;font-size:12px;fill:#1e1e1e;font-family:Politica-BoldItalic, Politica;font-weight:700;font-style:italic">LEI ORGÂNICA</text><text transform="translate(50.99 43.53)" style="isolation:isolate;font-size:12px;fill:#1e1e1e;font-family:Politica-BoldItalic, Politica;font-weight:700;font-style:italic">LEI ORGÂNICA</text><text transform="translate(50.49 43.03)" style="isolation:isolate;font-size:12px;fill:#1e1e1e;font-family:Politica-BoldItalic, Politica;font-weight:700;font-style:italic">LEI ORGÂNICA</text><text transform="translate(49.99 42.53)" style="isolation:isolate;font-size:12px;fill:#1e1e1e;font-family:Politica-BoldItalic, Politica;font-weight:700;font-style:italic">LEI ORGÂNICA</text><text transform="translate(49.49 42.03)" style="isolation:isolate;font-size:12px;fill:#1e1e1e;font-family:Politica-BoldItalic, Politica;font-weight:700;font-style:italic">LEI ORGÂNICA</text><text transform="translate(48.99 41.53)" style="isolation:isolate;font-size:12px;fill:#1e1e1e;font-family:Politica-BoldItalic, Politica;font-weight:700;font-style:italic">LEI ORGÂNICA</text><text transform="translate(48.49 41.03)" style="isolation:isolate;font-size:12px;fill:#1e1e1e;font-family:Politica-BoldItalic, Politica;font-weight:700;font-style:italic">LEI ORGÂNICA</text><text transform="translate(47.99 40.53)" style="isolation:isolate;font-size:12px;fill:#1e1e1e;font-family:Politica-BoldItalic, Politica;font-weight:700;font-style:italic">LEI ORGÂNICA</text><text transform="translate(47.49 40.03)" style="isolation:isolate;font-size:12px;fill:#1e1e1e;font-family:Politica-BoldItalic, Politica;font-weight:700;font-style:italic">LEI ORGÂNICA</text><text transform="translate(46.99 39.53)" style="isolation:isolate;font-size:12px;fill:#1e1e1e;font-family:Politica-BoldItalic, Politica;font-weight:700;font-style:italic">LEI ORGÂNICA</text><text transform="translate(46.49 39.03)" style="isolation:isolate;font-size:12px;fill:#1e1e1e;font-family:Politica-BoldItalic, Politica;font-weight:700;font-style:italic">LEI ORGÂNICA</text><text transform="translate(45.99 38.53)" style="isolation:isolate;font-size:12px;fill:#1e1e1e;font-family:Politica-BoldItalic, Politica;font-weight:700;font-style:italic">LEI ORGÂNICA</text><text transform="translate(45.49 38.03)" style="isolation:isolate;font-size:12px;fill:#1e1e1e;font-family:Politica-BoldItalic, Politica;font-weight:700;font-style:italic">LEI ORGÂNICA</text><text transform="translate(44.99 37.53)" style="isolation:isolate;font-size:12px;fill:#1e1e1e;font-family:Politica-BoldItalic, Politica;font-weight:700;font-style:italic">LEI ORGÂNICA</text><text transform="translate(44.49 37.03)" style="isolation:isolate;font-size:12px;fill:#1e1e1e;font-family:Politica-BoldItalic, Politica;font-weight:700;font-style:italic">LEI ORGÂNICA</text><text transform="translate(43.99 36.53)" style="isolation:isolate;font-size:12px;fill:#1e1e1e;font-family:Politica-BoldItalic, Politica;font-weight:700;font-style:italic">LEI ORGÂNICA</text><text transform="translate(43.49 36.03)" style="isolation:isolate;font-size:12px;fill:#1e1e1e;font-family:Politica-BoldItalic, Politica;font-weight:700;font-style:italic">LEI ORGÂNICA</text><text transform="translate(42.99 35.53)" style="isolation:isolate;font-size:12px;fill:#1e1e1e;font-family:Politica-BoldItalic, Politica;font-weight:700;font-style:italic">LEI ORGÂNICA</text><text transform="translate(42.49 35.03)" style="isolation:isolate;font-size:12px;fill:#1e1e1e;font-family:Politica-BoldItalic, Politica;font-weight:700;font-style:italic">LEI ORGÂNICA</text><text transform="translate(41.99 34.53)" style="isolation:isolate;font-size:12px;fill:#1e1e1e;font-family:Politica-BoldItalic, Politica;font-weight:700;font-style:italic">LEI ORGÂNICA</text><text transform="translate(41.49 34.03)" style="isolation:isolate;font-size:12px;fill:#1e1e1e;font-family:Politica-BoldItalic, Politica;font-weight:700;font-style:italic">LEI ORGÂNICA</text><text transform="translate(40.99 33.53)" style="isolation:isolate;font-size:12px;fill:#1e1e1e;font-family:Politica-BoldItalic, Politica;font-weight:700;font-style:italic">LEI ORGÂNICA</text><text transform="translate(40.49 33.03)" style="isolation:isolate;font-size:12px;fill:#1e1e1e;font-family:Politica-BoldItalic, Politica;font-weight:700;font-style:italic">LEI ORGÂNICA</text><text transform="translate(39.99 32.53)" style="isolation:isolate;font-size:12px;fill:#1e1e1e;font-family:Politica-BoldItalic, Politica;font-weight:700;font-style:italic">LEI ORGÂNICA</text><text transform="translate(39.49 32.03)" style="isolation:isolate;font-size:12px;fill:#1e1e1e;font-family:Politica-BoldItalic, Politica;font-weight:700;font-style:italic">LEI ORGÂNICA</text></g><g style="clip-path:url(#a)"><g style="isolation:isolate"><text transform="translate(39.49 32.03)" style="isolation:isolate;font-size:12px;fill:#fff;font-family:Politica-BoldItalic, Politica;font-weight:700;font-style:italic">LEI ORGÂNICA</text></g></g><g style="clip-path:url(#c)"><path d="M99.4,55.2H2.4a2,2,0,0,1-2-2V2.2a2,2,0,0,1,2-2h97a2,2,0,0,1,2,2v51A2,2,0,0,1,99.4,55.2Z" style="fill:none"/></g><g style="clip-path:url(#a)"><path d="M7.44,12.27A2.74,2.74,0,0,0,4.71,15v24.6a.68.68,0,0,0,.68.69H8.81v-28Z" style="fill:none"/></g><g style="clip-path:url(#a)"><path d="M7.44,37.56a2,2,0,1,0,0,4.1H30v-4.1Z" style="fill:none"/></g><g style="clip-path:url(#a)"><path d="M30.67,13a.68.68,0,0,0-.68-.68H8.81v1.37h0V36.88h0v1.37H30a.68.68,0,0,0,.68-.69h0V13Z" style="fill:none"/></g><g style="clip-path:url(#a)"><path d="M13.59,40.29H8.12a.68.68,0,0,1,0-1.37h5.47a.68.68,0,0,1,0,1.37Z" style="fill:none"/><path d="M24.52,38.92a.68.68,0,0,0,0,1.37H30V38.93H24.52Z" style="fill:none"/></g><g style="clip-path:url(#a)"><path d="M5.39,17.74a.68.68,0,0,0,0-1.37H4.71v1.37Z" style="fill:none"/><path d="M5.39,21.84a.68.68,0,0,0,0-1.37H4.71v1.37Z" style="fill:none"/><path d="M5.39,25.94a.68.68,0,0,0,0-1.37H4.71v1.37Z" style="fill:none"/><path d="M5.39,30a.68.68,0,0,0,0-1.37H4.71V30Z" style="fill:none"/><path d="M5.39,34.14a.68.68,0,0,0,0-1.37H4.71v1.37h.68Z" style="fill:none"/></g><g style="clip-path:url(#a)"><path d="M30.67,41.66A.68.68,0,0,0,30,41H8.81v1.37H30A.68.68,0,0,0,30.67,41.66Z" style="fill:none"/></g><g style="clip-path:url(#a)"><path d="M8.81,41H7.44a1.37,1.37,0,1,1,0-2.73H8.81V36.88H7.44a2.73,2.73,0,0,0,0,5.47H8.81V41Z" style="fill:none"/></g><g style="clip-path:url(#a)"><path d="M12.91,39.61H8.12v4.78a.69.69,0,0,0,.28.56A.68.68,0,0,0,9,45l1.83-.61,1.83.61a.67.67,0,0,0,.22,0,.68.68,0,0,0,.68-.68V39.61Z" style="fill:none"/></g><g style="clip-path:url(#a)"><path d="M19.06,31.41a.68.68,0,0,1-.68-.68V18.43a.68.68,0,0,1,1.37,0v12.3A.68.68,0,0,1,19.06,31.41Z" style="fill:none"/></g><g style="clip-path:url(#a)"><path d="M23.16,31.41H15A.68.68,0,0,1,15,30h8.2a.68.68,0,0,1,0,1.37Z" style="fill:none"/></g><g style="clip-path:url(#a)"><path d="M14.92,19.58h0v-.09l0,0,0,0,0,0,0,0,0,0,0,0,0,0,0,0,0,0,0,0,0,0,0,0H14l0,0,0,0,0,0,0,0,0,0,0,0,0,0,0,0,0,0,0,0,0,0,0,0,0,0v.09h0l-2.05,6.15a.68.68,0,0,0,.43.86.67.67,0,0,0,.22,0,.68.68,0,0,0,.65-.47l1.4-4.2,1.4,4.2a.68.68,0,0,0,.65.47.67.67,0,0,0,.22,0,.68.68,0,0,0,.43-.86Z" style="fill:none"/><path d="M26.54,25.73l-2-6.15h0v-.09l0,0,0,0,0,0,0,0,0,0,0,0,0,0,0,0,0,0,0,0,0,0,0,0h-.61l0,0,0,0,0,0,0,0,0,0,0,0,0,0,0,0,0,0,0,0,0,0,0,0,0,0,0,0v.07h0l-2,6.15a.68.68,0,0,0,1.3.43l1.4-4.2,1.4,4.2a.68.68,0,0,0,1.3-.43Z" style="fill:none"/></g><g style="clip-path:url(#a)"><path d="M23.84,20.48H14.27a.68.68,0,1,1,0-1.37h9.57a.68.68,0,1,1,0,1.37Z" style="fill:none"/><path d="M14.27,28.68a2.74,2.74,0,0,1-2.73-2.73H17A2.74,2.74,0,0,1,14.27,28.68Z" style="fill:none"/><path d="M23.84,28.68a2.74,2.74,0,0,1-2.73-2.73h5.47A2.74,2.74,0,0,1,23.84,28.68Z" style="fill:none"/></g></g></svg>