<svg xmlns="http://www.w3.org/2000/svg" xmlns:xlink="http://www.w3.org/1999/xlink" viewBox="0 0 101.4 55.2"><defs><clipPath id="a"><rect width="101.4" height="54.8" style="fill:none"/></clipPath><clipPath id="b"><path d="M99.4,55.2H2.4a2,2,0,0,1-2-2V2.2a2,2,0,0,1,2-2h97a2,2,0,0,1,2,2v51A2,2,0,0,1,99.4,55.2Z" style="fill:none;clip-path:url(#a)"/></clipPath></defs><title>martelo</title><g style="isolation:isolate"><g style="clip-path:url(#b)"><g style="clip-path:url(#a)"><path d="M99.4,55.2H2.4a2,2,0,0,1-2-2V2.2a2,2,0,0,1,2-2h97a2,2,0,0,1,2,2v51A2,2,0,0,1,99.4,55.2Z" style="fill:#3b65ea"/></g><g style="clip-path:url(#a)"><path d="M9.9,40a1.75,1.75,0,0,1-2.5,0h0a1.75,1.75,0,0,1,0-2.5l13-13a1.75,1.75,0,0,1,2.5,0h0a1.75,1.75,0,0,1,0,2.5Z" style="fill:#a35d17"/></g><g style="clip-path:url(#a)"><path d="M22.8,24.5h0a1.75,1.75,0,0,1,0,2.5L9.8,40a1.75,1.75,0,0,1-2.5,0h0" style="fill:#6b400c"/></g><g style="clip-path:url(#a)"><path d="M9.5,43.2a2.17,2.17,0,0,1-3,0L4.1,40.8a2.17,2.17,0,0,1,0-3h0a2.17,2.17,0,0,1,3,0l2.4,2.4a2,2,0,0,1,0,3Z" style="fill:#f4ad31"/></g><g style="clip-path:url(#a)"><path d="M7.1,37.8l2.4,2.4a2.17,2.17,0,0,1,0,3h0a2.17,2.17,0,0,1-3,0" style="fill:#dd820a"/></g><g style="clip-path:url(#a)"><path d="M31.2,29.3c-2.2,2.2-4.5,1-6.7-1.2l-5.3-5.3c-2.2-2.2-3.3-4.5-1.2-6.7l.9-.9c2.2-2.2,4.5-1,6.7,1.2l5.3,5.3c2.2,2.2,3.3,4.5,1.2,6.7Z" style="fill:#f4ad31"/></g><g style="clip-path:url(#a)"><path d="M25.6,16.4l5.3,5.3c2.2,2.2,3.3,4.5,1.2,6.7l-.9.9c-2.2,2.2-4.5,1-6.7-1.2" style="fill:#dd820a"/></g><g style="clip-path:url(#a)"><path d="M16.8,19.9a1.09,1.09,0,0,1-1.5,0h0a1.09,1.09,0,0,1,0-1.5l5.8-5.9a1.09,1.09,0,0,1,1.5,0h0a1.09,1.09,0,0,1,0,1.5Z" style="fill:#f4ad31"/></g><g style="clip-path:url(#a)"><path d="M22.6,12.5h0a1.09,1.09,0,0,1,0,1.5l-5.8,5.9a1.09,1.09,0,0,1-1.5,0h0" style="fill:#dd820a"/></g><g style="clip-path:url(#a)"><path d="M28.9,32a1.09,1.09,0,0,1-1.5,0h0a1.09,1.09,0,0,1,0-1.5l5.8-5.8a1.09,1.09,0,0,1,1.5,0h0a1.09,1.09,0,0,1,0,1.5Z" style="fill:#f4ad31"/></g><g style="clip-path:url(#a)"><path d="M34.8,24.7h0a1.09,1.09,0,0,1,0,1.5L28.9,32a1.09,1.09,0,0,1-1.5,0h0" style="fill:#dd820a"/><path d="M23.6,28.4a.85.85,0,0,1-1.3,0L19,25.2a.85.85,0,0,1,0-1.3h0a.85.85,0,0,1,1.3,0l3.3,3.3a.91.91,0,0,1,0,1.2Z" style="fill:#dd820a"/></g><g style="clip-path:url(#a)"><rect width="10.9" height="4.7" x="24.3" y="38.4" style="fill:#d32a0f"/></g><g style="clip-path:url(#a)"><polyline points="24.3 38.4 35.2 38.4 35.2 43.1" style="fill:#af1909"/><path d="M35.7,43.7a.43.43,0,0,1-.4.4H24.2a.43.43,0,0,1-.4-.4v-.3a.43.43,0,0,1,.4-.4H35.3a.43.43,0,0,1,.4.4v.3Z" style="fill:#af1909"/><path d="M35.7,38a.43.43,0,0,1-.4.4H24.2a.43.43,0,0,1-.4-.4v-.3a.43.43,0,0,1,.4-.4H35.3a.43.43,0,0,1,.4.4V38Z" style="fill:#af1909"/></g><g style="opacity:.34;mix-blend-mode:multiply"><text transform="translate(75.12 66.13)" style="isolation:isolate;font-size:12px;fill:#111;font-family:Politica-BoldItalic,Politica;font-weight:700;font-style:italic">LICI<tspan x="15.25" y="0" style="letter-spacing:-.039998372395833336em">T</tspan><tspan x="19.21" y="0">AÇÕES</tspan></text><text transform="translate(74.62 65.63)" style="isolation:isolate;font-size:12px;fill:#111;font-family:Politica-BoldItalic,Politica;font-weight:700;font-style:italic">LICI<tspan x="15.25" y="0" style="letter-spacing:-.039998372395833336em">T</tspan><tspan x="19.21" y="0">AÇÕES</tspan></text><text transform="translate(74.12 65.13)" style="isolation:isolate;font-size:12px;fill:#111;font-family:Politica-BoldItalic,Politica;font-weight:700;font-style:italic">LICI<tspan x="15.25" y="0" style="letter-spacing:-.039998372395833336em">T</tspan><tspan x="19.21" y="0">AÇÕES</tspan></text><text transform="translate(73.62 64.63)" style="isolation:isolate;font-size:12px;fill:#111;font-family:Politica-BoldItalic,Politica;font-weight:700;font-style:italic">LICI<tspan x="15.25" y="0" style="letter-spacing:-.039998372395833336em">T</tspan><tspan x="19.21" y="0">AÇÕES</tspan></text><text transform="translate(73.12 64.13)" style="isolation:isolate;font-size:12px;fill:#111;font-family:Politica-BoldItalic,Politica;font-weight:700;font-style:italic">LICI<tspan x="15.25" y="0" style="letter-spacing:-.039998372395833336em">T</tspan><tspan x="19.21" y="0">AÇÕES</tspan></text><text transform="translate(72.62 63.63)" style="isolation:isolate;font-size:12px;fill:#111;font-family:Politica-BoldItalic,Politica;font-weight:700;font-style:italic">LICI<tspan x="15.25" y="0" style="letter-spacing:-.039998372395833336em">T</tspan><tspan x="19.21" y="0">AÇÕES</tspan></text><text transform="translate(72.12 63.13)" style="isolation:isolate;font-size:12px;fill:#111;font-family:Politica-BoldItalic,Politica;font-weight:700;font-style:italic">LICI<tspan x="15.25" y="0" style="letter-spacing:-.039998372395833336em">T</tspan><tspan x="19.21" y="0">AÇÕES</tspan></text><text transform="translate(71.62 62.63)" style="isolation:isolate;font-size:12px;fill:#111;font-family:Politica-BoldItalic,Politica;font-weight:700;font-style:italic">LICI<tspan x="15.25" y="0" style="letter-spacing:-.039998372395833336em">T</tspan><tspan x="19.21" y="0">AÇÕES</tspan></text><text transform="translate(71.12 62.13)" style="isolation:isolate;font-size:12px;fill:#111;font-family:Politica-BoldItalic,Politica;font-weight:700;font-style:italic">LICI<tspan x="15.25" y="0" style="letter-spacing:-.039998372395833336em">T</tspan><tspan x="19.21" y="0">AÇÕES</tspan></text><text transform="translate(70.62 61.63)" style="isolation:isolate;font-size:12px;fill:#111;font-family:Politica-BoldItalic,Politica;font-weight:700;font-style:italic">LICI<tspan x="15.25" y="0" style="letter-spacing:-.039998372395833336em">T</tspan><tspan x="19.21" y="0">AÇÕES</tspan></text><text transform="translate(70.12 61.13)" style="isolation:isolate;font-size:12px;fill:#111;font-family:Politica-BoldItalic,Politica;font-weight:700;font-style:italic">LICI<tspan x="15.25" y="0" style="letter-spacing:-.039998372395833336em">T</tspan><tspan x="19.21" y="0">AÇÕES</tspan></text><text transform="translate(69.62 60.63)" style="isolation:isolate;font-size:12px;fill:#111;font-family:Politica-BoldItalic,Politica;font-weight:700;font-style:italic">LICI<tspan x="15.25" y="0" style="letter-spacing:-.039998372395833336em">T</tspan><tspan x="19.21" y="0">AÇÕES</tspan></text><text transform="translate(69.12 60.13)" style="isolation:isolate;font-size:12px;fill:#111;font-family:Politica-BoldItalic,Politica;font-weight:700;font-style:italic">LICI<tspan x="15.25" y="0" style="letter-spacing:-.039998372395833336em">T</tspan><tspan x="19.21" y="0">AÇÕES</tspan></text><text transform="translate(68.62 59.63)" style="isolation:isolate;font-size:12px;fill:#111;font-family:Politica-BoldItalic,Politica;font-weight:700;font-style:italic">LICI<tspan x="15.25" y="0" style="letter-spacing:-.039998372395833336em">T</tspan><tspan x="19.21" y="0">AÇÕES</tspan></text><text transform="translate(68.12 59.13)" style="isolation:isolate;font-size:12px;fill:#111;font-family:Politica-BoldItalic,Politica;font-weight:700;font-style:italic">LICI<tspan x="15.25" y="0" style="letter-spacing:-.039998372395833336em">T</tspan><tspan x="19.21" y="0">AÇÕES</tspan></text><text transform="translate(67.62 58.63)" style="isolation:isolate;font-size:12px;fill:#111;font-family:Politica-BoldItalic,Politica;font-weight:700;font-style:italic">LICI<tspan x="15.25" y="0" style="letter-spacing:-.039998372395833336em">T</tspan><tspan x="19.21" y="0">AÇÕES</tspan></text><text transform="translate(67.12 58.13)" style="isolation:isolate;font-size:12px;fill:#111;font-family:Politica-BoldItalic,Politica;font-weight:700;font-style:italic">LICI<tspan x="15.25" y="0" style="letter-spacing:-.039998372395833336em">T</tspan><tspan x="19.21" y="0">AÇÕES</tspan></text><text transform="translate(66.62 57.63)" style="isolation:isolate;font-size:12px;fill:#111;font-family:Politica-BoldItalic,Politica;font-weight:700;font-style:italic">LICI<tspan x="15.25" y="0" style="letter-spacing:-.039998372395833336em">T</tspan><tspan x="19.21" y="0">AÇÕES</tspan></text><text transform="translate(66.12 57.13)" style="isolation:isolate;font-size:12px;fill:#111;font-family:Politica-BoldItalic,Politica;font-weight:700;font-style:italic">LICI<tspan x="15.25" y="0" style="letter-spacing:-.039998372395833336em">T</tspan><tspan x="19.21" y="0">AÇÕES</tspan></text><text transform="translate(65.62 56.63)" style="isolation:isolate;font-size:12px;fill:#111;font-family:Politica-BoldItalic,Politica;font-weight:700;font-style:italic">LICI<tspan x="15.25" y="0" style="letter-spacing:-.039998372395833336em">T</tspan><tspan x="19.21" y="0">AÇÕES</tspan></text><text transform="translate(65.12 56.13)" style="isolation:isolate;font-size:12px;fill:#111;font-family:Politica-BoldItalic,Politica;font-weight:700;font-style:italic">LICI<tspan x="15.25" y="0" style="letter-spacing:-.039998372395833336em">T</tspan><tspan x="19.21" y="0">AÇÕES</tspan></text><text transform="translate(64.62 55.63)" style="isolation:isolate;font-size:12px;fill:#111;font-family:Politica-BoldItalic,Politica;font-weight:700;font-style:italic">LICI<tspan x="15.25" y="0" style="letter-spacing:-.039998372395833336em">T</tspan><tspan x="19.21" y="0">AÇÕES</tspan></text><text transform="translate(64.12 55.13)" style="isolation:isolate;font-size:12px;fill:#111;font-family:Politica-BoldItalic,Politica;font-weight:700;font-style:italic">LICI<tspan x="15.25" y="0" style="letter-spacing:-.039998372395833336em">T</tspan><tspan x="19.21" y="0">AÇÕES</tspan></text><text transform="translate(63.62 54.63)" style="isolation:isolate;font-size:12px;fill:#111;font-family:Politica-BoldItalic,Politica;font-weight:700;font-style:italic">LICI<tspan x="15.25" y="0" style="letter-spacing:-.039998372395833336em">T</tspan><tspan x="19.21" y="0">AÇÕES</tspan></text><text transform="translate(63.12 54.13)" style="isolation:isolate;font-size:12px;fill:#111;font-family:Politica-BoldItalic,Politica;font-weight:700;font-style:italic">LICI<tspan x="15.25" y="0" style="letter-spacing:-.039998372395833336em">T</tspan><tspan x="19.21" y="0">AÇÕES</tspan></text><text transform="translate(62.62 53.63)" style="isolation:isolate;font-size:12px;fill:#111;font-family:Politica-BoldItalic,Politica;font-weight:700;font-style:italic">LICI<tspan x="15.25" y="0" style="letter-spacing:-.039998372395833336em">T</tspan><tspan x="19.21" y="0">AÇÕES</tspan></text><text transform="translate(62.12 53.13)" style="isolation:isolate;font-size:12px;fill:#111;font-family:Politica-BoldItalic,Politica;font-weight:700;font-style:italic">LICI<tspan x="15.25" y="0" style="letter-spacing:-.039998372395833336em">T</tspan><tspan x="19.21" y="0">AÇÕES</tspan></text><text transform="translate(61.62 52.63)" style="isolation:isolate;font-size:12px;fill:#111;font-family:Politica-BoldItalic,Politica;font-weight:700;font-style:italic">LICI<tspan x="15.25" y="0" style="letter-spacing:-.039998372395833336em">T</tspan><tspan x="19.21" y="0">AÇÕES</tspan></text><text transform="translate(61.12 52.13)" style="isolation:isolate;font-size:12px;fill:#111;font-family:Politica-BoldItalic,Politica;font-weight:700;font-style:italic">LICI<tspan x="15.25" y="0" style="letter-spacing:-.039998372395833336em">T</tspan><tspan x="19.21" y="0">AÇÕES</tspan></text><text transform="translate(60.62 51.63)" style="isolation:isolate;font-size:12px;fill:#111;font-family:Politica-BoldItalic,Politica;font-weight:700;font-style:italic">LICI<tspan x="15.25" y="0" style="letter-spacing:-.039998372395833336em">T</tspan><tspan x="19.21" y="0">AÇÕES</tspan></text><text transform="translate(60.12 51.13)" style="isolation:isolate;font-size:12px;fill:#111;font-family:Politica-BoldItalic,Politica;font-weight:700;font-style:italic">LICI<tspan x="15.25" y="0" style="letter-spacing:-.039998372395833336em">T</tspan><tspan x="19.21" y="0">AÇÕES</tspan></text><text transform="translate(59.62 50.63)" style="isolation:isolate;font-size:12px;fill:#111;font-family:Politica-BoldItalic,Politica;font-weight:700;font-style:italic">LICI<tspan x="15.25" y="0" style="letter-spacing:-.039998372395833336em">T</tspan><tspan x="19.21" y="0">AÇÕES</tspan></text><text transform="translate(59.12 50.13)" style="isolation:isolate;font-size:12px;fill:#111;font-family:Politica-BoldItalic,Politica;font-weight:700;font-style:italic">LICI<tspan x="15.25" y="0" style="letter-spacing:-.039998372395833336em">T</tspan><tspan x="19.21" y="0">AÇÕES</tspan></text><text transform="translate(58.62 49.63)" style="isolation:isolate;font-size:12px;fill:#111;font-family:Politica-BoldItalic,Politica;font-weight:700;font-style:italic">LICI<tspan x="15.25" y="0" style="letter-spacing:-.039998372395833336em">T</tspan><tspan x="19.21" y="0">AÇÕES</tspan></text><text transform="translate(58.12 49.13)" style="isolation:isolate;font-size:12px;fill:#111;font-family:Politica-BoldItalic,Politica;font-weight:700;font-style:italic">LICI<tspan x="15.25" y="0" style="letter-spacing:-.039998372395833336em">T</tspan><tspan x="19.21" y="0">AÇÕES</tspan></text><text transform="translate(57.62 48.63)" style="isolation:isolate;font-size:12px;fill:#111;font-family:Politica-BoldItalic,Politica;font-weight:700;font-style:italic">LICI<tspan x="15.25" y="0" style="letter-spacing:-.039998372395833336em">T</tspan><tspan x="19.21" y="0">AÇÕES</tspan></text><text transform="translate(57.12 48.13)" style="isolation:isolate;font-size:12px;fill:#111;font-family:Politica-BoldItalic,Politica;font-weight:700;font-style:italic">LICI<tspan x="15.25" y="0" style="letter-spacing:-.039998372395833336em">T</tspan><tspan x="19.21" y="0">AÇÕES</tspan></text><text transform="translate(56.62 47.63)" style="isolation:isolate;font-size:12px;fill:#111;font-family:Politica-BoldItalic,Politica;font-weight:700;font-style:italic">LICI<tspan x="15.25" y="0" style="letter-spacing:-.039998372395833336em">T</tspan><tspan x="19.21" y="0">AÇÕES</tspan></text><text transform="translate(56.12 47.13)" style="isolation:isolate;font-size:12px;fill:#111;font-family:Politica-BoldItalic,Politica;font-weight:700;font-style:italic">LICI<tspan x="15.25" y="0" style="letter-spacing:-.039998372395833336em">T</tspan><tspan x="19.21" y="0">AÇÕES</tspan></text><text transform="translate(55.62 46.63)" style="isolation:isolate;font-size:12px;fill:#111;font-family:Politica-BoldItalic,Politica;font-weight:700;font-style:italic">LICI<tspan x="15.25" y="0" style="letter-spacing:-.039998372395833336em">T</tspan><tspan x="19.21" y="0">AÇÕES</tspan></text><text transform="translate(55.12 46.13)" style="isolation:isolate;font-size:12px;fill:#111;font-family:Politica-BoldItalic,Politica;font-weight:700;font-style:italic">LICI<tspan x="15.25" y="0" style="letter-spacing:-.039998372395833336em">T</tspan><tspan x="19.21" y="0">AÇÕES</tspan></text><text transform="translate(54.62 45.63)" style="isolation:isolate;font-size:12px;fill:#111;font-family:Politica-BoldItalic,Politica;font-weight:700;font-style:italic">LICI<tspan x="15.25" y="0" style="letter-spacing:-.039998372395833336em">T</tspan><tspan x="19.21" y="0">AÇÕES</tspan></text><text transform="translate(54.12 45.13)" style="isolation:isolate;font-size:12px;fill:#111;font-family:Politica-BoldItalic,Politica;font-weight:700;font-style:italic">LICI<tspan x="15.25" y="0" style="letter-spacing:-.039998372395833336em">T</tspan><tspan x="19.21" y="0">AÇÕES</tspan></text><text transform="translate(53.62 44.63)" style="isolation:isolate;font-size:12px;fill:#111;font-family:Politica-BoldItalic,Politica;font-weight:700;font-style:italic">LICI<tspan x="15.25" y="0" style="letter-spacing:-.039998372395833336em">T</tspan><tspan x="19.21" y="0">AÇÕES</tspan></text><text transform="translate(53.12 44.13)" style="isolation:isolate;font-size:12px;fill:#111;font-family:Politica-BoldItalic,Politica;font-weight:700;font-style:italic">LICI<tspan x="15.25" y="0" style="letter-spacing:-.039998372395833336em">T</tspan><tspan x="19.21" y="0">AÇÕES</tspan></text><text transform="translate(52.62 43.63)" style="isolation:isolate;font-size:12px;fill:#111;font-family:Politica-BoldItalic,Politica;font-weight:700;font-style:italic">LICI<tspan x="15.25" y="0" style="letter-spacing:-.039998372395833336em">T</tspan><tspan x="19.21" y="0">AÇÕES</tspan></text><text transform="translate(52.12 43.13)" style="isolation:isolate;font-size:12px;fill:#111;font-family:Politica-BoldItalic,Politica;font-weight:700;font-style:italic">LICI<tspan x="15.25" y="0" style="letter-spacing:-.039998372395833336em">T</tspan><tspan x="19.21" y="0">AÇÕES</tspan></text><text transform="translate(51.62 42.63)" style="isolation:isolate;font-size:12px;fill:#111;font-family:Politica-BoldItalic,Politica;font-weight:700;font-style:italic">LICI<tspan x="15.25" y="0" style="letter-spacing:-.039998372395833336em">T</tspan><tspan x="19.21" y="0">AÇÕES</tspan></text><text transform="translate(51.12 42.13)" style="isolation:isolate;font-size:12px;fill:#111;font-family:Politica-BoldItalic,Politica;font-weight:700;font-style:italic">LICI<tspan x="15.25" y="0" style="letter-spacing:-.039998372395833336em">T</tspan><tspan x="19.21" y="0">AÇÕES</tspan></text><text transform="translate(50.62 41.63)" style="isolation:isolate;font-size:12px;fill:#111;font-family:Politica-BoldItalic,Politica;font-weight:700;font-style:italic">LICI<tspan x="15.25" y="0" style="letter-spacing:-.039998372395833336em">T</tspan><tspan x="19.21" y="0">AÇÕES</tspan></text><text transform="translate(50.12 41.13)" style="isolation:isolate;font-size:12px;fill:#111;font-family:Politica-BoldItalic,Politica;font-weight:700;font-style:italic">LICI<tspan x="15.25" y="0" style="letter-spacing:-.039998372395833336em">T</tspan><tspan x="19.21" y="0">AÇÕES</tspan></text><text transform="translate(49.62 40.63)" style="isolation:isolate;font-size:12px;fill:#111;font-family:Politica-BoldItalic,Politica;font-weight:700;font-style:italic">LICI<tspan x="15.25" y="0" style="letter-spacing:-.039998372395833336em">T</tspan><tspan x="19.21" y="0">AÇÕES</tspan></text><text transform="translate(49.12 40.13)" style="isolation:isolate;font-size:12px;fill:#111;font-family:Politica-BoldItalic,Politica;font-weight:700;font-style:italic">LICI<tspan x="15.25" y="0" style="letter-spacing:-.039998372395833336em">T</tspan><tspan x="19.21" y="0">AÇÕES</tspan></text><text transform="translate(48.62 39.63)" style="isolation:isolate;font-size:12px;fill:#111;font-family:Politica-BoldItalic,Politica;font-weight:700;font-style:italic">LICI<tspan x="15.25" y="0" style="letter-spacing:-.039998372395833336em">T</tspan><tspan x="19.21" y="0">AÇÕES</tspan></text><text transform="translate(48.12 39.13)" style="isolation:isolate;font-size:12px;fill:#111;font-family:Politica-BoldItalic,Politica;font-weight:700;font-style:italic">LICI<tspan x="15.25" y="0" style="letter-spacing:-.039998372395833336em">T</tspan><tspan x="19.21" y="0">AÇÕES</tspan></text><text transform="translate(47.62 38.63)" style="isolation:isolate;font-size:12px;fill:#111;font-family:Politica-BoldItalic,Politica;font-weight:700;font-style:italic">LICI<tspan x="15.25" y="0" style="letter-spacing:-.039998372395833336em">T</tspan><tspan x="19.21" y="0">AÇÕES</tspan></text><text transform="translate(47.12 38.13)" style="isolation:isolate;font-size:12px;fill:#111;font-family:Politica-BoldItalic,Politica;font-weight:700;font-style:italic">LICI<tspan x="15.25" y="0" style="letter-spacing:-.039998372395833336em">T</tspan><tspan x="19.21" y="0">AÇÕES</tspan></text><text transform="translate(46.62 37.63)" style="isolation:isolate;font-size:12px;fill:#111;font-family:Politica-BoldItalic,Politica;font-weight:700;font-style:italic">LICI<tspan x="15.25" y="0" style="letter-spacing:-.039998372395833336em">T</tspan><tspan x="19.21" y="0">AÇÕES</tspan></text><text transform="translate(46.12 37.13)" style="isolation:isolate;font-size:12px;fill:#111;font-family:Politica-BoldItalic,Politica;font-weight:700;font-style:italic">LICI<tspan x="15.25" y="0" style="letter-spacing:-.039998372395833336em">T</tspan><tspan x="19.21" y="0">AÇÕES</tspan></text><text transform="translate(45.62 36.63)" style="isolation:isolate;font-size:12px;fill:#111;font-family:Politica-BoldItalic,Politica;font-weight:700;font-style:italic">LICI<tspan x="15.25" y="0" style="letter-spacing:-.039998372395833336em">T</tspan><tspan x="19.21" y="0">AÇÕES</tspan></text><text transform="translate(45.12 36.13)" style="isolation:isolate;font-size:12px;fill:#111;font-family:Politica-BoldItalic,Politica;font-weight:700;font-style:italic">LICI<tspan x="15.25" y="0" style="letter-spacing:-.039998372395833336em">T</tspan><tspan x="19.21" y="0">AÇÕES</tspan></text><text transform="translate(44.62 35.63)" style="isolation:isolate;font-size:12px;fill:#111;font-family:Politica-BoldItalic,Politica;font-weight:700;font-style:italic">LICI<tspan x="15.25" y="0" style="letter-spacing:-.039998372395833336em">T</tspan><tspan x="19.21" y="0">AÇÕES</tspan></text><text transform="translate(44.12 35.13)" style="isolation:isolate;font-size:12px;fill:#111;font-family:Politica-BoldItalic,Politica;font-weight:700;font-style:italic">LICI<tspan x="15.25" y="0" style="letter-spacing:-.039998372395833336em">T</tspan><tspan x="19.21" y="0">AÇÕES</tspan></text><text transform="translate(43.62 34.63)" style="isolation:isolate;font-size:12px;fill:#111;font-family:Politica-BoldItalic,Politica;font-weight:700;font-style:italic">LICI<tspan x="15.25" y="0" style="letter-spacing:-.039998372395833336em">T</tspan><tspan x="19.21" y="0">AÇÕES</tspan></text><text transform="translate(43.12 34.13)" style="isolation:isolate;font-size:12px;fill:#111;font-family:Politica-BoldItalic,Politica;font-weight:700;font-style:italic">LICI<tspan x="15.25" y="0" style="letter-spacing:-.039998372395833336em">T</tspan><tspan x="19.21" y="0">AÇÕES</tspan></text><text transform="translate(42.62 33.63)" style="isolation:isolate;font-size:12px;fill:#111;font-family:Politica-BoldItalic,Politica;font-weight:700;font-style:italic">LICI<tspan x="15.25" y="0" style="letter-spacing:-.039998372395833336em">T</tspan><tspan x="19.21" y="0">AÇÕES</tspan></text></g><text transform="translate(42.62 33.63)" style="isolation:isolate;font-size:12px;fill:#fff;font-family:Politica-BoldItalic,Politica;font-weight:700;font-style:italic">LICI<tspan x="15.25" y="0" style="letter-spacing:-.039998372395833336em">T</tspan><tspan x="19.21" y="0">AÇÕES</tspan></text></g></g></svg>