<svg xmlns="http://www.w3.org/2000/svg" xmlns:xlink="http://www.w3.org/1999/xlink" viewBox="0 0 101.4 55.2"><defs><clipPath id="a"><path d="M99.392,55.2H2.008A2,2,0,0,1,0,53.208H0V2.2a2,2,0,0,1,2-2H99.392A2,2,0,0,1,101.4,2.192h0V53.2a2,2,0,0,1-2,2Z" style="fill:none"/></clipPath></defs><title>projetos</title><g style="isolation:isolate"><g style="clip-path:url(#a)"><path d="M99.392,55.2H2.008A2,2,0,0,1,0,53.208H0V2.2a2,2,0,0,1,2-2H99.392A2,2,0,0,1,101.4,2.192h0V53.2a2,2,0,0,1-2,2Z" style="fill:#ffe00a"/><path d="M35.878,13.543H4.238a2.028,2.028,0,0,0-1.7,2.24V40.426a2.029,2.029,0,0,0,1.7,2.241h31.64a2.029,2.029,0,0,0,1.7-2.241V15.783A2.028,2.028,0,0,0,35.878,13.543Z" style="fill:#ff4f19"/><rect x="18.363" y="38.933" width="3.39" height="3.734" style="fill:#e3001e"/><path d="M35.328,36.693v2.24a.676.676,0,0,1-.565.747H5.384a.676.676,0,0,1-.565-.747v-2.24l3.374-2.241,13.56.747,11.3-.747Z" style="fill:#e6be8a"/><path d="M5.611,37.724a13.992,13.992,0,0,1,14.462.462V11.3a14.017,14.017,0,0,0-14.919-.2.8.8,0,0,0-.335.69V37.041C4.819,37.58,5.234,37.929,5.611,37.724Z" style="fill:#ffebb7"/><path d="M20.073,38.186a13.99,13.99,0,0,1,14.462-.462c.378.205.793-.144.793-.683V11.789a.8.8,0,0,0-.335-.69,14.018,14.018,0,0,0-14.92.2Z" style="fill:#ffd788"/><path d="M22.333,33.309a.608.608,0,0,1-.539-.523.813.813,0,0,1,.37-.936,14.993,14.993,0,0,1,1.748-.6c.3-.084.605.174.669.578a.769.769,0,0,1-.437.884,14.024,14.024,0,0,0-1.641.567A.452.452,0,0,1,22.333,33.309Z" style="fill:#868491"/><path d="M33.068,33.309a.427.427,0,0,1-.169-.035,13.335,13.335,0,0,0-6.566-.982c-.316.03-.583-.274-.608-.685a.712.712,0,0,1,.519-.8,14.218,14.218,0,0,1,6.994,1.047.812.812,0,0,1,.369.936A.606.606,0,0,1,33.068,33.309Z" style="fill:#868491"/><path d="M33.068,30.313a.443.443,0,0,1-.169-.034,13.286,13.286,0,0,0-10.4,0c-.3.123-.616-.1-.709-.489a.814.814,0,0,1,.37-.936,14.154,14.154,0,0,1,11.074,0,.812.812,0,0,1,.369.936A.606.606,0,0,1,33.068,30.313Z" style="fill:#868491"/><path d="M22.333,27.335a.608.608,0,0,1-.539-.523.815.815,0,0,1,.37-.937,14.317,14.317,0,0,1,6.411-1.095.7.7,0,0,1,.538.782c-.015.413-.275.728-.592.711A13.4,13.4,0,0,0,22.5,27.3.435.435,0,0,1,22.333,27.335Z" style="fill:#868491"/><path d="M33.068,27.335A.427.427,0,0,1,32.9,27.3a14.065,14.065,0,0,0-2.19-.706.755.755,0,0,1-.457-.865c.054-.406.347-.678.654-.606a15.11,15.11,0,0,1,2.332.752.814.814,0,0,1,.369.937A.606.606,0,0,1,33.068,27.335Z" style="fill:#868491"/><path d="M33.068,24.339a.443.443,0,0,1-.169-.034,13.286,13.286,0,0,0-10.4,0c-.3.122-.616-.1-.709-.489a.813.813,0,0,1,.37-.936,14.154,14.154,0,0,1,11.074,0,.812.812,0,0,1,.369.936A.606.606,0,0,1,33.068,24.339Z" style="fill:#868491"/><path d="M22.333,21.352a.608.608,0,0,1-.539-.523.814.814,0,0,1,.37-.936,14.663,14.663,0,0,1,3.5-.973c.315-.05.59.25.624.659a.726.726,0,0,1-.5.825,13.776,13.776,0,0,0-3.283.914A.452.452,0,0,1,22.333,21.352Z" style="fill:#868491"/><path d="M33.068,21.352a.443.443,0,0,1-.169-.034,13.5,13.5,0,0,0-4.924-1.051.683.683,0,0,1-.556-.759c0-.412.277-.759.574-.735a14.406,14.406,0,0,1,5.245,1.12.812.812,0,0,1,.369.936A.607.607,0,0,1,33.068,21.352Z" style="fill:#868491"/><path d="M22.333,18.374a.608.608,0,0,1-.539-.523.815.815,0,0,1,.37-.937,14.145,14.145,0,0,1,7.576-.973.727.727,0,0,1,.5.825c-.034.409-.308.713-.624.659a13.286,13.286,0,0,0-7.113.914A.454.454,0,0,1,22.333,18.374Z" style="fill:#868491"/><path d="M33.068,18.374a.445.445,0,0,1-.169-.035c-.359-.149-.727-.284-1.1-.4a.784.784,0,0,1-.415-.9c.074-.4.378-.646.683-.549.391.126.783.271,1.166.429a.814.814,0,0,1,.369.937A.606.606,0,0,1,33.068,18.374Z" style="fill:#868491"/><path d="M22.333,15.378a.608.608,0,0,1-.539-.524.814.814,0,0,1,.37-.936c.389-.161.781-.3,1.165-.428.3-.1.609.148.683.549a.784.784,0,0,1-.416.9c-.361.116-.729.251-1.094.4A.427.427,0,0,1,22.333,15.378Z" style="fill:#868491"/><path d="M33.068,15.378a.427.427,0,0,1-.169-.035,13.287,13.287,0,0,0-7.113-.913c-.313.05-.59-.251-.624-.66a.724.724,0,0,1,.5-.824,14.139,14.139,0,0,1,7.577.972.815.815,0,0,1,.369.937A.606.606,0,0,1,33.068,15.378Z" style="fill:#868491"/><path d="M7.079,33.309a.606.606,0,0,1-.539-.523.812.812,0,0,1,.369-.936,14.944,14.944,0,0,1,1.749-.6c.3-.084.6.174.668.578a.769.769,0,0,1-.437.884,14.088,14.088,0,0,0-1.641.567A.447.447,0,0,1,7.079,33.309Z" style="fill:#b4b6bc"/><path d="M17.813,33.309a.43.43,0,0,1-.169-.035,13.333,13.333,0,0,0-6.566-.982c-.32.03-.583-.274-.608-.685a.713.713,0,0,1,.519-.8,14.22,14.22,0,0,1,6.994,1.047.812.812,0,0,1,.369.936A.606.606,0,0,1,17.813,33.309Z" style="fill:#b4b6bc"/><path d="M17.813,30.313a.447.447,0,0,1-.169-.034,13.286,13.286,0,0,0-10.4,0c-.3.123-.616-.1-.708-.489a.812.812,0,0,1,.369-.936,14.154,14.154,0,0,1,11.074,0,.812.812,0,0,1,.369.936A.606.606,0,0,1,17.813,30.313Z" style="fill:#b4b6bc"/><path d="M7.079,27.335a.606.606,0,0,1-.539-.523.814.814,0,0,1,.369-.937A14.324,14.324,0,0,1,13.32,24.78a.7.7,0,0,1,.538.782c-.015.413-.278.728-.592.711A13.4,13.4,0,0,0,7.248,27.3.43.43,0,0,1,7.079,27.335Z" style="fill:#b4b6bc"/><path d="M17.813,27.335a.43.43,0,0,1-.169-.035,14.053,14.053,0,0,0-2.189-.706A.754.754,0,0,1,15,25.729c.053-.406.348-.678.654-.606a15.11,15.11,0,0,1,2.332.752.815.815,0,0,1,.37.937A.608.608,0,0,1,17.813,27.335Z" style="fill:#b4b6bc"/><path d="M7.079,24.339a.606.606,0,0,1-.539-.523.812.812,0,0,1,.369-.936,14.186,14.186,0,0,1,9.908-.429.784.784,0,0,1,.415.9c-.074.4-.381.644-.682.549a13.313,13.313,0,0,0-9.3.4A.447.447,0,0,1,7.079,24.339Z" style="fill:#b4b6bc"/><path d="M7.079,21.352a.606.606,0,0,1-.539-.523.812.812,0,0,1,.369-.936,14.658,14.658,0,0,1,3.5-.973c.311-.05.59.25.624.659a.727.727,0,0,1-.5.825,13.789,13.789,0,0,0-3.283.914A.447.447,0,0,1,7.079,21.352Z" style="fill:#b4b6bc"/><path d="M16.684,20.936a.451.451,0,0,1-.134-.021,13.38,13.38,0,0,0-3.83-.648.683.683,0,0,1-.556-.759c.005-.412.249-.759.574-.735a14.271,14.271,0,0,1,4.079.691.784.784,0,0,1,.415.9A.622.622,0,0,1,16.684,20.936Z" style="fill:#b4b6bc"/><path d="M7.079,18.374a.606.606,0,0,1-.539-.523.814.814,0,0,1,.369-.937,14.149,14.149,0,0,1,7.577-.973.727.727,0,0,1,.5.825c-.034.409-.31.713-.624.659a13.286,13.286,0,0,0-7.113.914A.449.449,0,0,1,7.079,18.374Z" style="fill:#b4b6bc"/><path d="M7.079,15.378a.606.606,0,0,1-.539-.524.812.812,0,0,1,.37-.936c.388-.161.78-.3,1.164-.428.3-.1.609.148.683.549a.784.784,0,0,1-.416.9c-.36.116-.728.251-1.094.4A.426.426,0,0,1,7.079,15.378Z" style="fill:#b4b6bc"/><path d="M16.684,14.962a.422.422,0,0,1-.134-.022,13.233,13.233,0,0,0-6.019-.51c-.31.05-.59-.25-.624-.66a.725.725,0,0,1,.5-.824,14.076,14.076,0,0,1,6.411.543.785.785,0,0,1,.415.9A.622.622,0,0,1,16.684,14.962Z" style="fill:#b4b6bc"/><path d="M16.683,22.877c0,.3.252.476.44.31l1.255-1.106,1.256,1.106c.188.166.439-.012.439-.31V11.364a.794.794,0,0,0-.334-.687,15.216,15.216,0,0,0-2.7-1.252c-.179-.063-.355.12-.355.365Z" style="fill:#5d647f"/><g style="opacity:0.31;mix-blend-mode:multiply"><text transform="translate(80.667 65.751)" style="font-size:12px;fill:#150a00;font-family:Politica-BoldItalic, Politica;font-weight:700;font-style:italic">PROJE<tspan x="26.003" y="0" style="letter-spacing:-0.010009765625em">T</tspan><tspan x="30.324" y="0">OS </tspan><tspan x="0" y="14.4">LEGISL</tspan><tspan x="26.124" y="14.4" style="letter-spacing:-0.039957682291666664em">A</tspan><tspan x="31.116" y="14.4">TIVOS</tspan></text><text transform="translate(80.167 65.251)" style="font-size:12px;fill:#150a00;font-family:Politica-BoldItalic, Politica;font-weight:700;font-style:italic">PROJE<tspan x="26.003" y="0" style="letter-spacing:-0.010009765625em">T</tspan><tspan x="30.324" y="0">OS </tspan><tspan x="0" y="14.4">LEGISL</tspan><tspan x="26.124" y="14.4" style="letter-spacing:-0.039957682291666664em">A</tspan><tspan x="31.116" y="14.4">TIVOS</tspan></text><text transform="translate(79.667 64.751)" style="font-size:12px;fill:#150a00;font-family:Politica-BoldItalic, Politica;font-weight:700;font-style:italic">PROJE<tspan x="26.003" y="0" style="letter-spacing:-0.010009765625em">T</tspan><tspan x="30.324" y="0">OS </tspan><tspan x="0" y="14.4">LEGISL</tspan><tspan x="26.124" y="14.4" style="letter-spacing:-0.039957682291666664em">A</tspan><tspan x="31.116" y="14.4">TIVOS</tspan></text><text transform="translate(79.167 64.251)" style="font-size:12px;fill:#150a00;font-family:Politica-BoldItalic, Politica;font-weight:700;font-style:italic">PROJE<tspan x="26.003" y="0" style="letter-spacing:-0.010009765625em">T</tspan><tspan x="30.324" y="0">OS </tspan><tspan x="0" y="14.4">LEGISL</tspan><tspan x="26.124" y="14.4" style="letter-spacing:-0.039957682291666664em">A</tspan><tspan x="31.116" y="14.4">TIVOS</tspan></text><text transform="translate(78.667 63.751)" style="font-size:12px;fill:#150a00;font-family:Politica-BoldItalic, Politica;font-weight:700;font-style:italic">PROJE<tspan x="26.003" y="0" style="letter-spacing:-0.010009765625em">T</tspan><tspan x="30.324" y="0">OS </tspan><tspan x="0" y="14.4">LEGISL</tspan><tspan x="26.124" y="14.4" style="letter-spacing:-0.039957682291666664em">A</tspan><tspan x="31.116" y="14.4">TIVOS</tspan></text><text transform="translate(78.167 63.251)" style="font-size:12px;fill:#150a00;font-family:Politica-BoldItalic, Politica;font-weight:700;font-style:italic">PROJE<tspan x="26.003" y="0" style="letter-spacing:-0.010009765625em">T</tspan><tspan x="30.324" y="0">OS </tspan><tspan x="0" y="14.4">LEGISL</tspan><tspan x="26.124" y="14.4" style="letter-spacing:-0.039957682291666664em">A</tspan><tspan x="31.116" y="14.4">TIVOS</tspan></text><text transform="translate(77.667 62.751)" style="font-size:12px;fill:#150a00;font-family:Politica-BoldItalic, Politica;font-weight:700;font-style:italic">PROJE<tspan x="26.003" y="0" style="letter-spacing:-0.010009765625em">T</tspan><tspan x="30.324" y="0">OS </tspan><tspan x="0" y="14.4">LEGISL</tspan><tspan x="26.124" y="14.4" style="letter-spacing:-0.039957682291666664em">A</tspan><tspan x="31.116" y="14.4">TIVOS</tspan></text><text transform="translate(77.167 62.251)" style="font-size:12px;fill:#150a00;font-family:Politica-BoldItalic, Politica;font-weight:700;font-style:italic">PROJE<tspan x="26.003" y="0" style="letter-spacing:-0.010009765625em">T</tspan><tspan x="30.324" y="0">OS </tspan><tspan x="0" y="14.4">LEGISL</tspan><tspan x="26.124" y="14.4" style="letter-spacing:-0.039957682291666664em">A</tspan><tspan x="31.116" y="14.4">TIVOS</tspan></text><text transform="translate(76.667 61.751)" style="font-size:12px;fill:#150a00;font-family:Politica-BoldItalic, Politica;font-weight:700;font-style:italic">PROJE<tspan x="26.003" y="0" style="letter-spacing:-0.010009765625em">T</tspan><tspan x="30.324" y="0">OS </tspan><tspan x="0" y="14.4">LEGISL</tspan><tspan x="26.124" y="14.4" style="letter-spacing:-0.039957682291666664em">A</tspan><tspan x="31.116" y="14.4">TIVOS</tspan></text><text transform="translate(76.167 61.251)" style="font-size:12px;fill:#150a00;font-family:Politica-BoldItalic, Politica;font-weight:700;font-style:italic">PROJE<tspan x="26.003" y="0" style="letter-spacing:-0.010009765625em">T</tspan><tspan x="30.324" y="0">OS </tspan><tspan x="0" y="14.4">LEGISL</tspan><tspan x="26.124" y="14.4" style="letter-spacing:-0.039957682291666664em">A</tspan><tspan x="31.116" y="14.4">TIVOS</tspan></text><text transform="translate(75.667 60.751)" style="font-size:12px;fill:#150a00;font-family:Politica-BoldItalic, Politica;font-weight:700;font-style:italic">PROJE<tspan x="26.003" y="0" style="letter-spacing:-0.010009765625em">T</tspan><tspan x="30.324" y="0">OS </tspan><tspan x="0" y="14.4">LEGISL</tspan><tspan x="26.124" y="14.4" style="letter-spacing:-0.039957682291666664em">A</tspan><tspan x="31.116" y="14.4">TIVOS</tspan></text><text transform="translate(75.167 60.251)" style="font-size:12px;fill:#150a00;font-family:Politica-BoldItalic, Politica;font-weight:700;font-style:italic">PROJE<tspan x="26.003" y="0" style="letter-spacing:-0.010009765625em">T</tspan><tspan x="30.324" y="0">OS </tspan><tspan x="0" y="14.4">LEGISL</tspan><tspan x="26.124" y="14.4" style="letter-spacing:-0.039957682291666664em">A</tspan><tspan x="31.116" y="14.4">TIVOS</tspan></text><text transform="translate(74.667 59.751)" style="font-size:12px;fill:#150a00;font-family:Politica-BoldItalic, Politica;font-weight:700;font-style:italic">PROJE<tspan x="26.003" y="0" style="letter-spacing:-0.010009765625em">T</tspan><tspan x="30.324" y="0">OS </tspan><tspan x="0" y="14.4">LEGISL</tspan><tspan x="26.124" y="14.4" style="letter-spacing:-0.039957682291666664em">A</tspan><tspan x="31.116" y="14.4">TIVOS</tspan></text><text transform="translate(74.167 59.251)" style="font-size:12px;fill:#150a00;font-family:Politica-BoldItalic, Politica;font-weight:700;font-style:italic">PROJE<tspan x="26.003" y="0" style="letter-spacing:-0.010009765625em">T</tspan><tspan x="30.324" y="0">OS </tspan><tspan x="0" y="14.4">LEGISL</tspan><tspan x="26.124" y="14.4" style="letter-spacing:-0.039957682291666664em">A</tspan><tspan x="31.116" y="14.4">TIVOS</tspan></text><text transform="translate(73.667 58.751)" style="font-size:12px;fill:#150a00;font-family:Politica-BoldItalic, Politica;font-weight:700;font-style:italic">PROJE<tspan x="26.003" y="0" style="letter-spacing:-0.010009765625em">T</tspan><tspan x="30.324" y="0">OS </tspan><tspan x="0" y="14.4">LEGISL</tspan><tspan x="26.124" y="14.4" style="letter-spacing:-0.039957682291666664em">A</tspan><tspan x="31.116" y="14.4">TIVOS</tspan></text><text transform="translate(73.167 58.251)" style="font-size:12px;fill:#150a00;font-family:Politica-BoldItalic, Politica;font-weight:700;font-style:italic">PROJE<tspan x="26.003" y="0" style="letter-spacing:-0.010009765625em">T</tspan><tspan x="30.324" y="0">OS </tspan><tspan x="0" y="14.4">LEGISL</tspan><tspan x="26.124" y="14.4" style="letter-spacing:-0.039957682291666664em">A</tspan><tspan x="31.116" y="14.4">TIVOS</tspan></text><text transform="translate(72.667 57.751)" style="font-size:12px;fill:#150a00;font-family:Politica-BoldItalic, Politica;font-weight:700;font-style:italic">PROJE<tspan x="26.003" y="0" style="letter-spacing:-0.010009765625em">T</tspan><tspan x="30.324" y="0">OS </tspan><tspan x="0" y="14.4">LEGISL</tspan><tspan x="26.124" y="14.4" style="letter-spacing:-0.039957682291666664em">A</tspan><tspan x="31.116" y="14.4">TIVOS</tspan></text><text transform="translate(72.167 57.251)" style="font-size:12px;fill:#150a00;font-family:Politica-BoldItalic, Politica;font-weight:700;font-style:italic">PROJE<tspan x="26.003" y="0" style="letter-spacing:-0.010009765625em">T</tspan><tspan x="30.324" y="0">OS </tspan><tspan x="0" y="14.4">LEGISL</tspan><tspan x="26.124" y="14.4" style="letter-spacing:-0.039957682291666664em">A</tspan><tspan x="31.116" y="14.4">TIVOS</tspan></text><text transform="translate(71.667 56.751)" style="font-size:12px;fill:#150a00;font-family:Politica-BoldItalic, Politica;font-weight:700;font-style:italic">PROJE<tspan x="26.003" y="0" style="letter-spacing:-0.010009765625em">T</tspan><tspan x="30.324" y="0">OS </tspan><tspan x="0" y="14.4">LEGISL</tspan><tspan x="26.124" y="14.4" style="letter-spacing:-0.039957682291666664em">A</tspan><tspan x="31.116" y="14.4">TIVOS</tspan></text><text transform="translate(71.167 56.251)" style="font-size:12px;fill:#150a00;font-family:Politica-BoldItalic, Politica;font-weight:700;font-style:italic">PROJE<tspan x="26.003" y="0" style="letter-spacing:-0.010009765625em">T</tspan><tspan x="30.324" y="0">OS </tspan><tspan x="0" y="14.4">LEGISL</tspan><tspan x="26.124" y="14.4" style="letter-spacing:-0.039957682291666664em">A</tspan><tspan x="31.116" y="14.4">TIVOS</tspan></text><text transform="translate(70.667 55.751)" style="font-size:12px;fill:#150a00;font-family:Politica-BoldItalic, Politica;font-weight:700;font-style:italic">PROJE<tspan x="26.003" y="0" style="letter-spacing:-0.010009765625em">T</tspan><tspan x="30.324" y="0">OS </tspan><tspan x="0" y="14.4">LEGISL</tspan><tspan x="26.124" y="14.4" style="letter-spacing:-0.039957682291666664em">A</tspan><tspan x="31.116" y="14.4">TIVOS</tspan></text><text transform="translate(70.167 55.251)" style="font-size:12px;fill:#150a00;font-family:Politica-BoldItalic, Politica;font-weight:700;font-style:italic">PROJE<tspan x="26.003" y="0" style="letter-spacing:-0.010009765625em">T</tspan><tspan x="30.324" y="0">OS </tspan><tspan x="0" y="14.4">LEGISL</tspan><tspan x="26.124" y="14.4" style="letter-spacing:-0.039957682291666664em">A</tspan><tspan x="31.116" y="14.4">TIVOS</tspan></text><text transform="translate(69.667 54.751)" style="font-size:12px;fill:#150a00;font-family:Politica-BoldItalic, Politica;font-weight:700;font-style:italic">PROJE<tspan x="26.003" y="0" style="letter-spacing:-0.010009765625em">T</tspan><tspan x="30.324" y="0">OS </tspan><tspan x="0" y="14.4">LEGISL</tspan><tspan x="26.124" y="14.4" style="letter-spacing:-0.039957682291666664em">A</tspan><tspan x="31.116" y="14.4">TIVOS</tspan></text><text transform="translate(69.167 54.251)" style="font-size:12px;fill:#150a00;font-family:Politica-BoldItalic, Politica;font-weight:700;font-style:italic">PROJE<tspan x="26.003" y="0" style="letter-spacing:-0.010009765625em">T</tspan><tspan x="30.324" y="0">OS </tspan><tspan x="0" y="14.4">LEGISL</tspan><tspan x="26.124" y="14.4" style="letter-spacing:-0.039957682291666664em">A</tspan><tspan x="31.116" y="14.4">TIVOS</tspan></text><text transform="translate(68.667 53.751)" style="font-size:12px;fill:#150a00;font-family:Politica-BoldItalic, Politica;font-weight:700;font-style:italic">PROJE<tspan x="26.003" y="0" style="letter-spacing:-0.010009765625em">T</tspan><tspan x="30.324" y="0">OS </tspan><tspan x="0" y="14.4">LEGISL</tspan><tspan x="26.124" y="14.4" style="letter-spacing:-0.039957682291666664em">A</tspan><tspan x="31.116" y="14.4">TIVOS</tspan></text><text transform="translate(68.167 53.251)" style="font-size:12px;fill:#150a00;font-family:Politica-BoldItalic, Politica;font-weight:700;font-style:italic">PROJE<tspan x="26.003" y="0" style="letter-spacing:-0.010009765625em">T</tspan><tspan x="30.324" y="0">OS </tspan><tspan x="0" y="14.4">LEGISL</tspan><tspan x="26.124" y="14.4" style="letter-spacing:-0.039957682291666664em">A</tspan><tspan x="31.116" y="14.4">TIVOS</tspan></text><text transform="translate(67.667 52.751)" style="font-size:12px;fill:#150a00;font-family:Politica-BoldItalic, Politica;font-weight:700;font-style:italic">PROJE<tspan x="26.003" y="0" style="letter-spacing:-0.010009765625em">T</tspan><tspan x="30.324" y="0">OS </tspan><tspan x="0" y="14.4">LEGISL</tspan><tspan x="26.124" y="14.4" style="letter-spacing:-0.039957682291666664em">A</tspan><tspan x="31.116" y="14.4">TIVOS</tspan></text><text transform="translate(67.167 52.251)" style="font-size:12px;fill:#150a00;font-family:Politica-BoldItalic, Politica;font-weight:700;font-style:italic">PROJE<tspan x="26.003" y="0" style="letter-spacing:-0.010009765625em">T</tspan><tspan x="30.324" y="0">OS </tspan><tspan x="0" y="14.4">LEGISL</tspan><tspan x="26.124" y="14.4" style="letter-spacing:-0.039957682291666664em">A</tspan><tspan x="31.116" y="14.4">TIVOS</tspan></text><text transform="translate(66.667 51.751)" style="font-size:12px;fill:#150a00;font-family:Politica-BoldItalic, Politica;font-weight:700;font-style:italic">PROJE<tspan x="26.003" y="0" style="letter-spacing:-0.010009765625em">T</tspan><tspan x="30.324" y="0">OS </tspan><tspan x="0" y="14.4">LEGISL</tspan><tspan x="26.124" y="14.4" style="letter-spacing:-0.039957682291666664em">A</tspan><tspan x="31.116" y="14.4">TIVOS</tspan></text><text transform="translate(66.167 51.251)" style="font-size:12px;fill:#150a00;font-family:Politica-BoldItalic, Politica;font-weight:700;font-style:italic">PROJE<tspan x="26.003" y="0" style="letter-spacing:-0.010009765625em">T</tspan><tspan x="30.324" y="0">OS </tspan><tspan x="0" y="14.4">LEGISL</tspan><tspan x="26.124" y="14.4" style="letter-spacing:-0.039957682291666664em">A</tspan><tspan x="31.116" y="14.4">TIVOS</tspan></text><text transform="translate(65.667 50.751)" style="font-size:12px;fill:#150a00;font-family:Politica-BoldItalic, Politica;font-weight:700;font-style:italic">PROJE<tspan x="26.003" y="0" style="letter-spacing:-0.010009765625em">T</tspan><tspan x="30.324" y="0">OS </tspan><tspan x="0" y="14.4">LEGISL</tspan><tspan x="26.124" y="14.4" style="letter-spacing:-0.039957682291666664em">A</tspan><tspan x="31.116" y="14.4">TIVOS</tspan></text><text transform="translate(65.167 50.251)" style="font-size:12px;fill:#150a00;font-family:Politica-BoldItalic, Politica;font-weight:700;font-style:italic">PROJE<tspan x="26.003" y="0" style="letter-spacing:-0.010009765625em">T</tspan><tspan x="30.324" y="0">OS </tspan><tspan x="0" y="14.4">LEGISL</tspan><tspan x="26.124" y="14.4" style="letter-spacing:-0.039957682291666664em">A</tspan><tspan x="31.116" y="14.4">TIVOS</tspan></text><text transform="translate(64.667 49.751)" style="font-size:12px;fill:#150a00;font-family:Politica-BoldItalic, Politica;font-weight:700;font-style:italic">PROJE<tspan x="26.003" y="0" style="letter-spacing:-0.010009765625em">T</tspan><tspan x="30.324" y="0">OS </tspan><tspan x="0" y="14.4">LEGISL</tspan><tspan x="26.124" y="14.4" style="letter-spacing:-0.039957682291666664em">A</tspan><tspan x="31.116" y="14.4">TIVOS</tspan></text><text transform="translate(64.167 49.251)" style="font-size:12px;fill:#150a00;font-family:Politica-BoldItalic, Politica;font-weight:700;font-style:italic">PROJE<tspan x="26.003" y="0" style="letter-spacing:-0.010009765625em">T</tspan><tspan x="30.324" y="0">OS </tspan><tspan x="0" y="14.4">LEGISL</tspan><tspan x="26.124" y="14.4" style="letter-spacing:-0.039957682291666664em">A</tspan><tspan x="31.116" y="14.4">TIVOS</tspan></text><text transform="translate(63.667 48.751)" style="font-size:12px;fill:#150a00;font-family:Politica-BoldItalic, Politica;font-weight:700;font-style:italic">PROJE<tspan x="26.003" y="0" style="letter-spacing:-0.010009765625em">T</tspan><tspan x="30.324" y="0">OS </tspan><tspan x="0" y="14.4">LEGISL</tspan><tspan x="26.124" y="14.4" style="letter-spacing:-0.039957682291666664em">A</tspan><tspan x="31.116" y="14.4">TIVOS</tspan></text><text transform="translate(63.167 48.251)" style="font-size:12px;fill:#150a00;font-family:Politica-BoldItalic, Politica;font-weight:700;font-style:italic">PROJE<tspan x="26.003" y="0" style="letter-spacing:-0.010009765625em">T</tspan><tspan x="30.324" y="0">OS </tspan><tspan x="0" y="14.4">LEGISL</tspan><tspan x="26.124" y="14.4" style="letter-spacing:-0.039957682291666664em">A</tspan><tspan x="31.116" y="14.4">TIVOS</tspan></text><text transform="translate(62.667 47.751)" style="font-size:12px;fill:#150a00;font-family:Politica-BoldItalic, Politica;font-weight:700;font-style:italic">PROJE<tspan x="26.003" y="0" style="letter-spacing:-0.010009765625em">T</tspan><tspan x="30.324" y="0">OS </tspan><tspan x="0" y="14.4">LEGISL</tspan><tspan x="26.124" y="14.4" style="letter-spacing:-0.039957682291666664em">A</tspan><tspan x="31.116" y="14.4">TIVOS</tspan></text><text transform="translate(62.167 47.251)" style="font-size:12px;fill:#150a00;font-family:Politica-BoldItalic, Politica;font-weight:700;font-style:italic">PROJE<tspan x="26.003" y="0" style="letter-spacing:-0.010009765625em">T</tspan><tspan x="30.324" y="0">OS </tspan><tspan x="0" y="14.4">LEGISL</tspan><tspan x="26.124" y="14.4" style="letter-spacing:-0.039957682291666664em">A</tspan><tspan x="31.116" y="14.4">TIVOS</tspan></text><text transform="translate(61.667 46.751)" style="font-size:12px;fill:#150a00;font-family:Politica-BoldItalic, Politica;font-weight:700;font-style:italic">PROJE<tspan x="26.003" y="0" style="letter-spacing:-0.010009765625em">T</tspan><tspan x="30.324" y="0">OS </tspan><tspan x="0" y="14.4">LEGISL</tspan><tspan x="26.124" y="14.4" style="letter-spacing:-0.039957682291666664em">A</tspan><tspan x="31.116" y="14.4">TIVOS</tspan></text><text transform="translate(61.167 46.251)" style="font-size:12px;fill:#150a00;font-family:Politica-BoldItalic, Politica;font-weight:700;font-style:italic">PROJE<tspan x="26.003" y="0" style="letter-spacing:-0.010009765625em">T</tspan><tspan x="30.324" y="0">OS </tspan><tspan x="0" y="14.4">LEGISL</tspan><tspan x="26.124" y="14.4" style="letter-spacing:-0.039957682291666664em">A</tspan><tspan x="31.116" y="14.4">TIVOS</tspan></text><text transform="translate(60.667 45.751)" style="font-size:12px;fill:#150a00;font-family:Politica-BoldItalic, Politica;font-weight:700;font-style:italic">PROJE<tspan x="26.003" y="0" style="letter-spacing:-0.010009765625em">T</tspan><tspan x="30.324" y="0">OS </tspan><tspan x="0" y="14.4">LEGISL</tspan><tspan x="26.124" y="14.4" style="letter-spacing:-0.039957682291666664em">A</tspan><tspan x="31.116" y="14.4">TIVOS</tspan></text><text transform="translate(60.167 45.251)" style="font-size:12px;fill:#150a00;font-family:Politica-BoldItalic, Politica;font-weight:700;font-style:italic">PROJE<tspan x="26.003" y="0" style="letter-spacing:-0.010009765625em">T</tspan><tspan x="30.324" y="0">OS </tspan><tspan x="0" y="14.4">LEGISL</tspan><tspan x="26.124" y="14.4" style="letter-spacing:-0.039957682291666664em">A</tspan><tspan x="31.116" y="14.4">TIVOS</tspan></text><text transform="translate(59.667 44.751)" style="font-size:12px;fill:#150a00;font-family:Politica-BoldItalic, Politica;font-weight:700;font-style:italic">PROJE<tspan x="26.003" y="0" style="letter-spacing:-0.010009765625em">T</tspan><tspan x="30.324" y="0">OS </tspan><tspan x="0" y="14.4">LEGISL</tspan><tspan x="26.124" y="14.4" style="letter-spacing:-0.039957682291666664em">A</tspan><tspan x="31.116" y="14.4">TIVOS</tspan></text><text transform="translate(59.167 44.251)" style="font-size:12px;fill:#150a00;font-family:Politica-BoldItalic, Politica;font-weight:700;font-style:italic">PROJE<tspan x="26.003" y="0" style="letter-spacing:-0.010009765625em">T</tspan><tspan x="30.324" y="0">OS </tspan><tspan x="0" y="14.4">LEGISL</tspan><tspan x="26.124" y="14.4" style="letter-spacing:-0.039957682291666664em">A</tspan><tspan x="31.116" y="14.4">TIVOS</tspan></text><text transform="translate(58.667 43.751)" style="font-size:12px;fill:#150a00;font-family:Politica-BoldItalic, Politica;font-weight:700;font-style:italic">PROJE<tspan x="26.003" y="0" style="letter-spacing:-0.010009765625em">T</tspan><tspan x="30.324" y="0">OS </tspan><tspan x="0" y="14.4">LEGISL</tspan><tspan x="26.124" y="14.4" style="letter-spacing:-0.039957682291666664em">A</tspan><tspan x="31.116" y="14.4">TIVOS</tspan></text><text transform="translate(58.167 43.251)" style="font-size:12px;fill:#150a00;font-family:Politica-BoldItalic, Politica;font-weight:700;font-style:italic">PROJE<tspan x="26.003" y="0" style="letter-spacing:-0.010009765625em">T</tspan><tspan x="30.324" y="0">OS </tspan><tspan x="0" y="14.4">LEGISL</tspan><tspan x="26.124" y="14.4" style="letter-spacing:-0.039957682291666664em">A</tspan><tspan x="31.116" y="14.4">TIVOS</tspan></text><text transform="translate(57.667 42.751)" style="font-size:12px;fill:#150a00;font-family:Politica-BoldItalic, Politica;font-weight:700;font-style:italic">PROJE<tspan x="26.003" y="0" style="letter-spacing:-0.010009765625em">T</tspan><tspan x="30.324" y="0">OS </tspan><tspan x="0" y="14.4">LEGISL</tspan><tspan x="26.124" y="14.4" style="letter-spacing:-0.039957682291666664em">A</tspan><tspan x="31.116" y="14.4">TIVOS</tspan></text><text transform="translate(57.167 42.251)" style="font-size:12px;fill:#150a00;font-family:Politica-BoldItalic, Politica;font-weight:700;font-style:italic">PROJE<tspan x="26.003" y="0" style="letter-spacing:-0.010009765625em">T</tspan><tspan x="30.324" y="0">OS </tspan><tspan x="0" y="14.4">LEGISL</tspan><tspan x="26.124" y="14.4" style="letter-spacing:-0.039957682291666664em">A</tspan><tspan x="31.116" y="14.4">TIVOS</tspan></text><text transform="translate(56.667 41.751)" style="font-size:12px;fill:#150a00;font-family:Politica-BoldItalic, Politica;font-weight:700;font-style:italic">PROJE<tspan x="26.003" y="0" style="letter-spacing:-0.010009765625em">T</tspan><tspan x="30.324" y="0">OS </tspan><tspan x="0" y="14.4">LEGISL</tspan><tspan x="26.124" y="14.4" style="letter-spacing:-0.039957682291666664em">A</tspan><tspan x="31.116" y="14.4">TIVOS</tspan></text><text transform="translate(56.167 41.251)" style="font-size:12px;fill:#150a00;font-family:Politica-BoldItalic, Politica;font-weight:700;font-style:italic">PROJE<tspan x="26.003" y="0" style="letter-spacing:-0.010009765625em">T</tspan><tspan x="30.324" y="0">OS </tspan><tspan x="0" y="14.4">LEGISL</tspan><tspan x="26.124" y="14.4" style="letter-spacing:-0.039957682291666664em">A</tspan><tspan x="31.116" y="14.4">TIVOS</tspan></text><text transform="translate(55.667 40.751)" style="font-size:12px;fill:#150a00;font-family:Politica-BoldItalic, Politica;font-weight:700;font-style:italic">PROJE<tspan x="26.003" y="0" style="letter-spacing:-0.010009765625em">T</tspan><tspan x="30.324" y="0">OS </tspan><tspan x="0" y="14.4">LEGISL</tspan><tspan x="26.124" y="14.4" style="letter-spacing:-0.039957682291666664em">A</tspan><tspan x="31.116" y="14.4">TIVOS</tspan></text><text transform="translate(55.167 40.251)" style="font-size:12px;fill:#150a00;font-family:Politica-BoldItalic, Politica;font-weight:700;font-style:italic">PROJE<tspan x="26.003" y="0" style="letter-spacing:-0.010009765625em">T</tspan><tspan x="30.324" y="0">OS </tspan><tspan x="0" y="14.4">LEGISL</tspan><tspan x="26.124" y="14.4" style="letter-spacing:-0.039957682291666664em">A</tspan><tspan x="31.116" y="14.4">TIVOS</tspan></text><text transform="translate(54.667 39.751)" style="font-size:12px;fill:#150a00;font-family:Politica-BoldItalic, Politica;font-weight:700;font-style:italic">PROJE<tspan x="26.003" y="0" style="letter-spacing:-0.010009765625em">T</tspan><tspan x="30.324" y="0">OS </tspan><tspan x="0" y="14.4">LEGISL</tspan><tspan x="26.124" y="14.4" style="letter-spacing:-0.039957682291666664em">A</tspan><tspan x="31.116" y="14.4">TIVOS</tspan></text><text transform="translate(54.167 39.251)" style="font-size:12px;fill:#150a00;font-family:Politica-BoldItalic, Politica;font-weight:700;font-style:italic">PROJE<tspan x="26.003" y="0" style="letter-spacing:-0.010009765625em">T</tspan><tspan x="30.324" y="0">OS </tspan><tspan x="0" y="14.4">LEGISL</tspan><tspan x="26.124" y="14.4" style="letter-spacing:-0.039957682291666664em">A</tspan><tspan x="31.116" y="14.4">TIVOS</tspan></text><text transform="translate(53.667 38.751)" style="font-size:12px;fill:#150a00;font-family:Politica-BoldItalic, Politica;font-weight:700;font-style:italic">PROJE<tspan x="26.003" y="0" style="letter-spacing:-0.010009765625em">T</tspan><tspan x="30.324" y="0">OS </tspan><tspan x="0" y="14.4">LEGISL</tspan><tspan x="26.124" y="14.4" style="letter-spacing:-0.039957682291666664em">A</tspan><tspan x="31.116" y="14.4">TIVOS</tspan></text><text transform="translate(53.167 38.251)" style="font-size:12px;fill:#150a00;font-family:Politica-BoldItalic, Politica;font-weight:700;font-style:italic">PROJE<tspan x="26.003" y="0" style="letter-spacing:-0.010009765625em">T</tspan><tspan x="30.324" y="0">OS </tspan><tspan x="0" y="14.4">LEGISL</tspan><tspan x="26.124" y="14.4" style="letter-spacing:-0.039957682291666664em">A</tspan><tspan x="31.116" y="14.4">TIVOS</tspan></text><text transform="translate(52.667 37.751)" style="font-size:12px;fill:#150a00;font-family:Politica-BoldItalic, Politica;font-weight:700;font-style:italic">PROJE<tspan x="26.003" y="0" style="letter-spacing:-0.010009765625em">T</tspan><tspan x="30.324" y="0">OS </tspan><tspan x="0" y="14.4">LEGISL</tspan><tspan x="26.124" y="14.4" style="letter-spacing:-0.039957682291666664em">A</tspan><tspan x="31.116" y="14.4">TIVOS</tspan></text><text transform="translate(52.167 37.251)" style="font-size:12px;fill:#150a00;font-family:Politica-BoldItalic, Politica;font-weight:700;font-style:italic">PROJE<tspan x="26.003" y="0" style="letter-spacing:-0.010009765625em">T</tspan><tspan x="30.324" y="0">OS </tspan><tspan x="0" y="14.4">LEGISL</tspan><tspan x="26.124" y="14.4" style="letter-spacing:-0.039957682291666664em">A</tspan><tspan x="31.116" y="14.4">TIVOS</tspan></text><text transform="translate(51.667 36.751)" style="font-size:12px;fill:#150a00;font-family:Politica-BoldItalic, Politica;font-weight:700;font-style:italic">PROJE<tspan x="26.003" y="0" style="letter-spacing:-0.010009765625em">T</tspan><tspan x="30.324" y="0">OS </tspan><tspan x="0" y="14.4">LEGISL</tspan><tspan x="26.124" y="14.4" style="letter-spacing:-0.039957682291666664em">A</tspan><tspan x="31.116" y="14.4">TIVOS</tspan></text><text transform="translate(51.167 36.251)" style="font-size:12px;fill:#150a00;font-family:Politica-BoldItalic, Politica;font-weight:700;font-style:italic">PROJE<tspan x="26.003" y="0" style="letter-spacing:-0.010009765625em">T</tspan><tspan x="30.324" y="0">OS </tspan><tspan x="0" y="14.4">LEGISL</tspan><tspan x="26.124" y="14.4" style="letter-spacing:-0.039957682291666664em">A</tspan><tspan x="31.116" y="14.4">TIVOS</tspan></text><text transform="translate(50.667 35.751)" style="font-size:12px;fill:#150a00;font-family:Politica-BoldItalic, Politica;font-weight:700;font-style:italic">PROJE<tspan x="26.003" y="0" style="letter-spacing:-0.010009765625em">T</tspan><tspan x="30.324" y="0">OS </tspan><tspan x="0" y="14.4">LEGISL</tspan><tspan x="26.124" y="14.4" style="letter-spacing:-0.039957682291666664em">A</tspan><tspan x="31.116" y="14.4">TIVOS</tspan></text><text transform="translate(50.167 35.251)" style="font-size:12px;fill:#150a00;font-family:Politica-BoldItalic, Politica;font-weight:700;font-style:italic">PROJE<tspan x="26.003" y="0" style="letter-spacing:-0.010009765625em">T</tspan><tspan x="30.324" y="0">OS </tspan><tspan x="0" y="14.4">LEGISL</tspan><tspan x="26.124" y="14.4" style="letter-spacing:-0.039957682291666664em">A</tspan><tspan x="31.116" y="14.4">TIVOS</tspan></text><text transform="translate(49.667 34.751)" style="font-size:12px;fill:#150a00;font-family:Politica-BoldItalic, Politica;font-weight:700;font-style:italic">PROJE<tspan x="26.003" y="0" style="letter-spacing:-0.010009765625em">T</tspan><tspan x="30.324" y="0">OS </tspan><tspan x="0" y="14.4">LEGISL</tspan><tspan x="26.124" y="14.4" style="letter-spacing:-0.039957682291666664em">A</tspan><tspan x="31.116" y="14.4">TIVOS</tspan></text><text transform="translate(49.167 34.251)" style="font-size:12px;fill:#150a00;font-family:Politica-BoldItalic, Politica;font-weight:700;font-style:italic">PROJE<tspan x="26.003" y="0" style="letter-spacing:-0.010009765625em">T</tspan><tspan x="30.324" y="0">OS </tspan><tspan x="0" y="14.4">LEGISL</tspan><tspan x="26.124" y="14.4" style="letter-spacing:-0.039957682291666664em">A</tspan><tspan x="31.116" y="14.4">TIVOS</tspan></text><text transform="translate(48.667 33.751)" style="font-size:12px;fill:#150a00;font-family:Politica-BoldItalic, Politica;font-weight:700;font-style:italic">PROJE<tspan x="26.003" y="0" style="letter-spacing:-0.010009765625em">T</tspan><tspan x="30.324" y="0">OS </tspan><tspan x="0" y="14.4">LEGISL</tspan><tspan x="26.124" y="14.4" style="letter-spacing:-0.039957682291666664em">A</tspan><tspan x="31.116" y="14.4">TIVOS</tspan></text><text transform="translate(48.167 33.251)" style="font-size:12px;fill:#150a00;font-family:Politica-BoldItalic, Politica;font-weight:700;font-style:italic">PROJE<tspan x="26.003" y="0" style="letter-spacing:-0.010009765625em">T</tspan><tspan x="30.324" y="0">OS </tspan><tspan x="0" y="14.4">LEGISL</tspan><tspan x="26.124" y="14.4" style="letter-spacing:-0.039957682291666664em">A</tspan><tspan x="31.116" y="14.4">TIVOS</tspan></text><text transform="translate(47.667 32.751)" style="font-size:12px;fill:#150a00;font-family:Politica-BoldItalic, Politica;font-weight:700;font-style:italic">PROJE<tspan x="26.003" y="0" style="letter-spacing:-0.010009765625em">T</tspan><tspan x="30.324" y="0">OS </tspan><tspan x="0" y="14.4">LEGISL</tspan><tspan x="26.124" y="14.4" style="letter-spacing:-0.039957682291666664em">A</tspan><tspan x="31.116" y="14.4">TIVOS</tspan></text><text transform="translate(47.167 32.251)" style="font-size:12px;fill:#150a00;font-family:Politica-BoldItalic, Politica;font-weight:700;font-style:italic">PROJE<tspan x="26.003" y="0" style="letter-spacing:-0.010009765625em">T</tspan><tspan x="30.324" y="0">OS </tspan><tspan x="0" y="14.4">LEGISL</tspan><tspan x="26.124" y="14.4" style="letter-spacing:-0.039957682291666664em">A</tspan><tspan x="31.116" y="14.4">TIVOS</tspan></text><text transform="translate(46.667 31.751)" style="font-size:12px;fill:#150a00;font-family:Politica-BoldItalic, Politica;font-weight:700;font-style:italic">PROJE<tspan x="26.003" y="0" style="letter-spacing:-0.010009765625em">T</tspan><tspan x="30.324" y="0">OS </tspan><tspan x="0" y="14.4">LEGISL</tspan><tspan x="26.124" y="14.4" style="letter-spacing:-0.039957682291666664em">A</tspan><tspan x="31.116" y="14.4">TIVOS</tspan></text><text transform="translate(46.167 31.251)" style="font-size:12px;fill:#150a00;font-family:Politica-BoldItalic, Politica;font-weight:700;font-style:italic">PROJE<tspan x="26.003" y="0" style="letter-spacing:-0.010009765625em">T</tspan><tspan x="30.324" y="0">OS </tspan><tspan x="0" y="14.4">LEGISL</tspan><tspan x="26.124" y="14.4" style="letter-spacing:-0.039957682291666664em">A</tspan><tspan x="31.116" y="14.4">TIVOS</tspan></text><text transform="translate(45.667 30.751)" style="font-size:12px;fill:#150a00;font-family:Politica-BoldItalic, Politica;font-weight:700;font-style:italic">PROJE<tspan x="26.003" y="0" style="letter-spacing:-0.010009765625em">T</tspan><tspan x="30.324" y="0">OS </tspan><tspan x="0" y="14.4">LEGISL</tspan><tspan x="26.124" y="14.4" style="letter-spacing:-0.039957682291666664em">A</tspan><tspan x="31.116" y="14.4">TIVOS</tspan></text><text transform="translate(45.167 30.251)" style="font-size:12px;fill:#150a00;font-family:Politica-BoldItalic, Politica;font-weight:700;font-style:italic">PROJE<tspan x="26.003" y="0" style="letter-spacing:-0.010009765625em">T</tspan><tspan x="30.324" y="0">OS </tspan><tspan x="0" y="14.4">LEGISL</tspan><tspan x="26.124" y="14.4" style="letter-spacing:-0.039957682291666664em">A</tspan><tspan x="31.116" y="14.4">TIVOS</tspan></text><text transform="translate(44.667 29.751)" style="font-size:12px;fill:#150a00;font-family:Politica-BoldItalic, Politica;font-weight:700;font-style:italic">PROJE<tspan x="26.003" y="0" style="letter-spacing:-0.010009765625em">T</tspan><tspan x="30.324" y="0">OS </tspan><tspan x="0" y="14.4">LEGISL</tspan><tspan x="26.124" y="14.4" style="letter-spacing:-0.039957682291666664em">A</tspan><tspan x="31.116" y="14.4">TIVOS</tspan></text><text transform="translate(44.167 29.251)" style="font-size:12px;fill:#150a00;font-family:Politica-BoldItalic, Politica;font-weight:700;font-style:italic">PROJE<tspan x="26.003" y="0" style="letter-spacing:-0.010009765625em">T</tspan><tspan x="30.324" y="0">OS </tspan><tspan x="0" y="14.4">LEGISL</tspan><tspan x="26.124" y="14.4" style="letter-spacing:-0.039957682291666664em">A</tspan><tspan x="31.116" y="14.4">TIVOS</tspan></text><text transform="translate(43.667 28.751)" style="font-size:12px;fill:#150a00;font-family:Politica-BoldItalic, Politica;font-weight:700;font-style:italic">PROJE<tspan x="26.003" y="0" style="letter-spacing:-0.010009765625em">T</tspan><tspan x="30.324" y="0">OS </tspan><tspan x="0" y="14.4">LEGISL</tspan><tspan x="26.124" y="14.4" style="letter-spacing:-0.039957682291666664em">A</tspan><tspan x="31.116" y="14.4">TIVOS</tspan></text><text transform="translate(43.167 28.251)" style="font-size:12px;fill:#150a00;font-family:Politica-BoldItalic, Politica;font-weight:700;font-style:italic">PROJE<tspan x="26.003" y="0" style="letter-spacing:-0.010009765625em">T</tspan><tspan x="30.324" y="0">OS </tspan><tspan x="0" y="14.4">LEGISL</tspan><tspan x="26.124" y="14.4" style="letter-spacing:-0.039957682291666664em">A</tspan><tspan x="31.116" y="14.4">TIVOS</tspan></text><text transform="translate(42.667 27.751)" style="font-size:12px;fill:#150a00;font-family:Politica-BoldItalic, Politica;font-weight:700;font-style:italic">PROJE<tspan x="26.003" y="0" style="letter-spacing:-0.010009765625em">T</tspan><tspan x="30.324" y="0">OS </tspan><tspan x="0" y="14.4">LEGISL</tspan><tspan x="26.124" y="14.4" style="letter-spacing:-0.039957682291666664em">A</tspan><tspan x="31.116" y="14.4">TIVOS</tspan></text><text transform="translate(42.167 27.251)" style="font-size:12px;fill:#150a00;font-family:Politica-BoldItalic, Politica;font-weight:700;font-style:italic">PROJE<tspan x="26.003" y="0" style="letter-spacing:-0.010009765625em">T</tspan><tspan x="30.324" y="0">OS </tspan><tspan x="0" y="14.4">LEGISL</tspan><tspan x="26.124" y="14.4" style="letter-spacing:-0.039957682291666664em">A</tspan><tspan x="31.116" y="14.4">TIVOS</tspan></text><text transform="translate(41.667 26.751)" style="font-size:12px;fill:#150a00;font-family:Politica-BoldItalic, Politica;font-weight:700;font-style:italic">PROJE<tspan x="26.003" y="0" style="letter-spacing:-0.010009765625em">T</tspan><tspan x="30.324" y="0">OS </tspan><tspan x="0" y="14.4">LEGISL</tspan><tspan x="26.124" y="14.4" style="letter-spacing:-0.039957682291666664em">A</tspan><tspan x="31.116" y="14.4">TIVOS</tspan></text><text transform="translate(41.167 26.251)" style="font-size:12px;fill:#150a00;font-family:Politica-BoldItalic, Politica;font-weight:700;font-style:italic">PROJE<tspan x="26.003" y="0" style="letter-spacing:-0.010009765625em">T</tspan><tspan x="30.324" y="0">OS </tspan><tspan x="0" y="14.4">LEGISL</tspan><tspan x="26.124" y="14.4" style="letter-spacing:-0.039957682291666664em">A</tspan><tspan x="31.116" y="14.4">TIVOS</tspan></text><text transform="translate(40.667 25.751)" style="font-size:12px;fill:#150a00;font-family:Politica-BoldItalic, Politica;font-weight:700;font-style:italic">PROJE<tspan x="26.003" y="0" style="letter-spacing:-0.010009765625em">T</tspan><tspan x="30.324" y="0">OS </tspan><tspan x="0" y="14.4">LEGISL</tspan><tspan x="26.124" y="14.4" style="letter-spacing:-0.039957682291666664em">A</tspan><tspan x="31.116" y="14.4">TIVOS</tspan></text><text transform="translate(40.167 25.251)" style="font-size:12px;fill:#150a00;font-family:Politica-BoldItalic, Politica;font-weight:700;font-style:italic">PROJE<tspan x="26.003" y="0" style="letter-spacing:-0.010009765625em">T</tspan><tspan x="30.324" y="0">OS </tspan><tspan x="0" y="14.4">LEGISL</tspan><tspan x="26.124" y="14.4" style="letter-spacing:-0.039957682291666664em">A</tspan><tspan x="31.116" y="14.4">TIVOS</tspan></text><text transform="translate(39.667 24.751)" style="font-size:12px;fill:#150a00;font-family:Politica-BoldItalic, Politica;font-weight:700;font-style:italic">PROJE<tspan x="26.003" y="0" style="letter-spacing:-0.010009765625em">T</tspan><tspan x="30.324" y="0">OS </tspan><tspan x="0" y="14.4">LEGISL</tspan><tspan x="26.124" y="14.4" style="letter-spacing:-0.039957682291666664em">A</tspan><tspan x="31.116" y="14.4">TIVOS</tspan></text></g><text transform="translate(39.667 24.751)" style="font-size:12px;fill:#fff;font-family:Politica-BoldItalic, Politica;font-weight:700;font-style:italic">PROJE<tspan x="26.003" y="0" style="letter-spacing:-0.010009765625em">T</tspan><tspan x="30.324" y="0">OS </tspan><tspan x="0" y="14.4">LEGISL</tspan><tspan x="26.124" y="14.4" style="letter-spacing:-0.039957682291666664em">A</tspan><tspan x="31.116" y="14.4">TIVOS</tspan></text></g></g></svg>