<svg xmlns="http://www.w3.org/2000/svg" xmlns:xlink="http://www.w3.org/1999/xlink" viewBox="0 0 101.4 55.2"><defs><clipPath id="a"><path d="M99.392,55.2H2.008A2,2,0,0,1,0,53.208V2.2a2,2,0,0,1,2-2H99.392A2,2,0,0,1,101.4,2.192V53.2a2,2,0,0,1-2,2Z" style="fill:none"/></clipPath></defs><title>regimento</title><g style="clip-path:url(#a)"><path d="M99.392,55.2H2.008A2,2,0,0,1,0,53.208V2.2a2,2,0,0,1,2-2H99.392A2,2,0,0,1,101.4,2.192V53.2a2,2,0,0,1-2,2Z" style="fill:#3ba34c"/><g style="isolation:isolate"><g style="opacity:.36;isolation:isolate"><text transform="translate(74.42 64.831)" style="isolation:isolate;font-size:11px;fill:#494848;font-family:Politica-BoldItalic,Politica;font-weight:700;font-style:italic">REGIMEN<tspan x="34.451" y="0" style="letter-spacing:-.009987571022727272em">T</tspan><tspan x="38.411" y="0">O </tspan><tspan x="6.468" y="13.2">INTERNO</tspan></text><text transform="translate(73.92 64.331)" style="isolation:isolate;font-size:11px;fill:#494848;font-family:Politica-BoldItalic,Politica;font-weight:700;font-style:italic">REGIMEN<tspan x="34.451" y="0" style="letter-spacing:-.009987571022727272em">T</tspan><tspan x="38.411" y="0">O </tspan><tspan x="6.468" y="13.2">INTERNO</tspan></text><text transform="translate(73.42 63.831)" style="isolation:isolate;font-size:11px;fill:#494848;font-family:Politica-BoldItalic,Politica;font-weight:700;font-style:italic">REGIMEN<tspan x="34.451" y="0" style="letter-spacing:-.009987571022727272em">T</tspan><tspan x="38.411" y="0">O </tspan><tspan x="6.468" y="13.2">INTERNO</tspan></text><text transform="translate(72.92 63.331)" style="isolation:isolate;font-size:11px;fill:#494848;font-family:Politica-BoldItalic,Politica;font-weight:700;font-style:italic">REGIMEN<tspan x="34.451" y="0" style="letter-spacing:-.009987571022727272em">T</tspan><tspan x="38.411" y="0">O </tspan><tspan x="6.468" y="13.2">INTERNO</tspan></text><text transform="translate(72.42 62.831)" style="isolation:isolate;font-size:11px;fill:#494848;font-family:Politica-BoldItalic,Politica;font-weight:700;font-style:italic">REGIMEN<tspan x="34.451" y="0" style="letter-spacing:-.009987571022727272em">T</tspan><tspan x="38.411" y="0">O </tspan><tspan x="6.468" y="13.2">INTERNO</tspan></text><text transform="translate(71.92 62.331)" style="isolation:isolate;font-size:11px;fill:#494848;font-family:Politica-BoldItalic,Politica;font-weight:700;font-style:italic">REGIMEN<tspan x="34.451" y="0" style="letter-spacing:-.009987571022727272em">T</tspan><tspan x="38.411" y="0">O </tspan><tspan x="6.468" y="13.2">INTERNO</tspan></text><text transform="translate(71.42 61.831)" style="isolation:isolate;font-size:11px;fill:#494848;font-family:Politica-BoldItalic,Politica;font-weight:700;font-style:italic">REGIMEN<tspan x="34.451" y="0" style="letter-spacing:-.009987571022727272em">T</tspan><tspan x="38.411" y="0">O </tspan><tspan x="6.468" y="13.2">INTERNO</tspan></text><text transform="translate(70.92 61.331)" style="isolation:isolate;font-size:11px;fill:#494848;font-family:Politica-BoldItalic,Politica;font-weight:700;font-style:italic">REGIMEN<tspan x="34.451" y="0" style="letter-spacing:-.009987571022727272em">T</tspan><tspan x="38.411" y="0">O </tspan><tspan x="6.468" y="13.2">INTERNO</tspan></text><text transform="translate(70.42 60.831)" style="isolation:isolate;font-size:11px;fill:#494848;font-family:Politica-BoldItalic,Politica;font-weight:700;font-style:italic">REGIMEN<tspan x="34.451" y="0" style="letter-spacing:-.009987571022727272em">T</tspan><tspan x="38.411" y="0">O </tspan><tspan x="6.468" y="13.2">INTERNO</tspan></text><text transform="translate(69.92 60.331)" style="isolation:isolate;font-size:11px;fill:#494848;font-family:Politica-BoldItalic,Politica;font-weight:700;font-style:italic">REGIMEN<tspan x="34.451" y="0" style="letter-spacing:-.009987571022727272em">T</tspan><tspan x="38.411" y="0">O </tspan><tspan x="6.468" y="13.2">INTERNO</tspan></text><text transform="translate(69.42 59.831)" style="isolation:isolate;font-size:11px;fill:#494848;font-family:Politica-BoldItalic,Politica;font-weight:700;font-style:italic">REGIMEN<tspan x="34.451" y="0" style="letter-spacing:-.009987571022727272em">T</tspan><tspan x="38.411" y="0">O </tspan><tspan x="6.468" y="13.2">INTERNO</tspan></text><text transform="translate(68.92 59.331)" style="isolation:isolate;font-size:11px;fill:#494848;font-family:Politica-BoldItalic,Politica;font-weight:700;font-style:italic">REGIMEN<tspan x="34.451" y="0" style="letter-spacing:-.009987571022727272em">T</tspan><tspan x="38.411" y="0">O </tspan><tspan x="6.468" y="13.2">INTERNO</tspan></text><text transform="translate(68.42 58.831)" style="isolation:isolate;font-size:11px;fill:#494848;font-family:Politica-BoldItalic,Politica;font-weight:700;font-style:italic">REGIMEN<tspan x="34.451" y="0" style="letter-spacing:-.009987571022727272em">T</tspan><tspan x="38.411" y="0">O </tspan><tspan x="6.468" y="13.2">INTERNO</tspan></text><text transform="translate(67.92 58.331)" style="isolation:isolate;font-size:11px;fill:#494848;font-family:Politica-BoldItalic,Politica;font-weight:700;font-style:italic">REGIMEN<tspan x="34.451" y="0" style="letter-spacing:-.009987571022727272em">T</tspan><tspan x="38.411" y="0">O </tspan><tspan x="6.468" y="13.2">INTERNO</tspan></text><text transform="translate(67.42 57.831)" style="isolation:isolate;font-size:11px;fill:#494848;font-family:Politica-BoldItalic,Politica;font-weight:700;font-style:italic">REGIMEN<tspan x="34.451" y="0" style="letter-spacing:-.009987571022727272em">T</tspan><tspan x="38.411" y="0">O </tspan><tspan x="6.468" y="13.2">INTERNO</tspan></text><text transform="translate(66.92 57.331)" style="isolation:isolate;font-size:11px;fill:#494848;font-family:Politica-BoldItalic,Politica;font-weight:700;font-style:italic">REGIMEN<tspan x="34.451" y="0" style="letter-spacing:-.009987571022727272em">T</tspan><tspan x="38.411" y="0">O </tspan><tspan x="6.468" y="13.2">INTERNO</tspan></text><text transform="translate(66.42 56.831)" style="isolation:isolate;font-size:11px;fill:#494848;font-family:Politica-BoldItalic,Politica;font-weight:700;font-style:italic">REGIMEN<tspan x="34.451" y="0" style="letter-spacing:-.009987571022727272em">T</tspan><tspan x="38.411" y="0">O </tspan><tspan x="6.468" y="13.2">INTERNO</tspan></text><text transform="translate(65.92 56.331)" style="isolation:isolate;font-size:11px;fill:#494848;font-family:Politica-BoldItalic,Politica;font-weight:700;font-style:italic">REGIMEN<tspan x="34.451" y="0" style="letter-spacing:-.009987571022727272em">T</tspan><tspan x="38.411" y="0">O </tspan><tspan x="6.468" y="13.2">INTERNO</tspan></text><text transform="translate(65.42 55.831)" style="isolation:isolate;font-size:11px;fill:#494848;font-family:Politica-BoldItalic,Politica;font-weight:700;font-style:italic">REGIMEN<tspan x="34.451" y="0" style="letter-spacing:-.009987571022727272em">T</tspan><tspan x="38.411" y="0">O </tspan><tspan x="6.468" y="13.2">INTERNO</tspan></text><text transform="translate(64.92 55.331)" style="isolation:isolate;font-size:11px;fill:#494848;font-family:Politica-BoldItalic,Politica;font-weight:700;font-style:italic">REGIMEN<tspan x="34.451" y="0" style="letter-spacing:-.009987571022727272em">T</tspan><tspan x="38.411" y="0">O </tspan><tspan x="6.468" y="13.2">INTERNO</tspan></text><text transform="translate(64.42 54.831)" style="isolation:isolate;font-size:11px;fill:#494848;font-family:Politica-BoldItalic,Politica;font-weight:700;font-style:italic">REGIMEN<tspan x="34.451" y="0" style="letter-spacing:-.009987571022727272em">T</tspan><tspan x="38.411" y="0">O </tspan><tspan x="6.468" y="13.2">INTERNO</tspan></text><text transform="translate(63.92 54.331)" style="isolation:isolate;font-size:11px;fill:#494848;font-family:Politica-BoldItalic,Politica;font-weight:700;font-style:italic">REGIMEN<tspan x="34.451" y="0" style="letter-spacing:-.009987571022727272em">T</tspan><tspan x="38.411" y="0">O </tspan><tspan x="6.468" y="13.2">INTERNO</tspan></text><text transform="translate(63.42 53.831)" style="isolation:isolate;font-size:11px;fill:#494848;font-family:Politica-BoldItalic,Politica;font-weight:700;font-style:italic">REGIMEN<tspan x="34.451" y="0" style="letter-spacing:-.009987571022727272em">T</tspan><tspan x="38.411" y="0">O </tspan><tspan x="6.468" y="13.2">INTERNO</tspan></text><text transform="translate(62.92 53.331)" style="isolation:isolate;font-size:11px;fill:#494848;font-family:Politica-BoldItalic,Politica;font-weight:700;font-style:italic">REGIMEN<tspan x="34.451" y="0" style="letter-spacing:-.009987571022727272em">T</tspan><tspan x="38.411" y="0">O </tspan><tspan x="6.468" y="13.2">INTERNO</tspan></text><text transform="translate(62.42 52.831)" style="isolation:isolate;font-size:11px;fill:#494848;font-family:Politica-BoldItalic,Politica;font-weight:700;font-style:italic">REGIMEN<tspan x="34.451" y="0" style="letter-spacing:-.009987571022727272em">T</tspan><tspan x="38.411" y="0">O </tspan><tspan x="6.468" y="13.2">INTERNO</tspan></text><text transform="translate(61.92 52.331)" style="isolation:isolate;font-size:11px;fill:#494848;font-family:Politica-BoldItalic,Politica;font-weight:700;font-style:italic">REGIMEN<tspan x="34.451" y="0" style="letter-spacing:-.009987571022727272em">T</tspan><tspan x="38.411" y="0">O </tspan><tspan x="6.468" y="13.2">INTERNO</tspan></text><text transform="translate(61.42 51.831)" style="isolation:isolate;font-size:11px;fill:#494848;font-family:Politica-BoldItalic,Politica;font-weight:700;font-style:italic">REGIMEN<tspan x="34.451" y="0" style="letter-spacing:-.009987571022727272em">T</tspan><tspan x="38.411" y="0">O </tspan><tspan x="6.468" y="13.2">INTERNO</tspan></text><text transform="translate(60.92 51.331)" style="isolation:isolate;font-size:11px;fill:#494848;font-family:Politica-BoldItalic,Politica;font-weight:700;font-style:italic">REGIMEN<tspan x="34.451" y="0" style="letter-spacing:-.009987571022727272em">T</tspan><tspan x="38.411" y="0">O </tspan><tspan x="6.468" y="13.2">INTERNO</tspan></text><text transform="translate(60.42 50.831)" style="isolation:isolate;font-size:11px;fill:#494848;font-family:Politica-BoldItalic,Politica;font-weight:700;font-style:italic">REGIMEN<tspan x="34.451" y="0" style="letter-spacing:-.009987571022727272em">T</tspan><tspan x="38.411" y="0">O </tspan><tspan x="6.468" y="13.2">INTERNO</tspan></text><text transform="translate(59.92 50.331)" style="isolation:isolate;font-size:11px;fill:#494848;font-family:Politica-BoldItalic,Politica;font-weight:700;font-style:italic">REGIMEN<tspan x="34.451" y="0" style="letter-spacing:-.009987571022727272em">T</tspan><tspan x="38.411" y="0">O </tspan><tspan x="6.468" y="13.2">INTERNO</tspan></text><text transform="translate(59.42 49.831)" style="isolation:isolate;font-size:11px;fill:#494848;font-family:Politica-BoldItalic,Politica;font-weight:700;font-style:italic">REGIMEN<tspan x="34.451" y="0" style="letter-spacing:-.009987571022727272em">T</tspan><tspan x="38.411" y="0">O </tspan><tspan x="6.468" y="13.2">INTERNO</tspan></text><text transform="translate(58.92 49.331)" style="isolation:isolate;font-size:11px;fill:#494848;font-family:Politica-BoldItalic,Politica;font-weight:700;font-style:italic">REGIMEN<tspan x="34.451" y="0" style="letter-spacing:-.009987571022727272em">T</tspan><tspan x="38.411" y="0">O </tspan><tspan x="6.468" y="13.2">INTERNO</tspan></text><text transform="translate(58.42 48.831)" style="isolation:isolate;font-size:11px;fill:#494848;font-family:Politica-BoldItalic,Politica;font-weight:700;font-style:italic">REGIMEN<tspan x="34.451" y="0" style="letter-spacing:-.009987571022727272em">T</tspan><tspan x="38.411" y="0">O </tspan><tspan x="6.468" y="13.2">INTERNO</tspan></text><text transform="translate(57.92 48.331)" style="isolation:isolate;font-size:11px;fill:#494848;font-family:Politica-BoldItalic,Politica;font-weight:700;font-style:italic">REGIMEN<tspan x="34.451" y="0" style="letter-spacing:-.009987571022727272em">T</tspan><tspan x="38.411" y="0">O </tspan><tspan x="6.468" y="13.2">INTERNO</tspan></text><text transform="translate(57.42 47.831)" style="isolation:isolate;font-size:11px;fill:#494848;font-family:Politica-BoldItalic,Politica;font-weight:700;font-style:italic">REGIMEN<tspan x="34.451" y="0" style="letter-spacing:-.009987571022727272em">T</tspan><tspan x="38.411" y="0">O </tspan><tspan x="6.468" y="13.2">INTERNO</tspan></text><text transform="translate(56.92 47.331)" style="isolation:isolate;font-size:11px;fill:#494848;font-family:Politica-BoldItalic,Politica;font-weight:700;font-style:italic">REGIMEN<tspan x="34.451" y="0" style="letter-spacing:-.009987571022727272em">T</tspan><tspan x="38.411" y="0">O </tspan><tspan x="6.468" y="13.2">INTERNO</tspan></text><text transform="translate(56.42 46.831)" style="isolation:isolate;font-size:11px;fill:#494848;font-family:Politica-BoldItalic,Politica;font-weight:700;font-style:italic">REGIMEN<tspan x="34.451" y="0" style="letter-spacing:-.009987571022727272em">T</tspan><tspan x="38.411" y="0">O </tspan><tspan x="6.468" y="13.2">INTERNO</tspan></text><text transform="translate(55.92 46.331)" style="isolation:isolate;font-size:11px;fill:#494848;font-family:Politica-BoldItalic,Politica;font-weight:700;font-style:italic">REGIMEN<tspan x="34.451" y="0" style="letter-spacing:-.009987571022727272em">T</tspan><tspan x="38.411" y="0">O </tspan><tspan x="6.468" y="13.2">INTERNO</tspan></text><text transform="translate(55.42 45.831)" style="isolation:isolate;font-size:11px;fill:#494848;font-family:Politica-BoldItalic,Politica;font-weight:700;font-style:italic">REGIMEN<tspan x="34.451" y="0" style="letter-spacing:-.009987571022727272em">T</tspan><tspan x="38.411" y="0">O </tspan><tspan x="6.468" y="13.2">INTERNO</tspan></text><text transform="translate(54.92 45.331)" style="isolation:isolate;font-size:11px;fill:#494848;font-family:Politica-BoldItalic,Politica;font-weight:700;font-style:italic">REGIMEN<tspan x="34.451" y="0" style="letter-spacing:-.009987571022727272em">T</tspan><tspan x="38.411" y="0">O </tspan><tspan x="6.468" y="13.2">INTERNO</tspan></text><text transform="translate(54.42 44.831)" style="isolation:isolate;font-size:11px;fill:#494848;font-family:Politica-BoldItalic,Politica;font-weight:700;font-style:italic">REGIMEN<tspan x="34.451" y="0" style="letter-spacing:-.009987571022727272em">T</tspan><tspan x="38.411" y="0">O </tspan><tspan x="6.468" y="13.2">INTERNO</tspan></text><text transform="translate(53.92 44.331)" style="isolation:isolate;font-size:11px;fill:#494848;font-family:Politica-BoldItalic,Politica;font-weight:700;font-style:italic">REGIMEN<tspan x="34.451" y="0" style="letter-spacing:-.009987571022727272em">T</tspan><tspan x="38.411" y="0">O </tspan><tspan x="6.468" y="13.2">INTERNO</tspan></text><text transform="translate(53.42 43.831)" style="isolation:isolate;font-size:11px;fill:#494848;font-family:Politica-BoldItalic,Politica;font-weight:700;font-style:italic">REGIMEN<tspan x="34.451" y="0" style="letter-spacing:-.009987571022727272em">T</tspan><tspan x="38.411" y="0">O </tspan><tspan x="6.468" y="13.2">INTERNO</tspan></text><text transform="translate(52.92 43.331)" style="isolation:isolate;font-size:11px;fill:#494848;font-family:Politica-BoldItalic,Politica;font-weight:700;font-style:italic">REGIMEN<tspan x="34.451" y="0" style="letter-spacing:-.009987571022727272em">T</tspan><tspan x="38.411" y="0">O </tspan><tspan x="6.468" y="13.2">INTERNO</tspan></text><text transform="translate(52.42 42.831)" style="isolation:isolate;font-size:11px;fill:#494848;font-family:Politica-BoldItalic,Politica;font-weight:700;font-style:italic">REGIMEN<tspan x="34.451" y="0" style="letter-spacing:-.009987571022727272em">T</tspan><tspan x="38.411" y="0">O </tspan><tspan x="6.468" y="13.2">INTERNO</tspan></text><text transform="translate(51.92 42.331)" style="isolation:isolate;font-size:11px;fill:#494848;font-family:Politica-BoldItalic,Politica;font-weight:700;font-style:italic">REGIMEN<tspan x="34.451" y="0" style="letter-spacing:-.009987571022727272em">T</tspan><tspan x="38.411" y="0">O </tspan><tspan x="6.468" y="13.2">INTERNO</tspan></text><text transform="translate(51.42 41.831)" style="isolation:isolate;font-size:11px;fill:#494848;font-family:Politica-BoldItalic,Politica;font-weight:700;font-style:italic">REGIMEN<tspan x="34.451" y="0" style="letter-spacing:-.009987571022727272em">T</tspan><tspan x="38.411" y="0">O </tspan><tspan x="6.468" y="13.2">INTERNO</tspan></text><text transform="translate(50.92 41.331)" style="isolation:isolate;font-size:11px;fill:#494848;font-family:Politica-BoldItalic,Politica;font-weight:700;font-style:italic">REGIMEN<tspan x="34.451" y="0" style="letter-spacing:-.009987571022727272em">T</tspan><tspan x="38.411" y="0">O </tspan><tspan x="6.468" y="13.2">INTERNO</tspan></text><text transform="translate(50.42 40.831)" style="isolation:isolate;font-size:11px;fill:#494848;font-family:Politica-BoldItalic,Politica;font-weight:700;font-style:italic">REGIMEN<tspan x="34.451" y="0" style="letter-spacing:-.009987571022727272em">T</tspan><tspan x="38.411" y="0">O </tspan><tspan x="6.468" y="13.2">INTERNO</tspan></text><text transform="translate(49.92 40.331)" style="isolation:isolate;font-size:11px;fill:#494848;font-family:Politica-BoldItalic,Politica;font-weight:700;font-style:italic">REGIMEN<tspan x="34.451" y="0" style="letter-spacing:-.009987571022727272em">T</tspan><tspan x="38.411" y="0">O </tspan><tspan x="6.468" y="13.2">INTERNO</tspan></text><text transform="translate(49.42 39.831)" style="isolation:isolate;font-size:11px;fill:#494848;font-family:Politica-BoldItalic,Politica;font-weight:700;font-style:italic">REGIMEN<tspan x="34.451" y="0" style="letter-spacing:-.009987571022727272em">T</tspan><tspan x="38.411" y="0">O </tspan><tspan x="6.468" y="13.2">INTERNO</tspan></text><text transform="translate(48.92 39.331)" style="isolation:isolate;font-size:11px;fill:#494848;font-family:Politica-BoldItalic,Politica;font-weight:700;font-style:italic">REGIMEN<tspan x="34.451" y="0" style="letter-spacing:-.009987571022727272em">T</tspan><tspan x="38.411" y="0">O </tspan><tspan x="6.468" y="13.2">INTERNO</tspan></text><text transform="translate(48.42 38.831)" style="isolation:isolate;font-size:11px;fill:#494848;font-family:Politica-BoldItalic,Politica;font-weight:700;font-style:italic">REGIMEN<tspan x="34.451" y="0" style="letter-spacing:-.009987571022727272em">T</tspan><tspan x="38.411" y="0">O </tspan><tspan x="6.468" y="13.2">INTERNO</tspan></text><text transform="translate(47.92 38.331)" style="isolation:isolate;font-size:11px;fill:#494848;font-family:Politica-BoldItalic,Politica;font-weight:700;font-style:italic">REGIMEN<tspan x="34.451" y="0" style="letter-spacing:-.009987571022727272em">T</tspan><tspan x="38.411" y="0">O </tspan><tspan x="6.468" y="13.2">INTERNO</tspan></text><text transform="translate(47.42 37.831)" style="isolation:isolate;font-size:11px;fill:#494848;font-family:Politica-BoldItalic,Politica;font-weight:700;font-style:italic">REGIMEN<tspan x="34.451" y="0" style="letter-spacing:-.009987571022727272em">T</tspan><tspan x="38.411" y="0">O </tspan><tspan x="6.468" y="13.2">INTERNO</tspan></text><text transform="translate(46.92 37.331)" style="isolation:isolate;font-size:11px;fill:#494848;font-family:Politica-BoldItalic,Politica;font-weight:700;font-style:italic">REGIMEN<tspan x="34.451" y="0" style="letter-spacing:-.009987571022727272em">T</tspan><tspan x="38.411" y="0">O </tspan><tspan x="6.468" y="13.2">INTERNO</tspan></text><text transform="translate(46.42 36.831)" style="isolation:isolate;font-size:11px;fill:#494848;font-family:Politica-BoldItalic,Politica;font-weight:700;font-style:italic">REGIMEN<tspan x="34.451" y="0" style="letter-spacing:-.009987571022727272em">T</tspan><tspan x="38.411" y="0">O </tspan><tspan x="6.468" y="13.2">INTERNO</tspan></text><text transform="translate(45.92 36.331)" style="isolation:isolate;font-size:11px;fill:#494848;font-family:Politica-BoldItalic,Politica;font-weight:700;font-style:italic">REGIMEN<tspan x="34.451" y="0" style="letter-spacing:-.009987571022727272em">T</tspan><tspan x="38.411" y="0">O </tspan><tspan x="6.468" y="13.2">INTERNO</tspan></text><text transform="translate(45.42 35.831)" style="isolation:isolate;font-size:11px;fill:#494848;font-family:Politica-BoldItalic,Politica;font-weight:700;font-style:italic">REGIMEN<tspan x="34.451" y="0" style="letter-spacing:-.009987571022727272em">T</tspan><tspan x="38.411" y="0">O </tspan><tspan x="6.468" y="13.2">INTERNO</tspan></text><text transform="translate(44.92 35.331)" style="isolation:isolate;font-size:11px;fill:#494848;font-family:Politica-BoldItalic,Politica;font-weight:700;font-style:italic">REGIMEN<tspan x="34.451" y="0" style="letter-spacing:-.009987571022727272em">T</tspan><tspan x="38.411" y="0">O </tspan><tspan x="6.468" y="13.2">INTERNO</tspan></text><text transform="translate(44.42 34.831)" style="isolation:isolate;font-size:11px;fill:#494848;font-family:Politica-BoldItalic,Politica;font-weight:700;font-style:italic">REGIMEN<tspan x="34.451" y="0" style="letter-spacing:-.009987571022727272em">T</tspan><tspan x="38.411" y="0">O </tspan><tspan x="6.468" y="13.2">INTERNO</tspan></text><text transform="translate(43.92 34.331)" style="isolation:isolate;font-size:11px;fill:#494848;font-family:Politica-BoldItalic,Politica;font-weight:700;font-style:italic">REGIMEN<tspan x="34.451" y="0" style="letter-spacing:-.009987571022727272em">T</tspan><tspan x="38.411" y="0">O </tspan><tspan x="6.468" y="13.2">INTERNO</tspan></text><text transform="translate(43.42 33.831)" style="isolation:isolate;font-size:11px;fill:#494848;font-family:Politica-BoldItalic,Politica;font-weight:700;font-style:italic">REGIMEN<tspan x="34.451" y="0" style="letter-spacing:-.009987571022727272em">T</tspan><tspan x="38.411" y="0">O </tspan><tspan x="6.468" y="13.2">INTERNO</tspan></text><text transform="translate(42.92 33.331)" style="isolation:isolate;font-size:11px;fill:#494848;font-family:Politica-BoldItalic,Politica;font-weight:700;font-style:italic">REGIMEN<tspan x="34.451" y="0" style="letter-spacing:-.009987571022727272em">T</tspan><tspan x="38.411" y="0">O </tspan><tspan x="6.468" y="13.2">INTERNO</tspan></text><text transform="translate(42.42 32.831)" style="isolation:isolate;font-size:11px;fill:#494848;font-family:Politica-BoldItalic,Politica;font-weight:700;font-style:italic">REGIMEN<tspan x="34.451" y="0" style="letter-spacing:-.009987571022727272em">T</tspan><tspan x="38.411" y="0">O </tspan><tspan x="6.468" y="13.2">INTERNO</tspan></text><text transform="translate(41.92 32.331)" style="isolation:isolate;font-size:11px;fill:#494848;font-family:Politica-BoldItalic,Politica;font-weight:700;font-style:italic">REGIMEN<tspan x="34.451" y="0" style="letter-spacing:-.009987571022727272em">T</tspan><tspan x="38.411" y="0">O </tspan><tspan x="6.468" y="13.2">INTERNO</tspan></text><text transform="translate(41.42 31.831)" style="isolation:isolate;font-size:11px;fill:#494848;font-family:Politica-BoldItalic,Politica;font-weight:700;font-style:italic">REGIMEN<tspan x="34.451" y="0" style="letter-spacing:-.009987571022727272em">T</tspan><tspan x="38.411" y="0">O </tspan><tspan x="6.468" y="13.2">INTERNO</tspan></text><text transform="translate(40.92 31.331)" style="isolation:isolate;font-size:11px;fill:#494848;font-family:Politica-BoldItalic,Politica;font-weight:700;font-style:italic">REGIMEN<tspan x="34.451" y="0" style="letter-spacing:-.009987571022727272em">T</tspan><tspan x="38.411" y="0">O </tspan><tspan x="6.468" y="13.2">INTERNO</tspan></text><text transform="translate(40.42 30.831)" style="isolation:isolate;font-size:11px;fill:#494848;font-family:Politica-BoldItalic,Politica;font-weight:700;font-style:italic">REGIMEN<tspan x="34.451" y="0" style="letter-spacing:-.009987571022727272em">T</tspan><tspan x="38.411" y="0">O </tspan><tspan x="6.468" y="13.2">INTERNO</tspan></text><text transform="translate(39.92 30.331)" style="isolation:isolate;font-size:11px;fill:#494848;font-family:Politica-BoldItalic,Politica;font-weight:700;font-style:italic">REGIMEN<tspan x="34.451" y="0" style="letter-spacing:-.009987571022727272em">T</tspan><tspan x="38.411" y="0">O </tspan><tspan x="6.468" y="13.2">INTERNO</tspan></text><text transform="translate(39.42 29.831)" style="isolation:isolate;font-size:11px;fill:#494848;font-family:Politica-BoldItalic,Politica;font-weight:700;font-style:italic">REGIMEN<tspan x="34.451" y="0" style="letter-spacing:-.009987571022727272em">T</tspan><tspan x="38.411" y="0">O </tspan><tspan x="6.468" y="13.2">INTERNO</tspan></text><text transform="translate(38.92 29.331)" style="isolation:isolate;font-size:11px;fill:#494848;font-family:Politica-BoldItalic,Politica;font-weight:700;font-style:italic">REGIMEN<tspan x="34.451" y="0" style="letter-spacing:-.009987571022727272em">T</tspan><tspan x="38.411" y="0">O </tspan><tspan x="6.468" y="13.2">INTERNO</tspan></text><text transform="translate(38.42 28.831)" style="isolation:isolate;font-size:11px;fill:#494848;font-family:Politica-BoldItalic,Politica;font-weight:700;font-style:italic">REGIMEN<tspan x="34.451" y="0" style="letter-spacing:-.009987571022727272em">T</tspan><tspan x="38.411" y="0">O </tspan><tspan x="6.468" y="13.2">INTERNO</tspan></text><text transform="translate(37.92 28.331)" style="isolation:isolate;font-size:11px;fill:#494848;font-family:Politica-BoldItalic,Politica;font-weight:700;font-style:italic">REGIMEN<tspan x="34.451" y="0" style="letter-spacing:-.009987571022727272em">T</tspan><tspan x="38.411" y="0">O </tspan><tspan x="6.468" y="13.2">INTERNO</tspan></text></g><text transform="translate(37.92 28.331)" style="isolation:isolate;font-size:11px;fill:#fcfafa;font-family:Politica-BoldItalic,Politica;font-weight:700;font-style:italic">REGIMEN<tspan x="34.451" y="0" style="letter-spacing:-.009987571022727272em">T</tspan><tspan x="38.411" y="0">O </tspan><tspan x="6.468" y="13.2">INTERNO</tspan></text></g></g><polygon points="30.622 20.122 22.96 12.46 5.994 12.46 5.994 44.203 30.622 44.203 30.622 20.122" style="fill:#edeada"/><polygon points="22.96 12.46 22.96 20.122 30.622 20.122 22.96 12.46" style="fill:#cec9ae"/><path d="M25.149,24.5H16.392a.547.547,0,1,1,0-1.095h8.757a.547.547,0,0,1,0,1.095Z" style="fill:#cec9ae"/><path d="M12.014,25.047a.547.547,0,0,1-.387-.16l-1.095-1.095a.547.547,0,0,1,.774-.774l.748.748,2.354-1.883a.547.547,0,0,1,.684.855l-2.736,2.189A.541.541,0,0,1,12.014,25.047Z" style="fill:#14a085"/><path d="M25.149,30.52H16.392a.547.547,0,1,1,0-1.095h8.757a.547.547,0,0,1,0,1.095Z" style="fill:#cec9ae"/><path d="M12.014,31.068a.547.547,0,0,1-.387-.16l-1.095-1.095a.547.547,0,0,1,.774-.774l.748.748L14.408,27.9a.547.547,0,0,1,.684.855l-2.736,2.189A.541.541,0,0,1,12.014,31.068Z" style="fill:#14a085"/><path d="M25.149,36.541H16.392a.547.547,0,1,1,0-1.095h8.757a.547.547,0,0,1,0,1.095Z" style="fill:#cec9ae"/><path d="M12.014,37.088a.547.547,0,0,1-.387-.16l-1.095-1.095a.547.547,0,0,1,.774-.774l.748.748,2.354-1.883a.547.547,0,0,1,.684.855l-2.736,2.189A.541.541,0,0,1,12.014,37.088Z" style="fill:#14a085"/></svg>