<svg xmlns="http://www.w3.org/2000/svg" xmlns:xlink="http://www.w3.org/1999/xlink" viewBox="0 0 101.4 55.2"><defs><clipPath id="a"><path d="M99.392,55.2H2.008A2,2,0,0,1,0,53.2V2.2A2,2,0,0,1,2.008.2H99.392a2,2,0,0,1,2.008,2v51A2,2,0,0,1,99.392,55.2Z" style="fill:none"/></clipPath></defs><title>transparencia</title><g style="isolation:isolate"><g style="clip-path:url(#a)"><path d="M99.392,55.2H2.008A2,2,0,0,1,0,53.2V2.2A2,2,0,0,1,2.008.2H99.392a2,2,0,0,1,2.008,2v51A2,2,0,0,1,99.392,55.2Z" style="fill:#e8823d"/><path d="M26.89,27.9a.528.528,0,0,1-.4-.178L23.22,24.007l-2.234,2.665a.528.528,0,0,1-.74.067A.52.52,0,0,1,20.179,26l2.628-3.135a.526.526,0,0,1,.4-.188.492.492,0,0,1,.4.178l3.146,3.574,2.814-6.061a.527.527,0,0,1,.7-.256.521.521,0,0,1,.257.693L27.367,27.6a.525.525,0,0,1-.4.3A.5.5,0,0,1,26.89,27.9Z" style="fill:#8f96ac"/><polygon points="18.07 29.587 19.415 30.924 15.998 34.32 14.654 32.983 18.07 29.587" style="fill:#d7deed"/><path d="M16.868,30.783a11.068,11.068,0,0,0,1.345,1.337l1.2-1.2-1.345-1.337Z" style="fill:#c7cfe2"/><path d="M25.313,13.8A9.926,9.926,0,1,0,35.3,23.725,9.957,9.957,0,0,0,25.313,13.8Zm0,18.285a8.359,8.359,0,1,1,8.41-8.359A8.385,8.385,0,0,1,25.313,32.084Z" style="fill:#d7deed"/><path d="M6.237,43.794,5.122,42.686a1.04,1.04,0,0,1,0-1.478l8.872-8.818a1.056,1.056,0,0,1,1.487,0L16.6,33.5a1.04,1.04,0,0,1,0,1.478L7.724,43.794A1.056,1.056,0,0,1,6.237,43.794Z" style="fill:#707487"/><path d="M6.173,42.253l8.872-8.818a1.056,1.056,0,0,1,1.487,0l.065.065h0L15.48,32.39a1.056,1.056,0,0,0-1.487,0L5.122,41.208a1.04,1.04,0,0,0,0,1.478l1.05,1.044A1.04,1.04,0,0,1,6.173,42.253Z" style="fill:#5b5d6e"/><path d="M15.948,35.62l.648-.644a1.04,1.04,0,0,0,0-1.478L15.48,32.39a1.056,1.056,0,0,0-1.487,0l-.648.644Z" style="fill:#c7cfe2"/><g style="opacity:0.9700000286102295"><path d="M14.4,34.079l.648-.644a1.056,1.056,0,0,1,1.487,0l.065.065h0L15.48,32.39a1.056,1.056,0,0,0-1.487,0l-.648.644Z" style="fill:#afb9d2"/></g><ellipse cx="20.583" cy="26.337" rx="1.051" ry="1.045" style="fill:#ff6464"/><ellipse cx="23.211" cy="23.203" rx="1.051" ry="1.045" style="fill:#ffd782"/><ellipse cx="26.89" cy="27.382" rx="1.051" ry="1.045" style="fill:#c3e678"/><ellipse cx="30.044" cy="20.591" rx="1.051" ry="1.045" style="fill:#00d2ff"/><g style="opacity:0.35000000000000003;mix-blend-mode:multiply"><text transform="translate(67.911 63.76)" style="font-size:10px;fill:#161616;font-family:Politica-BoldItalic, Politica;font-weight:700;font-style:italic">T<tspan x="3.7" y="0" style="letter-spacing:0.02001953125em">R</tspan><tspan x="8.48" y="0">ANS</tspan><tspan x="22.729" y="0" style="letter-spacing:-0.02998046875em">P</tspan><tspan x="26.869" y="0" style="letter-spacing:-0.00009765625em">ARENCIA</tspan></text><text transform="translate(67.411 63.26)" style="font-size:10px;fill:#161616;font-family:Politica-BoldItalic, Politica;font-weight:700;font-style:italic">T<tspan x="3.7" y="0" style="letter-spacing:0.02001953125em">R</tspan><tspan x="8.48" y="0">ANS</tspan><tspan x="22.729" y="0" style="letter-spacing:-0.02998046875em">P</tspan><tspan x="26.869" y="0" style="letter-spacing:-0.00009765625em">ARENCIA</tspan></text><text transform="translate(66.911 62.76)" style="font-size:10px;fill:#161616;font-family:Politica-BoldItalic, Politica;font-weight:700;font-style:italic">T<tspan x="3.7" y="0" style="letter-spacing:0.02001953125em">R</tspan><tspan x="8.48" y="0">ANS</tspan><tspan x="22.729" y="0" style="letter-spacing:-0.02998046875em">P</tspan><tspan x="26.869" y="0" style="letter-spacing:-0.00009765625em">ARENCIA</tspan></text><text transform="translate(66.411 62.26)" style="font-size:10px;fill:#161616;font-family:Politica-BoldItalic, Politica;font-weight:700;font-style:italic">T<tspan x="3.7" y="0" style="letter-spacing:0.02001953125em">R</tspan><tspan x="8.48" y="0">ANS</tspan><tspan x="22.729" y="0" style="letter-spacing:-0.02998046875em">P</tspan><tspan x="26.869" y="0" style="letter-spacing:-0.00009765625em">ARENCIA</tspan></text><text transform="translate(65.911 61.76)" style="font-size:10px;fill:#161616;font-family:Politica-BoldItalic, Politica;font-weight:700;font-style:italic">T<tspan x="3.7" y="0" style="letter-spacing:0.02001953125em">R</tspan><tspan x="8.48" y="0">ANS</tspan><tspan x="22.729" y="0" style="letter-spacing:-0.02998046875em">P</tspan><tspan x="26.869" y="0" style="letter-spacing:-0.00009765625em">ARENCIA</tspan></text><text transform="translate(65.411 61.26)" style="font-size:10px;fill:#161616;font-family:Politica-BoldItalic, Politica;font-weight:700;font-style:italic">T<tspan x="3.7" y="0" style="letter-spacing:0.02001953125em">R</tspan><tspan x="8.48" y="0">ANS</tspan><tspan x="22.729" y="0" style="letter-spacing:-0.02998046875em">P</tspan><tspan x="26.869" y="0" style="letter-spacing:-0.00009765625em">ARENCIA</tspan></text><text transform="translate(64.911 60.76)" style="font-size:10px;fill:#161616;font-family:Politica-BoldItalic, Politica;font-weight:700;font-style:italic">T<tspan x="3.7" y="0" style="letter-spacing:0.02001953125em">R</tspan><tspan x="8.48" y="0">ANS</tspan><tspan x="22.729" y="0" style="letter-spacing:-0.02998046875em">P</tspan><tspan x="26.869" y="0" style="letter-spacing:-0.00009765625em">ARENCIA</tspan></text><text transform="translate(64.411 60.26)" style="font-size:10px;fill:#161616;font-family:Politica-BoldItalic, Politica;font-weight:700;font-style:italic">T<tspan x="3.7" y="0" style="letter-spacing:0.02001953125em">R</tspan><tspan x="8.48" y="0">ANS</tspan><tspan x="22.729" y="0" style="letter-spacing:-0.02998046875em">P</tspan><tspan x="26.869" y="0" style="letter-spacing:-0.00009765625em">ARENCIA</tspan></text><text transform="translate(63.911 59.76)" style="font-size:10px;fill:#161616;font-family:Politica-BoldItalic, Politica;font-weight:700;font-style:italic">T<tspan x="3.7" y="0" style="letter-spacing:0.02001953125em">R</tspan><tspan x="8.48" y="0">ANS</tspan><tspan x="22.729" y="0" style="letter-spacing:-0.02998046875em">P</tspan><tspan x="26.869" y="0" style="letter-spacing:-0.00009765625em">ARENCIA</tspan></text><text transform="translate(63.411 59.26)" style="font-size:10px;fill:#161616;font-family:Politica-BoldItalic, Politica;font-weight:700;font-style:italic">T<tspan x="3.7" y="0" style="letter-spacing:0.02001953125em">R</tspan><tspan x="8.48" y="0">ANS</tspan><tspan x="22.729" y="0" style="letter-spacing:-0.02998046875em">P</tspan><tspan x="26.869" y="0" style="letter-spacing:-0.00009765625em">ARENCIA</tspan></text><text transform="translate(62.911 58.76)" style="font-size:10px;fill:#161616;font-family:Politica-BoldItalic, Politica;font-weight:700;font-style:italic">T<tspan x="3.7" y="0" style="letter-spacing:0.02001953125em">R</tspan><tspan x="8.48" y="0">ANS</tspan><tspan x="22.729" y="0" style="letter-spacing:-0.02998046875em">P</tspan><tspan x="26.869" y="0" style="letter-spacing:-0.00009765625em">ARENCIA</tspan></text><text transform="translate(62.411 58.26)" style="font-size:10px;fill:#161616;font-family:Politica-BoldItalic, Politica;font-weight:700;font-style:italic">T<tspan x="3.7" y="0" style="letter-spacing:0.02001953125em">R</tspan><tspan x="8.48" y="0">ANS</tspan><tspan x="22.729" y="0" style="letter-spacing:-0.02998046875em">P</tspan><tspan x="26.869" y="0" style="letter-spacing:-0.00009765625em">ARENCIA</tspan></text><text transform="translate(61.911 57.76)" style="font-size:10px;fill:#161616;font-family:Politica-BoldItalic, Politica;font-weight:700;font-style:italic">T<tspan x="3.7" y="0" style="letter-spacing:0.02001953125em">R</tspan><tspan x="8.48" y="0">ANS</tspan><tspan x="22.729" y="0" style="letter-spacing:-0.02998046875em">P</tspan><tspan x="26.869" y="0" style="letter-spacing:-0.00009765625em">ARENCIA</tspan></text><text transform="translate(61.411 57.26)" style="font-size:10px;fill:#161616;font-family:Politica-BoldItalic, Politica;font-weight:700;font-style:italic">T<tspan x="3.7" y="0" style="letter-spacing:0.02001953125em">R</tspan><tspan x="8.48" y="0">ANS</tspan><tspan x="22.729" y="0" style="letter-spacing:-0.02998046875em">P</tspan><tspan x="26.869" y="0" style="letter-spacing:-0.00009765625em">ARENCIA</tspan></text><text transform="translate(60.911 56.76)" style="font-size:10px;fill:#161616;font-family:Politica-BoldItalic, Politica;font-weight:700;font-style:italic">T<tspan x="3.7" y="0" style="letter-spacing:0.02001953125em">R</tspan><tspan x="8.48" y="0">ANS</tspan><tspan x="22.729" y="0" style="letter-spacing:-0.02998046875em">P</tspan><tspan x="26.869" y="0" style="letter-spacing:-0.00009765625em">ARENCIA</tspan></text><text transform="translate(60.411 56.26)" style="font-size:10px;fill:#161616;font-family:Politica-BoldItalic, Politica;font-weight:700;font-style:italic">T<tspan x="3.7" y="0" style="letter-spacing:0.02001953125em">R</tspan><tspan x="8.48" y="0">ANS</tspan><tspan x="22.729" y="0" style="letter-spacing:-0.02998046875em">P</tspan><tspan x="26.869" y="0" style="letter-spacing:-0.00009765625em">ARENCIA</tspan></text><text transform="translate(59.911 55.76)" style="font-size:10px;fill:#161616;font-family:Politica-BoldItalic, Politica;font-weight:700;font-style:italic">T<tspan x="3.7" y="0" style="letter-spacing:0.02001953125em">R</tspan><tspan x="8.48" y="0">ANS</tspan><tspan x="22.729" y="0" style="letter-spacing:-0.02998046875em">P</tspan><tspan x="26.869" y="0" style="letter-spacing:-0.00009765625em">ARENCIA</tspan></text><text transform="translate(59.411 55.26)" style="font-size:10px;fill:#161616;font-family:Politica-BoldItalic, Politica;font-weight:700;font-style:italic">T<tspan x="3.7" y="0" style="letter-spacing:0.02001953125em">R</tspan><tspan x="8.48" y="0">ANS</tspan><tspan x="22.729" y="0" style="letter-spacing:-0.02998046875em">P</tspan><tspan x="26.869" y="0" style="letter-spacing:-0.00009765625em">ARENCIA</tspan></text><text transform="translate(58.911 54.76)" style="font-size:10px;fill:#161616;font-family:Politica-BoldItalic, Politica;font-weight:700;font-style:italic">T<tspan x="3.7" y="0" style="letter-spacing:0.02001953125em">R</tspan><tspan x="8.48" y="0">ANS</tspan><tspan x="22.729" y="0" style="letter-spacing:-0.02998046875em">P</tspan><tspan x="26.869" y="0" style="letter-spacing:-0.00009765625em">ARENCIA</tspan></text><text transform="translate(58.411 54.26)" style="font-size:10px;fill:#161616;font-family:Politica-BoldItalic, Politica;font-weight:700;font-style:italic">T<tspan x="3.7" y="0" style="letter-spacing:0.02001953125em">R</tspan><tspan x="8.48" y="0">ANS</tspan><tspan x="22.729" y="0" style="letter-spacing:-0.02998046875em">P</tspan><tspan x="26.869" y="0" style="letter-spacing:-0.00009765625em">ARENCIA</tspan></text><text transform="translate(57.911 53.76)" style="font-size:10px;fill:#161616;font-family:Politica-BoldItalic, Politica;font-weight:700;font-style:italic">T<tspan x="3.7" y="0" style="letter-spacing:0.02001953125em">R</tspan><tspan x="8.48" y="0">ANS</tspan><tspan x="22.729" y="0" style="letter-spacing:-0.02998046875em">P</tspan><tspan x="26.869" y="0" style="letter-spacing:-0.00009765625em">ARENCIA</tspan></text><text transform="translate(57.411 53.26)" style="font-size:10px;fill:#161616;font-family:Politica-BoldItalic, Politica;font-weight:700;font-style:italic">T<tspan x="3.7" y="0" style="letter-spacing:0.02001953125em">R</tspan><tspan x="8.48" y="0">ANS</tspan><tspan x="22.729" y="0" style="letter-spacing:-0.02998046875em">P</tspan><tspan x="26.869" y="0" style="letter-spacing:-0.00009765625em">ARENCIA</tspan></text><text transform="translate(56.911 52.76)" style="font-size:10px;fill:#161616;font-family:Politica-BoldItalic, Politica;font-weight:700;font-style:italic">T<tspan x="3.7" y="0" style="letter-spacing:0.02001953125em">R</tspan><tspan x="8.48" y="0">ANS</tspan><tspan x="22.729" y="0" style="letter-spacing:-0.02998046875em">P</tspan><tspan x="26.869" y="0" style="letter-spacing:-0.00009765625em">ARENCIA</tspan></text><text transform="translate(56.411 52.26)" style="font-size:10px;fill:#161616;font-family:Politica-BoldItalic, Politica;font-weight:700;font-style:italic">T<tspan x="3.7" y="0" style="letter-spacing:0.02001953125em">R</tspan><tspan x="8.48" y="0">ANS</tspan><tspan x="22.729" y="0" style="letter-spacing:-0.02998046875em">P</tspan><tspan x="26.869" y="0" style="letter-spacing:-0.00009765625em">ARENCIA</tspan></text><text transform="translate(55.911 51.76)" style="font-size:10px;fill:#161616;font-family:Politica-BoldItalic, Politica;font-weight:700;font-style:italic">T<tspan x="3.7" y="0" style="letter-spacing:0.02001953125em">R</tspan><tspan x="8.48" y="0">ANS</tspan><tspan x="22.729" y="0" style="letter-spacing:-0.02998046875em">P</tspan><tspan x="26.869" y="0" style="letter-spacing:-0.00009765625em">ARENCIA</tspan></text><text transform="translate(55.411 51.26)" style="font-size:10px;fill:#161616;font-family:Politica-BoldItalic, Politica;font-weight:700;font-style:italic">T<tspan x="3.7" y="0" style="letter-spacing:0.02001953125em">R</tspan><tspan x="8.48" y="0">ANS</tspan><tspan x="22.729" y="0" style="letter-spacing:-0.02998046875em">P</tspan><tspan x="26.869" y="0" style="letter-spacing:-0.00009765625em">ARENCIA</tspan></text><text transform="translate(54.911 50.76)" style="font-size:10px;fill:#161616;font-family:Politica-BoldItalic, Politica;font-weight:700;font-style:italic">T<tspan x="3.7" y="0" style="letter-spacing:0.02001953125em">R</tspan><tspan x="8.48" y="0">ANS</tspan><tspan x="22.729" y="0" style="letter-spacing:-0.02998046875em">P</tspan><tspan x="26.869" y="0" style="letter-spacing:-0.00009765625em">ARENCIA</tspan></text><text transform="translate(54.411 50.26)" style="font-size:10px;fill:#161616;font-family:Politica-BoldItalic, Politica;font-weight:700;font-style:italic">T<tspan x="3.7" y="0" style="letter-spacing:0.02001953125em">R</tspan><tspan x="8.48" y="0">ANS</tspan><tspan x="22.729" y="0" style="letter-spacing:-0.02998046875em">P</tspan><tspan x="26.869" y="0" style="letter-spacing:-0.00009765625em">ARENCIA</tspan></text><text transform="translate(53.911 49.76)" style="font-size:10px;fill:#161616;font-family:Politica-BoldItalic, Politica;font-weight:700;font-style:italic">T<tspan x="3.7" y="0" style="letter-spacing:0.02001953125em">R</tspan><tspan x="8.48" y="0">ANS</tspan><tspan x="22.729" y="0" style="letter-spacing:-0.02998046875em">P</tspan><tspan x="26.869" y="0" style="letter-spacing:-0.00009765625em">ARENCIA</tspan></text><text transform="translate(53.411 49.26)" style="font-size:10px;fill:#161616;font-family:Politica-BoldItalic, Politica;font-weight:700;font-style:italic">T<tspan x="3.7" y="0" style="letter-spacing:0.02001953125em">R</tspan><tspan x="8.48" y="0">ANS</tspan><tspan x="22.729" y="0" style="letter-spacing:-0.02998046875em">P</tspan><tspan x="26.869" y="0" style="letter-spacing:-0.00009765625em">ARENCIA</tspan></text><text transform="translate(52.911 48.76)" style="font-size:10px;fill:#161616;font-family:Politica-BoldItalic, Politica;font-weight:700;font-style:italic">T<tspan x="3.7" y="0" style="letter-spacing:0.02001953125em">R</tspan><tspan x="8.48" y="0">ANS</tspan><tspan x="22.729" y="0" style="letter-spacing:-0.02998046875em">P</tspan><tspan x="26.869" y="0" style="letter-spacing:-0.00009765625em">ARENCIA</tspan></text><text transform="translate(52.411 48.26)" style="font-size:10px;fill:#161616;font-family:Politica-BoldItalic, Politica;font-weight:700;font-style:italic">T<tspan x="3.7" y="0" style="letter-spacing:0.02001953125em">R</tspan><tspan x="8.48" y="0">ANS</tspan><tspan x="22.729" y="0" style="letter-spacing:-0.02998046875em">P</tspan><tspan x="26.869" y="0" style="letter-spacing:-0.00009765625em">ARENCIA</tspan></text><text transform="translate(51.911 47.76)" style="font-size:10px;fill:#161616;font-family:Politica-BoldItalic, Politica;font-weight:700;font-style:italic">T<tspan x="3.7" y="0" style="letter-spacing:0.02001953125em">R</tspan><tspan x="8.48" y="0">ANS</tspan><tspan x="22.729" y="0" style="letter-spacing:-0.02998046875em">P</tspan><tspan x="26.869" y="0" style="letter-spacing:-0.00009765625em">ARENCIA</tspan></text><text transform="translate(51.411 47.26)" style="font-size:10px;fill:#161616;font-family:Politica-BoldItalic, Politica;font-weight:700;font-style:italic">T<tspan x="3.7" y="0" style="letter-spacing:0.02001953125em">R</tspan><tspan x="8.48" y="0">ANS</tspan><tspan x="22.729" y="0" style="letter-spacing:-0.02998046875em">P</tspan><tspan x="26.869" y="0" style="letter-spacing:-0.00009765625em">ARENCIA</tspan></text><text transform="translate(50.911 46.76)" style="font-size:10px;fill:#161616;font-family:Politica-BoldItalic, Politica;font-weight:700;font-style:italic">T<tspan x="3.7" y="0" style="letter-spacing:0.02001953125em">R</tspan><tspan x="8.48" y="0">ANS</tspan><tspan x="22.729" y="0" style="letter-spacing:-0.02998046875em">P</tspan><tspan x="26.869" y="0" style="letter-spacing:-0.00009765625em">ARENCIA</tspan></text><text transform="translate(50.411 46.26)" style="font-size:10px;fill:#161616;font-family:Politica-BoldItalic, Politica;font-weight:700;font-style:italic">T<tspan x="3.7" y="0" style="letter-spacing:0.02001953125em">R</tspan><tspan x="8.48" y="0">ANS</tspan><tspan x="22.729" y="0" style="letter-spacing:-0.02998046875em">P</tspan><tspan x="26.869" y="0" style="letter-spacing:-0.00009765625em">ARENCIA</tspan></text><text transform="translate(49.911 45.76)" style="font-size:10px;fill:#161616;font-family:Politica-BoldItalic, Politica;font-weight:700;font-style:italic">T<tspan x="3.7" y="0" style="letter-spacing:0.02001953125em">R</tspan><tspan x="8.48" y="0">ANS</tspan><tspan x="22.729" y="0" style="letter-spacing:-0.02998046875em">P</tspan><tspan x="26.869" y="0" style="letter-spacing:-0.00009765625em">ARENCIA</tspan></text><text transform="translate(49.411 45.26)" style="font-size:10px;fill:#161616;font-family:Politica-BoldItalic, Politica;font-weight:700;font-style:italic">T<tspan x="3.7" y="0" style="letter-spacing:0.02001953125em">R</tspan><tspan x="8.48" y="0">ANS</tspan><tspan x="22.729" y="0" style="letter-spacing:-0.02998046875em">P</tspan><tspan x="26.869" y="0" style="letter-spacing:-0.00009765625em">ARENCIA</tspan></text><text transform="translate(48.911 44.76)" style="font-size:10px;fill:#161616;font-family:Politica-BoldItalic, Politica;font-weight:700;font-style:italic">T<tspan x="3.7" y="0" style="letter-spacing:0.02001953125em">R</tspan><tspan x="8.48" y="0">ANS</tspan><tspan x="22.729" y="0" style="letter-spacing:-0.02998046875em">P</tspan><tspan x="26.869" y="0" style="letter-spacing:-0.00009765625em">ARENCIA</tspan></text><text transform="translate(48.411 44.26)" style="font-size:10px;fill:#161616;font-family:Politica-BoldItalic, Politica;font-weight:700;font-style:italic">T<tspan x="3.7" y="0" style="letter-spacing:0.02001953125em">R</tspan><tspan x="8.48" y="0">ANS</tspan><tspan x="22.729" y="0" style="letter-spacing:-0.02998046875em">P</tspan><tspan x="26.869" y="0" style="letter-spacing:-0.00009765625em">ARENCIA</tspan></text><text transform="translate(47.911 43.76)" style="font-size:10px;fill:#161616;font-family:Politica-BoldItalic, Politica;font-weight:700;font-style:italic">T<tspan x="3.7" y="0" style="letter-spacing:0.02001953125em">R</tspan><tspan x="8.48" y="0">ANS</tspan><tspan x="22.729" y="0" style="letter-spacing:-0.02998046875em">P</tspan><tspan x="26.869" y="0" style="letter-spacing:-0.00009765625em">ARENCIA</tspan></text><text transform="translate(47.411 43.26)" style="font-size:10px;fill:#161616;font-family:Politica-BoldItalic, Politica;font-weight:700;font-style:italic">T<tspan x="3.7" y="0" style="letter-spacing:0.02001953125em">R</tspan><tspan x="8.48" y="0">ANS</tspan><tspan x="22.729" y="0" style="letter-spacing:-0.02998046875em">P</tspan><tspan x="26.869" y="0" style="letter-spacing:-0.00009765625em">ARENCIA</tspan></text><text transform="translate(46.911 42.76)" style="font-size:10px;fill:#161616;font-family:Politica-BoldItalic, Politica;font-weight:700;font-style:italic">T<tspan x="3.7" y="0" style="letter-spacing:0.02001953125em">R</tspan><tspan x="8.48" y="0">ANS</tspan><tspan x="22.729" y="0" style="letter-spacing:-0.02998046875em">P</tspan><tspan x="26.869" y="0" style="letter-spacing:-0.00009765625em">ARENCIA</tspan></text><text transform="translate(46.411 42.26)" style="font-size:10px;fill:#161616;font-family:Politica-BoldItalic, Politica;font-weight:700;font-style:italic">T<tspan x="3.7" y="0" style="letter-spacing:0.02001953125em">R</tspan><tspan x="8.48" y="0">ANS</tspan><tspan x="22.729" y="0" style="letter-spacing:-0.02998046875em">P</tspan><tspan x="26.869" y="0" style="letter-spacing:-0.00009765625em">ARENCIA</tspan></text><text transform="translate(45.911 41.76)" style="font-size:10px;fill:#161616;font-family:Politica-BoldItalic, Politica;font-weight:700;font-style:italic">T<tspan x="3.7" y="0" style="letter-spacing:0.02001953125em">R</tspan><tspan x="8.48" y="0">ANS</tspan><tspan x="22.729" y="0" style="letter-spacing:-0.02998046875em">P</tspan><tspan x="26.869" y="0" style="letter-spacing:-0.00009765625em">ARENCIA</tspan></text><text transform="translate(45.411 41.26)" style="font-size:10px;fill:#161616;font-family:Politica-BoldItalic, Politica;font-weight:700;font-style:italic">T<tspan x="3.7" y="0" style="letter-spacing:0.02001953125em">R</tspan><tspan x="8.48" y="0">ANS</tspan><tspan x="22.729" y="0" style="letter-spacing:-0.02998046875em">P</tspan><tspan x="26.869" y="0" style="letter-spacing:-0.00009765625em">ARENCIA</tspan></text><text transform="translate(44.911 40.76)" style="font-size:10px;fill:#161616;font-family:Politica-BoldItalic, Politica;font-weight:700;font-style:italic">T<tspan x="3.7" y="0" style="letter-spacing:0.02001953125em">R</tspan><tspan x="8.48" y="0">ANS</tspan><tspan x="22.729" y="0" style="letter-spacing:-0.02998046875em">P</tspan><tspan x="26.869" y="0" style="letter-spacing:-0.00009765625em">ARENCIA</tspan></text><text transform="translate(44.411 40.26)" style="font-size:10px;fill:#161616;font-family:Politica-BoldItalic, Politica;font-weight:700;font-style:italic">T<tspan x="3.7" y="0" style="letter-spacing:0.02001953125em">R</tspan><tspan x="8.48" y="0">ANS</tspan><tspan x="22.729" y="0" style="letter-spacing:-0.02998046875em">P</tspan><tspan x="26.869" y="0" style="letter-spacing:-0.00009765625em">ARENCIA</tspan></text><text transform="translate(43.911 39.76)" style="font-size:10px;fill:#161616;font-family:Politica-BoldItalic, Politica;font-weight:700;font-style:italic">T<tspan x="3.7" y="0" style="letter-spacing:0.02001953125em">R</tspan><tspan x="8.48" y="0">ANS</tspan><tspan x="22.729" y="0" style="letter-spacing:-0.02998046875em">P</tspan><tspan x="26.869" y="0" style="letter-spacing:-0.00009765625em">ARENCIA</tspan></text><text transform="translate(43.411 39.26)" style="font-size:10px;fill:#161616;font-family:Politica-BoldItalic, Politica;font-weight:700;font-style:italic">T<tspan x="3.7" y="0" style="letter-spacing:0.02001953125em">R</tspan><tspan x="8.48" y="0">ANS</tspan><tspan x="22.729" y="0" style="letter-spacing:-0.02998046875em">P</tspan><tspan x="26.869" y="0" style="letter-spacing:-0.00009765625em">ARENCIA</tspan></text><text transform="translate(42.911 38.76)" style="font-size:10px;fill:#161616;font-family:Politica-BoldItalic, Politica;font-weight:700;font-style:italic">T<tspan x="3.7" y="0" style="letter-spacing:0.02001953125em">R</tspan><tspan x="8.48" y="0">ANS</tspan><tspan x="22.729" y="0" style="letter-spacing:-0.02998046875em">P</tspan><tspan x="26.869" y="0" style="letter-spacing:-0.00009765625em">ARENCIA</tspan></text><text transform="translate(42.411 38.26)" style="font-size:10px;fill:#161616;font-family:Politica-BoldItalic, Politica;font-weight:700;font-style:italic">T<tspan x="3.7" y="0" style="letter-spacing:0.02001953125em">R</tspan><tspan x="8.48" y="0">ANS</tspan><tspan x="22.729" y="0" style="letter-spacing:-0.02998046875em">P</tspan><tspan x="26.869" y="0" style="letter-spacing:-0.00009765625em">ARENCIA</tspan></text><text transform="translate(41.911 37.76)" style="font-size:10px;fill:#161616;font-family:Politica-BoldItalic, Politica;font-weight:700;font-style:italic">T<tspan x="3.7" y="0" style="letter-spacing:0.02001953125em">R</tspan><tspan x="8.48" y="0">ANS</tspan><tspan x="22.729" y="0" style="letter-spacing:-0.02998046875em">P</tspan><tspan x="26.869" y="0" style="letter-spacing:-0.00009765625em">ARENCIA</tspan></text><text transform="translate(41.411 37.26)" style="font-size:10px;fill:#161616;font-family:Politica-BoldItalic, Politica;font-weight:700;font-style:italic">T<tspan x="3.7" y="0" style="letter-spacing:0.02001953125em">R</tspan><tspan x="8.48" y="0">ANS</tspan><tspan x="22.729" y="0" style="letter-spacing:-0.02998046875em">P</tspan><tspan x="26.869" y="0" style="letter-spacing:-0.00009765625em">ARENCIA</tspan></text><text transform="translate(40.911 36.76)" style="font-size:10px;fill:#161616;font-family:Politica-BoldItalic, Politica;font-weight:700;font-style:italic">T<tspan x="3.7" y="0" style="letter-spacing:0.02001953125em">R</tspan><tspan x="8.48" y="0">ANS</tspan><tspan x="22.729" y="0" style="letter-spacing:-0.02998046875em">P</tspan><tspan x="26.869" y="0" style="letter-spacing:-0.00009765625em">ARENCIA</tspan></text><text transform="translate(40.411 36.26)" style="font-size:10px;fill:#161616;font-family:Politica-BoldItalic, Politica;font-weight:700;font-style:italic">T<tspan x="3.7" y="0" style="letter-spacing:0.02001953125em">R</tspan><tspan x="8.48" y="0">ANS</tspan><tspan x="22.729" y="0" style="letter-spacing:-0.02998046875em">P</tspan><tspan x="26.869" y="0" style="letter-spacing:-0.00009765625em">ARENCIA</tspan></text><text transform="translate(39.911 35.76)" style="font-size:10px;fill:#161616;font-family:Politica-BoldItalic, Politica;font-weight:700;font-style:italic">T<tspan x="3.7" y="0" style="letter-spacing:0.02001953125em">R</tspan><tspan x="8.48" y="0">ANS</tspan><tspan x="22.729" y="0" style="letter-spacing:-0.02998046875em">P</tspan><tspan x="26.869" y="0" style="letter-spacing:-0.00009765625em">ARENCIA</tspan></text><text transform="translate(39.411 35.26)" style="font-size:10px;fill:#161616;font-family:Politica-BoldItalic, Politica;font-weight:700;font-style:italic">T<tspan x="3.7" y="0" style="letter-spacing:0.02001953125em">R</tspan><tspan x="8.48" y="0">ANS</tspan><tspan x="22.729" y="0" style="letter-spacing:-0.02998046875em">P</tspan><tspan x="26.869" y="0" style="letter-spacing:-0.00009765625em">ARENCIA</tspan></text><text transform="translate(38.911 34.76)" style="font-size:10px;fill:#161616;font-family:Politica-BoldItalic, Politica;font-weight:700;font-style:italic">T<tspan x="3.7" y="0" style="letter-spacing:0.02001953125em">R</tspan><tspan x="8.48" y="0">ANS</tspan><tspan x="22.729" y="0" style="letter-spacing:-0.02998046875em">P</tspan><tspan x="26.869" y="0" style="letter-spacing:-0.00009765625em">ARENCIA</tspan></text><text transform="translate(38.411 34.26)" style="font-size:10px;fill:#161616;font-family:Politica-BoldItalic, Politica;font-weight:700;font-style:italic">T<tspan x="3.7" y="0" style="letter-spacing:0.02001953125em">R</tspan><tspan x="8.48" y="0">ANS</tspan><tspan x="22.729" y="0" style="letter-spacing:-0.02998046875em">P</tspan><tspan x="26.869" y="0" style="letter-spacing:-0.00009765625em">ARENCIA</tspan></text><text transform="translate(37.911 33.76)" style="font-size:10px;fill:#161616;font-family:Politica-BoldItalic, Politica;font-weight:700;font-style:italic">T<tspan x="3.7" y="0" style="letter-spacing:0.02001953125em">R</tspan><tspan x="8.48" y="0">ANS</tspan><tspan x="22.729" y="0" style="letter-spacing:-0.02998046875em">P</tspan><tspan x="26.869" y="0" style="letter-spacing:-0.00009765625em">ARENCIA</tspan></text><text transform="translate(37.411 33.26)" style="font-size:10px;fill:#161616;font-family:Politica-BoldItalic, Politica;font-weight:700;font-style:italic">T<tspan x="3.7" y="0" style="letter-spacing:0.02001953125em">R</tspan><tspan x="8.48" y="0">ANS</tspan><tspan x="22.729" y="0" style="letter-spacing:-0.02998046875em">P</tspan><tspan x="26.869" y="0" style="letter-spacing:-0.00009765625em">ARENCIA</tspan></text><text transform="translate(36.911 32.76)" style="font-size:10px;fill:#161616;font-family:Politica-BoldItalic, Politica;font-weight:700;font-style:italic">T<tspan x="3.7" y="0" style="letter-spacing:0.02001953125em">R</tspan><tspan x="8.48" y="0">ANS</tspan><tspan x="22.729" y="0" style="letter-spacing:-0.02998046875em">P</tspan><tspan x="26.869" y="0" style="letter-spacing:-0.00009765625em">ARENCIA</tspan></text><text transform="translate(36.411 32.26)" style="font-size:10px;fill:#161616;font-family:Politica-BoldItalic, Politica;font-weight:700;font-style:italic">T<tspan x="3.7" y="0" style="letter-spacing:0.02001953125em">R</tspan><tspan x="8.48" y="0">ANS</tspan><tspan x="22.729" y="0" style="letter-spacing:-0.02998046875em">P</tspan><tspan x="26.869" y="0" style="letter-spacing:-0.00009765625em">ARENCIA</tspan></text></g><text transform="translate(36.411 32.26)" style="font-size:10px;fill:#fcfafa;font-family:Politica-BoldItalic, Politica;font-weight:700;font-style:italic">T<tspan x="3.7" y="0" style="letter-spacing:0.02001953125em">R</tspan><tspan x="8.48" y="0">ANS</tspan><tspan x="22.729" y="0" style="letter-spacing:-0.02998046875em">P</tspan><tspan x="26.869" y="0" style="letter-spacing:-0.00009765625em">ARENCIA</tspan></text></g></g></svg>