<svg xmlns="http://www.w3.org/2000/svg" xmlns:xlink="http://www.w3.org/1999/xlink" viewBox="0 0 100.47 29.16"><defs><clipPath id="a" transform="translate(-16.47 -24.64)"><circle cx="35.54" cy="43.71" r="19.07" style="fill:none"/></clipPath><linearGradient id="b" x1="35.54" y1="48.96" x2="35.54" y2="51.09" gradientUnits="userSpaceOnUse"><stop offset="0" stop-color="red"/><stop offset="1"/></linearGradient></defs><title>Sem título-1</title><path d="M54.61,43.71a19.07,19.07,0,1,0-36.66,7.37h0A18.7,18.7,0,0,1,17.23,49H53.85a18.7,18.7,0,0,1-.75,2.13h0A19,19,0,0,0,54.61,43.71Z" transform="translate(-16.47 -24.64)" style="fill:red"/><g style="clip-path:url(#a)"><path d="M35.54,26.47,21.41,51H49.67Z" transform="translate(-16.47 -24.64)" style="fill:#fff;stroke:#fff;stroke-miterlimit:10"/><path d="M20.08,53.29H51L49.67,51H21.41l-.29.5" transform="translate(-16.47 -24.64)" style="fill:#fff;stroke:#fff;stroke-miterlimit:10"/></g><path d="M53.85,49H17.23A18.7,18.7,0,0,0,18,51.07H53.1A18.7,18.7,0,0,0,53.85,49Z" transform="translate(-16.47 -24.64)" style="fill:red"/><path d="M53.85,49H17.23A18.7,18.7,0,0,0,18,51.07H53.1A18.7,18.7,0,0,0,53.85,49Z" transform="translate(-16.47 -24.64)" style="fill:url(#b)"/><path d="M59,31.91l2.2-5.73H62l2.34,5.73h-.86l-.67-1.73H60.42l-.63,1.73Zm1.65-2.35h1.94L62,28q-.27-.72-.41-1.19a7.28,7.28,0,0,1-.31,1.09Z" transform="translate(-16.47 -24.64)" style="fill:#333"/><path d="M64.58,30.67l.7-.11a1,1,0,0,0,.33.64,1.14,1.14,0,0,0,.75.22,1.1,1.1,0,0,0,.72-.2.59.59,0,0,0,.23-.46.43.43,0,0,0-.21-.37,3,3,0,0,0-.72-.24,6.56,6.56,0,0,1-1.07-.34,1,1,0,0,1-.61-1,1.07,1.07,0,0,1,.13-.51,1.13,1.13,0,0,1,.35-.39,1.46,1.46,0,0,1,.45-.21,2.12,2.12,0,0,1,.61-.08,2.4,2.4,0,0,1,.86.14,1.17,1.17,0,0,1,.54.38,1.49,1.49,0,0,1,.24.64l-.69.09a.75.75,0,0,0-.27-.5,1,1,0,0,0-.63-.18,1.15,1.15,0,0,0-.69.16.47.47,0,0,0-.21.38.39.39,0,0,0,.09.25.62.62,0,0,0,.27.19l.62.18a8.68,8.68,0,0,1,1,.33,1.05,1.05,0,0,1,.46.37,1,1,0,0,1,.17.6,1.18,1.18,0,0,1-.21.66,1.33,1.33,0,0,1-.59.48,2.15,2.15,0,0,1-.87.17,2,2,0,0,1-1.23-.34A1.56,1.56,0,0,1,64.58,30.67Z" transform="translate(-16.47 -24.64)" style="fill:#333"/><path d="M68.58,30.67l.7-.11a1,1,0,0,0,.33.64,1.14,1.14,0,0,0,.75.22,1.1,1.1,0,0,0,.72-.2.59.59,0,0,0,.23-.46.43.43,0,0,0-.21-.37,3,3,0,0,0-.72-.24,6.56,6.56,0,0,1-1.07-.34,1,1,0,0,1-.61-1,1.07,1.07,0,0,1,.13-.51,1.13,1.13,0,0,1,.35-.39,1.46,1.46,0,0,1,.45-.21,2.12,2.12,0,0,1,.61-.08,2.4,2.4,0,0,1,.86.14,1.17,1.17,0,0,1,.54.38,1.49,1.49,0,0,1,.24.64l-.69.09a.75.75,0,0,0-.27-.5,1,1,0,0,0-.63-.18,1.15,1.15,0,0,0-.69.16.47.47,0,0,0-.21.38.39.39,0,0,0,.09.25.62.62,0,0,0,.27.19l.62.18a8.68,8.68,0,0,1,1,.33,1.05,1.05,0,0,1,.46.37,1,1,0,0,1,.17.6,1.18,1.18,0,0,1-.21.66,1.33,1.33,0,0,1-.59.48,2.15,2.15,0,0,1-.87.17,2,2,0,0,1-1.23-.34A1.56,1.56,0,0,1,68.58,30.67Z" transform="translate(-16.47 -24.64)" style="fill:#333"/><path d="M75.7,30.57l.73.09a1.77,1.77,0,0,1-.64,1,2.16,2.16,0,0,1-2.63-.21,2.19,2.19,0,0,1-.53-1.57,2.29,2.29,0,0,1,.54-1.62,1.83,1.83,0,0,1,1.4-.58,1.77,1.77,0,0,1,1.36.57,2.25,2.25,0,0,1,.53,1.59s0,.1,0,.19H73.36a1.59,1.59,0,0,0,.39,1,1.15,1.15,0,0,0,.87.36,1.08,1.08,0,0,0,.66-.2A1.35,1.35,0,0,0,75.7,30.57Zm-2.31-1.14h2.32a1.4,1.4,0,0,0-.27-.79,1.08,1.08,0,0,0-.87-.41,1.12,1.12,0,0,0-.81.32A1.28,1.28,0,0,0,73.39,29.43Z" transform="translate(-16.47 -24.64)" style="fill:#333"/><path d="M77.31,31.91V27.76h.63v.58a1.48,1.48,0,0,1,.52-.49,1.46,1.46,0,0,1,.74-.19,1.37,1.37,0,0,1,.76.19,1,1,0,0,1,.42.54,1.49,1.49,0,0,1,1.28-.73,1.26,1.26,0,0,1,.95.34,1.46,1.46,0,0,1,.33,1.05v2.85h-.7V29.29a1.93,1.93,0,0,0-.07-.61.59.59,0,0,0-.25-.3.77.77,0,0,0-.42-.11,1,1,0,0,0-.73.29,1.28,1.28,0,0,0-.29.93v2.41h-.7v-2.7a1.18,1.18,0,0,0-.17-.7.65.65,0,0,0-.56-.23,1,1,0,0,0-.55.16.89.89,0,0,0-.37.46,2.57,2.57,0,0,0-.11.87v2.15Z" transform="translate(-16.47 -24.64)" style="fill:#333"/><path d="M84.63,31.91H84V26.18h.7v2a1.39,1.39,0,0,1,1.14-.56,1.74,1.74,0,0,1,.72.15,1.48,1.48,0,0,1,.56.43,2.1,2.1,0,0,1,.35.67,2.77,2.77,0,0,1,.13.84A2.37,2.37,0,0,1,87,31.42a1.65,1.65,0,0,1-1.27.58,1.32,1.32,0,0,1-1.15-.61Zm0-2.11a2.15,2.15,0,0,0,.2,1.08,1,1,0,0,0,1.7.14,1.82,1.82,0,0,0,.34-1.19,1.85,1.85,0,0,0-.32-1.2,1,1,0,0,0-.78-.39,1,1,0,0,0-.8.4A1.76,1.76,0,0,0,84.62,29.8Z" transform="translate(-16.47 -24.64)" style="fill:#333"/><path d="M88.41,31.91V26.18h.7v5.73Z" transform="translate(-16.47 -24.64)" style="fill:#333"/><path d="M93,30.57l.73.09a1.77,1.77,0,0,1-.64,1,2.16,2.16,0,0,1-2.63-.21A2.19,2.19,0,0,1,90,29.87a2.29,2.29,0,0,1,.54-1.62,1.83,1.83,0,0,1,1.4-.58,1.77,1.77,0,0,1,1.36.57,2.25,2.25,0,0,1,.53,1.59s0,.1,0,.19H90.7a1.59,1.59,0,0,0,.39,1,1.15,1.15,0,0,0,.87.36,1.08,1.08,0,0,0,.66-.2A1.35,1.35,0,0,0,93,30.57Zm-2.31-1.14h2.32a1.4,1.4,0,0,0-.27-.79,1.08,1.08,0,0,0-.87-.41,1.12,1.12,0,0,0-.81.32A1.28,1.28,0,0,0,90.73,29.43Zm.76-2.19L92,26.15h.92l-.86,1.09Z" transform="translate(-16.47 -24.64)" style="fill:#333"/><path d="M94.66,27v-.81h.7V27Zm0,4.92V27.76h.7v4.15Z" transform="translate(-16.47 -24.64)" style="fill:#333"/><path d="M99.14,31.4a2.63,2.63,0,0,1-.75.47,2.17,2.17,0,0,1-.78.14,1.51,1.51,0,0,1-1.05-.33,1.1,1.1,0,0,1-.37-.85,1.16,1.16,0,0,1,.5-1,1.71,1.71,0,0,1,.51-.23,5,5,0,0,1,.63-.11,6.43,6.43,0,0,0,1.25-.24c0-.1,0-.16,0-.18a.78.78,0,0,0-.2-.61,1.18,1.18,0,0,0-.8-.24,1.24,1.24,0,0,0-.73.17A1.06,1.06,0,0,0,97,29l-.69-.09a1.71,1.71,0,0,1,.31-.71,1.35,1.35,0,0,1,.62-.42,2.77,2.77,0,0,1,.94-.15,2.49,2.49,0,0,1,.86.13,1.14,1.14,0,0,1,.49.31,1.11,1.11,0,0,1,.22.48,4,4,0,0,1,0,.65v.94a10,10,0,0,0,0,1.24,1.56,1.56,0,0,0,.18.5h-.73A1.5,1.5,0,0,1,99.14,31.4Zm-.06-1.57a5.16,5.16,0,0,1-1.15.27,2.64,2.64,0,0,0-.61.14.61.61,0,0,0-.28.23.62.62,0,0,0,.12.8.92.92,0,0,0,.62.19,1.45,1.45,0,0,0,.72-.18,1.1,1.1,0,0,0,.46-.49,1.69,1.69,0,0,0,.11-.7Z" transform="translate(-16.47 -24.64)" style="fill:#333"/><path d="M59.59,41.51V35.78h.76v5.05h2.82v.68Z" transform="translate(-16.47 -24.64)" style="fill:#333"/><path d="M66.82,40.17l.73.09a1.77,1.77,0,0,1-.64,1A2.16,2.16,0,0,1,64.28,41a2.19,2.19,0,0,1-.53-1.57,2.29,2.29,0,0,1,.54-1.62,1.83,1.83,0,0,1,1.4-.58,1.77,1.77,0,0,1,1.36.57,2.25,2.25,0,0,1,.53,1.59s0,.1,0,.19H64.47a1.59,1.59,0,0,0,.39,1,1.15,1.15,0,0,0,.87.36,1.08,1.08,0,0,0,.66-.2A1.35,1.35,0,0,0,66.82,40.17ZM64.51,39h2.32a1.4,1.4,0,0,0-.27-.79,1.08,1.08,0,0,0-.87-.41,1.12,1.12,0,0,0-.81.32A1.28,1.28,0,0,0,64.51,39Z" transform="translate(-16.47 -24.64)" style="fill:#333"/><path d="M68.3,41.85,69,42a.65.65,0,0,0,.24.46,1.17,1.17,0,0,0,.71.2,1.25,1.25,0,0,0,.75-.2,1,1,0,0,0,.36-.55,4.49,4.49,0,0,0,.05-.9,1.45,1.45,0,0,1-1.15.54,1.57,1.57,0,0,1-1.32-.62,2.38,2.38,0,0,1-.47-1.48,2.76,2.76,0,0,1,.21-1.1,1.72,1.72,0,0,1,.62-.78,1.68,1.68,0,0,1,1-.27,1.49,1.49,0,0,1,1.21.59v-.5h.65v3.59a3.4,3.4,0,0,1-.2,1.37A1.44,1.44,0,0,1,71,43a2.17,2.17,0,0,1-1.05.23,2,2,0,0,1-1.2-.33A1.13,1.13,0,0,1,68.3,41.85Zm.58-2.49a1.8,1.8,0,0,0,.32,1.19,1,1,0,0,0,.81.38,1,1,0,0,0,.81-.37,1.74,1.74,0,0,0,.33-1.17,1.7,1.7,0,0,0-.34-1.15,1,1,0,0,0-.81-.39,1,1,0,0,0-.8.38A1.69,1.69,0,0,0,68.88,39.36Z" transform="translate(-16.47 -24.64)" style="fill:#333"/><path d="M72.88,36.59v-.81h.7v.81Zm0,4.92V37.36h.7v4.15Z" transform="translate(-16.47 -24.64)" style="fill:#333"/><path d="M74.37,40.27l.7-.11a1,1,0,0,0,.33.64,1.14,1.14,0,0,0,.75.22,1.1,1.1,0,0,0,.72-.2.59.59,0,0,0,.23-.46.43.43,0,0,0-.21-.37,3,3,0,0,0-.72-.24,6.56,6.56,0,0,1-1.07-.34,1,1,0,0,1-.61-1,1.07,1.07,0,0,1,.13-.51,1.13,1.13,0,0,1,.35-.39,1.46,1.46,0,0,1,.45-.21,2.12,2.12,0,0,1,.61-.08,2.4,2.4,0,0,1,.86.14,1.17,1.17,0,0,1,.54.38,1.49,1.49,0,0,1,.24.64l-.69.09a.75.75,0,0,0-.27-.5,1,1,0,0,0-.63-.18,1.15,1.15,0,0,0-.69.16.47.47,0,0,0-.21.38.39.39,0,0,0,.09.25.62.62,0,0,0,.27.19l.62.18a8.68,8.68,0,0,1,1,.33,1.05,1.05,0,0,1,.46.37,1,1,0,0,1,.17.6,1.18,1.18,0,0,1-.21.66,1.33,1.33,0,0,1-.59.48,2.15,2.15,0,0,1-.87.17,2,2,0,0,1-1.23-.34A1.56,1.56,0,0,1,74.37,40.27Z" transform="translate(-16.47 -24.64)" style="fill:#333"/><path d="M78.64,41.51V35.78h.7v5.73Z" transform="translate(-16.47 -24.64)" style="fill:#333"/><path d="M83.14,41a2.63,2.63,0,0,1-.75.47,2.17,2.17,0,0,1-.78.14,1.51,1.51,0,0,1-1.05-.33,1.1,1.1,0,0,1-.37-.85,1.16,1.16,0,0,1,.5-1,1.71,1.71,0,0,1,.51-.23,5,5,0,0,1,.63-.11,6.43,6.43,0,0,0,1.25-.24c0-.1,0-.16,0-.18a.78.78,0,0,0-.2-.61,1.18,1.18,0,0,0-.8-.24,1.24,1.24,0,0,0-.73.17,1.06,1.06,0,0,0-.35.62l-.69-.09a1.71,1.71,0,0,1,.31-.71,1.35,1.35,0,0,1,.62-.42,2.77,2.77,0,0,1,.94-.15,2.49,2.49,0,0,1,.86.13,1.14,1.14,0,0,1,.49.31,1.11,1.11,0,0,1,.22.48,4,4,0,0,1,0,.65v.94a10,10,0,0,0,0,1.24,1.56,1.56,0,0,0,.18.5h-.73A1.5,1.5,0,0,1,83.14,41Zm-.06-1.57a5.16,5.16,0,0,1-1.15.27,2.64,2.64,0,0,0-.61.14.61.61,0,0,0-.28.23.62.62,0,0,0,.12.8.92.92,0,0,0,.62.19,1.45,1.45,0,0,0,.72-.18,1.1,1.1,0,0,0,.46-.49,1.69,1.69,0,0,0,.11-.7Z" transform="translate(-16.47 -24.64)" style="fill:#333"/><path d="M86.41,40.88l.1.62a2.62,2.62,0,0,1-.53.06,1.2,1.2,0,0,1-.59-.12.68.68,0,0,1-.3-.32,2.52,2.52,0,0,1-.09-.83V37.91h-.52v-.55H85v-1l.7-.42v1.45h.71v.55h-.71v2.43a1.22,1.22,0,0,0,0,.39.29.29,0,0,0,.12.14.47.47,0,0,0,.24.05Z" transform="translate(-16.47 -24.64)" style="fill:#333"/><path d="M87.11,36.59v-.81h.7v.81Zm0,4.92V37.36h.7v4.15Z" transform="translate(-16.47 -24.64)" style="fill:#333"/><path d="M90,41.51l-1.58-4.15h.74l.89,2.48q.14.4.27.84.09-.33.26-.79l.92-2.53h.72l-1.57,4.15Z" transform="translate(-16.47 -24.64)" style="fill:#333"/><path d="M95.59,41a2.63,2.63,0,0,1-.75.47,2.17,2.17,0,0,1-.78.14A1.51,1.51,0,0,1,93,41.27a1.1,1.1,0,0,1-.37-.85,1.16,1.16,0,0,1,.5-1,1.71,1.71,0,0,1,.51-.23,5,5,0,0,1,.63-.11,6.43,6.43,0,0,0,1.25-.24c0-.1,0-.16,0-.18a.78.78,0,0,0-.2-.61,1.18,1.18,0,0,0-.8-.24,1.24,1.24,0,0,0-.73.17,1.06,1.06,0,0,0-.35.62l-.69-.09a1.71,1.71,0,0,1,.31-.71,1.35,1.35,0,0,1,.62-.42,2.77,2.77,0,0,1,.94-.15,2.49,2.49,0,0,1,.86.13,1.14,1.14,0,0,1,.49.31,1.11,1.11,0,0,1,.22.48,4,4,0,0,1,0,.65v.94a10,10,0,0,0,0,1.24,1.56,1.56,0,0,0,.18.5h-.73A1.5,1.5,0,0,1,95.59,41Zm-.06-1.57a5.16,5.16,0,0,1-1.15.27,2.64,2.64,0,0,0-.61.14.61.61,0,0,0-.28.23.62.62,0,0,0,.12.8.92.92,0,0,0,.62.19,1.45,1.45,0,0,0,.72-.18,1.1,1.1,0,0,0,.46-.49,1.69,1.69,0,0,0,.11-.7Z" transform="translate(-16.47 -24.64)" style="fill:#333"/><path d="M62.22,51.11v-.52a1.29,1.29,0,0,1-1.16.62,1.62,1.62,0,0,1-.91-.27,1.8,1.8,0,0,1-.64-.76A2.64,2.64,0,0,1,59.27,49a3,3,0,0,1,.21-1.13,1.63,1.63,0,0,1,.62-.78,1.66,1.66,0,0,1,.93-.27,1.38,1.38,0,0,1,1.14.57V45.38h.7v5.73ZM60,49a1.8,1.8,0,0,0,.34,1.19,1,1,0,0,0,.79.39,1,1,0,0,0,.78-.38,1.74,1.74,0,0,0,.32-1.15,2,2,0,0,0-.33-1.25,1,1,0,0,0-.81-.4,1,1,0,0,0-.78.38A1.89,1.89,0,0,0,60,49Z" transform="translate(-16.47 -24.64)" style="fill:#333"/><path d="M66.82,49.77l.73.09a1.77,1.77,0,0,1-.64,1,2.16,2.16,0,0,1-2.63-.21,2.19,2.19,0,0,1-.53-1.57,2.29,2.29,0,0,1,.54-1.62,1.83,1.83,0,0,1,1.4-.58,1.77,1.77,0,0,1,1.36.57A2.25,2.25,0,0,1,67.57,49s0,.1,0,.19H64.47a1.59,1.59,0,0,0,.39,1,1.15,1.15,0,0,0,.87.36,1.07,1.07,0,0,0,.66-.2A1.35,1.35,0,0,0,66.82,49.77Zm-2.31-1.14h2.32a1.4,1.4,0,0,0-.27-.79,1.08,1.08,0,0,0-.87-.41,1.12,1.12,0,0,0-.81.32A1.28,1.28,0,0,0,64.51,48.63Z" transform="translate(-16.47 -24.64)" style="fill:#333"/><path d="M70.71,51.11V45.38h1.14l1.36,4.05q.19.57.27.85.1-.31.3-.92l1.37-4h1v5.73h-.73V46.31l-1.66,4.79H73.1l-1.66-4.88v4.88Z" transform="translate(-16.47 -24.64)" style="fill:#333"/><path d="M77.32,46.19v-.81H78v.81Zm0,4.92V47H78v4.15Z" transform="translate(-16.47 -24.64)" style="fill:#333"/><path d="M79.09,51.11V47h.63v.59A1.49,1.49,0,0,1,81,46.86a1.73,1.73,0,0,1,.69.13,1.08,1.08,0,0,1,.47.35,1.36,1.36,0,0,1,.22.52,4,4,0,0,1,0,.68v2.55h-.7V48.58a1.89,1.89,0,0,0-.08-.64.68.68,0,0,0-.29-.34.93.93,0,0,0-.49-.13,1.14,1.14,0,0,0-.78.29,1.41,1.41,0,0,0-.33,1.08v2.27Z" transform="translate(-16.47 -24.64)" style="fill:#333"/><path d="M86.25,50.6a2.62,2.62,0,0,1-.75.47,2.18,2.18,0,0,1-.78.14,1.51,1.51,0,0,1-1.05-.33A1.1,1.1,0,0,1,83.3,50a1.16,1.16,0,0,1,.5-1,1.71,1.71,0,0,1,.51-.23,5,5,0,0,1,.63-.11,6.43,6.43,0,0,0,1.25-.24c0-.1,0-.16,0-.18a.78.78,0,0,0-.2-.61,1.18,1.18,0,0,0-.8-.24,1.24,1.24,0,0,0-.73.17,1.06,1.06,0,0,0-.35.62l-.69-.09a1.71,1.71,0,0,1,.31-.71,1.35,1.35,0,0,1,.62-.42,2.77,2.77,0,0,1,.94-.15,2.49,2.49,0,0,1,.86.13,1.14,1.14,0,0,1,.49.31,1.11,1.11,0,0,1,.22.48,4,4,0,0,1,0,.65v.94a10,10,0,0,0,0,1.24,1.58,1.58,0,0,0,.18.5h-.73A1.5,1.5,0,0,1,86.25,50.6ZM86.19,49a5.16,5.16,0,0,1-1.15.27,2.69,2.69,0,0,0-.61.14.6.6,0,0,0-.37.56.6.6,0,0,0,.21.47.92.92,0,0,0,.62.19,1.45,1.45,0,0,0,.72-.18,1.09,1.09,0,0,0,.46-.49,1.7,1.7,0,0,0,.11-.7Z" transform="translate(-16.47 -24.64)" style="fill:#333"/><path d="M87.71,49.87l.7-.11a1,1,0,0,0,.33.64,1.14,1.14,0,0,0,.75.22,1.1,1.1,0,0,0,.72-.2.59.59,0,0,0,.23-.46.43.43,0,0,0-.21-.37,3.06,3.06,0,0,0-.72-.24A6.56,6.56,0,0,1,88.43,49a1,1,0,0,1-.61-1,1.07,1.07,0,0,1,.13-.51,1.13,1.13,0,0,1,.35-.39,1.46,1.46,0,0,1,.45-.21,2.12,2.12,0,0,1,.61-.08,2.4,2.4,0,0,1,.86.14,1.17,1.17,0,0,1,.54.38A1.49,1.49,0,0,1,91,48l-.69.09a.75.75,0,0,0-.27-.5,1,1,0,0,0-.63-.18,1.15,1.15,0,0,0-.69.16.47.47,0,0,0-.21.38.39.39,0,0,0,.09.25.62.62,0,0,0,.27.19l.62.18a8.68,8.68,0,0,1,1,.33,1.06,1.06,0,0,1,.46.37,1,1,0,0,1,.17.6,1.18,1.18,0,0,1-.21.66,1.33,1.33,0,0,1-.59.48,2.15,2.15,0,0,1-.87.17,2,2,0,0,1-1.23-.34A1.56,1.56,0,0,1,87.71,49.87Z" transform="translate(-16.47 -24.64)" style="fill:#333"/><path d="M97,48.86v-.67h2.43v2.13a4.27,4.27,0,0,1-1.15.67,3.42,3.42,0,0,1-1.22.23,3.24,3.24,0,0,1-1.53-.36,2.39,2.39,0,0,1-1-1,3.29,3.29,0,0,1-.35-1.53,3.55,3.55,0,0,1,.35-1.56,2.33,2.33,0,0,1,1-1.08A3.15,3.15,0,0,1,97,45.28a3,3,0,0,1,1.12.2,1.86,1.86,0,0,1,.79.56,2.49,2.49,0,0,1,.43.94l-.68.19a2.12,2.12,0,0,0-.32-.69,1.31,1.31,0,0,0-.55-.4,2,2,0,0,0-.79-.15,2.32,2.32,0,0,0-.9.16,1.68,1.68,0,0,0-.61.42,2,2,0,0,0-.36.57,3,3,0,0,0-.22,1.15,2.8,2.8,0,0,0,.26,1.28,1.69,1.69,0,0,0,.77.77,2.37,2.37,0,0,0,1.07.25,2.55,2.55,0,0,0,1-.19,2.47,2.47,0,0,0,.71-.4V48.86Z" transform="translate(-16.47 -24.64)" style="fill:#333"/><path d="M103.27,49.77l.73.09a1.77,1.77,0,0,1-.64,1,2.16,2.16,0,0,1-2.63-.21,2.19,2.19,0,0,1-.53-1.57,2.29,2.29,0,0,1,.54-1.62,1.83,1.83,0,0,1,1.4-.58,1.77,1.77,0,0,1,1.36.57A2.25,2.25,0,0,1,104,49s0,.1,0,.19h-3.09a1.59,1.59,0,0,0,.39,1,1.15,1.15,0,0,0,.87.36,1.07,1.07,0,0,0,.66-.2A1.35,1.35,0,0,0,103.27,49.77ZM101,48.63h2.32a1.4,1.4,0,0,0-.27-.79,1.08,1.08,0,0,0-.87-.41,1.12,1.12,0,0,0-.81.32A1.28,1.28,0,0,0,101,48.63Z" transform="translate(-16.47 -24.64)" style="fill:#333"/><path d="M104.88,51.11V47h.63v.63A1.72,1.72,0,0,1,106,47a.78.78,0,0,1,.45-.14,1.37,1.37,0,0,1,.72.23l-.24.65a1,1,0,0,0-.52-.15.67.67,0,0,0-.41.14.75.75,0,0,0-.26.38,2.74,2.74,0,0,0-.12.82v2.17Z" transform="translate(-16.47 -24.64)" style="fill:#333"/><path d="M110.25,50.6a2.62,2.62,0,0,1-.75.47,2.18,2.18,0,0,1-.78.14,1.51,1.51,0,0,1-1.05-.33,1.1,1.1,0,0,1-.37-.85,1.16,1.16,0,0,1,.5-1,1.71,1.71,0,0,1,.51-.23,5,5,0,0,1,.63-.11,6.43,6.43,0,0,0,1.25-.24c0-.1,0-.16,0-.18a.78.78,0,0,0-.2-.61,1.18,1.18,0,0,0-.8-.24,1.24,1.24,0,0,0-.73.17,1.06,1.06,0,0,0-.35.62l-.69-.09a1.71,1.71,0,0,1,.31-.71,1.35,1.35,0,0,1,.62-.42,2.77,2.77,0,0,1,.94-.15,2.49,2.49,0,0,1,.86.13,1.14,1.14,0,0,1,.49.31,1.11,1.11,0,0,1,.22.48,4,4,0,0,1,0,.65v.94a10,10,0,0,0,0,1.24,1.58,1.58,0,0,0,.18.5h-.73A1.5,1.5,0,0,1,110.25,50.6ZM110.2,49a5.16,5.16,0,0,1-1.15.27,2.69,2.69,0,0,0-.61.14.6.6,0,0,0-.37.56.6.6,0,0,0,.21.47.92.92,0,0,0,.62.19,1.45,1.45,0,0,0,.72-.18,1.09,1.09,0,0,0,.46-.49,1.7,1.7,0,0,0,.11-.7Z" transform="translate(-16.47 -24.64)" style="fill:#333"/><path d="M112,46.19v-.81h.7v.81Zm0,4.92V47h.7v4.15Z" transform="translate(-16.47 -24.64)" style="fill:#333"/><path d="M113.49,49.87l.7-.11a1,1,0,0,0,.33.64,1.14,1.14,0,0,0,.75.22,1.1,1.1,0,0,0,.72-.2.59.59,0,0,0,.23-.46.43.43,0,0,0-.21-.37,3.06,3.06,0,0,0-.72-.24,6.56,6.56,0,0,1-1.07-.34,1,1,0,0,1-.61-1,1.07,1.07,0,0,1,.13-.51,1.13,1.13,0,0,1,.35-.39,1.46,1.46,0,0,1,.45-.21,2.12,2.12,0,0,1,.61-.08A2.4,2.4,0,0,1,116,47a1.17,1.17,0,0,1,.54.38,1.49,1.49,0,0,1,.24.64l-.69.09a.75.75,0,0,0-.27-.5,1,1,0,0,0-.63-.18,1.15,1.15,0,0,0-.69.16.47.47,0,0,0-.21.38.39.39,0,0,0,.09.25.62.62,0,0,0,.27.19l.62.18a8.68,8.68,0,0,1,1,.33,1.06,1.06,0,0,1,.46.37,1,1,0,0,1,.17.6,1.18,1.18,0,0,1-.21.66,1.33,1.33,0,0,1-.59.48,2.15,2.15,0,0,1-.87.17,2,2,0,0,1-1.23-.34A1.56,1.56,0,0,1,113.49,49.87Z" transform="translate(-16.47 -24.64)" style="fill:#333"/></svg>