<svg xmlns="http://www.w3.org/2000/svg" viewBox="0 0 91.32 28.8"><title>web mail</title><path d="M61,45.34l-1.9-7.16h1l1.09,4.69q.18.74.3,1.46.27-1.15.32-1.32l1.36-4.83h1.14l1,3.62a19.14,19.14,0,0,1,.56,2.53q.14-.68.36-1.56l1.12-4.6h1l-2,7.16h-.91l-1.51-5.45q-.19-.68-.22-.84-.11.49-.21.84L62,45.34Z" transform="translate(-10.86 -24.79)" style="fill:#333"/><path d="M69.23,45.34V38.18h5.18V39H70.18v2.19h4v.84h-4v2.44h4.39v.84Z" transform="translate(-10.86 -24.79)" style="fill:#333"/><path d="M75.84,45.34V38.18h2.69a3.32,3.32,0,0,1,1.32.22,1.69,1.69,0,0,1,.78.67,1.77,1.77,0,0,1,.28.94,1.62,1.62,0,0,1-.25.86,1.78,1.78,0,0,1-.75.65,1.87,1.87,0,0,1,1,.65,1.74,1.74,0,0,1,.35,1.08,2.09,2.09,0,0,1-.21.94,1.81,1.81,0,0,1-.52.67,2.19,2.19,0,0,1-.78.35,4.77,4.77,0,0,1-1.15.12Zm.95-4.15h1.55a3.46,3.46,0,0,0,.9-.08,1,1,0,0,0,.54-.36,1,1,0,0,0,.18-.62,1.15,1.15,0,0,0-.17-.63.87.87,0,0,0-.49-.37,4.07,4.07,0,0,0-1.09-.1H76.79Zm0,3.31h1.78a4.08,4.08,0,0,0,.64,0,1.54,1.54,0,0,0,.55-.2,1,1,0,0,0,.36-.4,1.25,1.25,0,0,0,.14-.6,1.19,1.19,0,0,0-.21-.7,1.08,1.08,0,0,0-.57-.42,3.53,3.53,0,0,0-1-.12H76.79Z" transform="translate(-10.86 -24.79)" style="fill:#333"/><path d="M85.3,45.34V38.18h1.43l1.69,5.07q.23.71.34,1.06.12-.39.38-1.15l1.71-5h1.27v7.16h-.91v-6l-2.08,6h-.85l-2.07-6.09v6.09Z" transform="translate(-10.86 -24.79)" style="fill:#333"/><path d="M96.93,44.7a3.27,3.27,0,0,1-.94.59,2.72,2.72,0,0,1-1,.17A1.89,1.89,0,0,1,93.71,45,1.38,1.38,0,0,1,93.25,44a1.42,1.42,0,0,1,.17-.7,1.44,1.44,0,0,1,.45-.51,2.13,2.13,0,0,1,.63-.29,6.34,6.34,0,0,1,.78-.13,8,8,0,0,0,1.57-.3c0-.12,0-.2,0-.23a1,1,0,0,0-.25-.76,1.47,1.47,0,0,0-1-.3,1.55,1.55,0,0,0-.92.22,1.33,1.33,0,0,0-.44.77l-.86-.12a2.13,2.13,0,0,1,.39-.89,1.69,1.69,0,0,1,.78-.52A3.46,3.46,0,0,1,95.74,40a3.12,3.12,0,0,1,1.08.16,1.42,1.42,0,0,1,.61.39,1.38,1.38,0,0,1,.27.6,5,5,0,0,1,0,.81v1.17a12.4,12.4,0,0,0,.06,1.55,2,2,0,0,0,.22.62h-.92A1.86,1.86,0,0,1,96.93,44.7Zm-.07-2a6.44,6.44,0,0,1-1.44.33,3.34,3.34,0,0,0-.77.18.76.76,0,0,0-.35.29.78.78,0,0,0,.14,1,1.14,1.14,0,0,0,.78.23,1.81,1.81,0,0,0,.9-.22,1.37,1.37,0,0,0,.58-.61,2.13,2.13,0,0,0,.14-.88Z" transform="translate(-10.86 -24.79)" style="fill:#333"/><path d="M99.11,39.19v-1H100v1Zm0,6.15V40.15H100v5.19Z" transform="translate(-10.86 -24.79)" style="fill:#333"/><path d="M101.31,45.34V38.18h.88v7.16Z" transform="translate(-10.86 -24.79)" style="fill:#333"/><path d="M16.6,35.82a.59.59,0,0,0,0-.33q0-2,0-4c0-.34,0-.34.32-.34h6.21a1,1,0,0,1,.44-.08H42.08c.14,0,.28,0,.42,0a.54.54,0,0,0,.32.05h6c.23,0,.29.08.28.32,0,1.46,0,2.91,0,4.37a.52.52,0,0,1,.07.27c0,2.48,0,5,0,7.43,0,.18-.16.25-.28.33l-3.47,2.42-4.55,3.16L36.2,52.61a.51.51,0,0,1-.24.11,7.43,7.43,0,0,1-.9-.6,4.91,4.91,0,0,0-1.27-.79,2.77,2.77,0,0,0-2.59.39,11.82,11.82,0,0,1-1.42,1,.42.42,0,0,1-.31-.12c-1.82-1.22-3.63-2.47-5.43-3.72l-5.31-3.69-1.94-1.35a.52.52,0,0,1-.21-.48q0-2,0-4,0-1.7,0-3.41C16.58,35.92,16.6,35.87,16.6,35.82Z" transform="translate(-10.86 -24.79)" style="fill:#fdf3e3"/><path d="M16.64,35.93c0,.12,0,.24,0,.36q0,3.54,0,7.08a.42.42,0,0,0,.2.4L25,49.45c1.51,1,3,2.08,4.56,3.11a.36.36,0,0,0,.21.1.11.11,0,0,1-.06.1c-.39.26-.76.57-1.17.81H11.14c-.09,0-.19,0-.27,0s0-.15,0-.23q0-6.61,0-13.21c0-.18.1-.15.19-.11A13.8,13.8,0,0,1,13,41c1.07.77,2.16,1.52,3.24,2.27.09.06.17.18.31.13,0-2.32,0-4.65,0-7,0-.1,0-.19,0-.29S16.53,36,16.64,35.93Z" transform="translate(-10.86 -24.79)" style="fill:#62bce6"/><path d="M36,52.69c4.39-3,8.74-6,13.09-9.05,0,0,0-.06.06-.09a12.46,12.46,0,0,1,1.16-.84c.91-.65,1.82-1.3,2.74-1.92a13.13,13.13,0,0,1,1.5-.75c.08,0,.18-.07.24.06q0,6.64,0,13.28,0-6.51,0-13a2.77,2.77,0,0,0,0-.34.15.15,0,0,1,0-.09c.08.07,0,.16,0,.24q0,6.57,0,13.14c0,.19,0,.27-.23.27H37.15A9.91,9.91,0,0,1,36,52.8.14.14,0,0,1,36,52.69Z" transform="translate(-10.86 -24.79)" style="fill:#62bce6"/><path d="M42.5,31.09c0,.09-.13.05-.19.05H23.18l2.07-1.5c2-1.43,4-2.88,6-4.29a2.61,2.61,0,0,1,3.21,0c2.63,1.86,5.24,3.75,7.86,5.62Z" transform="translate(-10.86 -24.79)" style="fill:#58aacf"/><path d="M54.69,40a7.85,7.85,0,0,0-1,.46A16.07,16.07,0,0,0,51.36,42c-.75.51-1.5,1-2.24,1.56a.37.37,0,0,1,0-.2q0-3.59,0-7.19c0-.1,0-.24.12-.26L51,37.19l3.69,2.65.11.1V40S54.72,40,54.69,40Z" transform="translate(-10.86 -24.79)" style="fill:#57aacf"/><path d="M16.55,43.53a16.31,16.31,0,0,1-1.42-1c-.87-.6-1.72-1.24-2.61-1.81A14,14,0,0,0,10.93,40a0,0,0,0,1-.05,0c0-.07.06-.1.11-.13L16.36,36l0,0c.17,0,.17.08.17.21q0,1.66,0,3.32,0,1.87,0,3.74A.6.6,0,0,1,16.55,43.53Z" transform="translate(-10.86 -24.79)" style="fill:#58aacf"/><path d="M36,52.69c.39.3.82.54,1.19.88h-8.6a9.63,9.63,0,0,1,1.22-.91c.54-.39,1.06-.82,1.62-1.15a2.67,2.67,0,0,1,3,0C34.92,51.9,35.44,52.31,36,52.69Z" transform="translate(-10.86 -24.79)" style="fill:#57aacf"/><path d="M10.87,40h.05q0,6.61,0,13.22c0,.11,0,.23,0,.32,0-.11,0-.22,0-.34q0-6.41,0-12.82C10.87,40.25,10.87,40.12,10.87,40Z" transform="translate(-10.86 -24.79)" style="fill:#58b9e4"/><path d="M16.55,43.53q0-3.65,0-7.3c0-.14,0-.22-.14-.25l.19-.16s0,.07,0,.11,0,.2,0,.3q0,3.53,0,7.07c0,.08,0,.15,0,.23h0Z" transform="translate(-10.86 -24.79)" style="fill:#4ea6ce"/><path d="M49.21,35.93c-.11.08-.09.21-.09.33q0,3.66,0,7.33l-.06.05q0-3.76,0-7.53c0-.09,0-.19,0-.28Z" transform="translate(-10.86 -24.79)" style="fill:#44a3cd"/><path d="M26.19,41.34a7.39,7.39,0,0,1,6.48-5.57,7.33,7.33,0,0,1,3.51.4l.13.06a1.76,1.76,0,0,0,.56.27,5,5,0,0,1,2,1.87,4.45,4.45,0,0,1,.56,1.2,1,1,0,0,0,.09.5,6.26,6.26,0,0,1,0,3.15.44.44,0,0,0,0,.2,4,4,0,0,1-1.75,2.44.67.67,0,0,0-.42.22,2.75,2.75,0,0,1-1.7.26,1.46,1.46,0,0,1-1.19-1.51c0-.07,0-.18,0-.21s-.11.1-.16.15l-.26.33a.58.58,0,0,0-.28.31,3,3,0,0,1-3.26.77,2.35,2.35,0,0,1-1.34-2.08,1.61,1.61,0,0,0,0-.57.69.69,0,0,1,0-.34.12.12,0,0,1,0,.14,3.71,3.71,0,0,1,.29-1.21.23.23,0,0,0,0-.15,4.89,4.89,0,0,1,4.35-2.91,1.36,1.36,0,0,0,.57,0,5.38,5.38,0,0,1,1.74.31c.18.06.23.14.18.35-.25,1.2-.48,2.4-.71,3.61a4.08,4.08,0,0,0-.07,1.27c.07.59.42.88,1,.79a2,2,0,0,0,1.3-.91,4.26,4.26,0,0,0,.74-2.16,5.25,5.25,0,0,0-1.16-4.08,4.65,4.65,0,0,0-3-1.51,8.25,8.25,0,0,0-2,0,1.73,1.73,0,0,0-.93.22,7,7,0,0,0-1.91,1,6.34,6.34,0,0,0-2.25,3.49l-.06.2c-.07,0-.07.05-.07.1a5.36,5.36,0,0,0-.11,1.21c0,.3,0,.61,0,.91a3,3,0,0,0,.23,1.3,5.17,5.17,0,0,0,1.56,2.44,5.25,5.25,0,0,0,2,1l.16.05a1.34,1.34,0,0,0,.63.15,7.89,7.89,0,0,0,2.57-.12.13.13,0,0,0,.09-.07,6.46,6.46,0,0,0,1.25-.46c.11-.06.15,0,.19.09s.05.14.08.22c.2.52.2.52-.29.72a4.53,4.53,0,0,1-.95.31,2.57,2.57,0,0,0-.71.11,11.36,11.36,0,0,1-1.33.12,3.64,3.64,0,0,0-.56,0,6.13,6.13,0,0,1-5.78-4c0-.09-.05-.18-.08-.27,0-.31-.12-.6-.17-.91a8.63,8.63,0,0,1,0-1.83C26,42.25,26.15,41.81,26.19,41.34Z" transform="translate(-10.86 -24.79)" style="fill:#5e554a"/><path d="M26.19,41.34c.12.14,0,.29,0,.42a7.67,7.67,0,0,0,0,3.48c0,.08,0,.15,0,.21a6.66,6.66,0,0,1-.26-2.64,2.07,2.07,0,0,1,.07-.54c.06-.08,0-.19,0-.27A1.67,1.67,0,0,1,26.19,41.34Z" transform="translate(-10.86 -24.79)" style="fill:#5b5348"/><path d="M34.37,48.64c-.12.21-.33.17-.5.19a6.55,6.55,0,0,1-1.44.12,5.58,5.58,0,0,1-1.51-.24l.15,0a7.76,7.76,0,0,0,2.72.06Z" transform="translate(-10.86 -24.79)" style="fill:#5a5247"/><path d="M39.52,43.43c-.08-.07,0-.15,0-.24a7.8,7.8,0,0,0,.21-1.44,7.34,7.34,0,0,0-.25-1.93c0-.08-.06-.16,0-.24a9.56,9.56,0,0,1,.25,1.12c0,.09,0,.2,0,.29a.49.49,0,0,1,0,.24,2.54,2.54,0,0,1,0,.68.64.64,0,0,1,0,.29c0,.09,0,.2,0,.29A3,3,0,0,1,39.52,43.43Z" transform="translate(-10.86 -24.79)" style="fill:#5c5449"/><path d="M27.33,45.13c-.06,0-.07,0-.09,0a4,4,0,0,1-.19-1,9.1,9.1,0,0,1,.13-2.39l.08-.28,0,.19a1.85,1.85,0,0,0-.1.56c0,.09,0,.19,0,.28v.08c-.07.19,0,.38,0,.58s0,.3,0,.45-.07.35,0,.53Z" transform="translate(-10.86 -24.79)" style="fill:#5d564a"/><path d="M32.62,49.73a.13.13,0,0,1,.13-.05,6.69,6.69,0,0,0,1.69-.2c.07,0,.16,0,.22,0a4.6,4.6,0,0,1-1.3.22c-.19.06-.4,0-.59,0h-.14s0,0,0,0Z" transform="translate(-10.86 -24.79)" style="fill:#5c5348"/><path d="M29.5,42c.08.08,0,.16,0,.23a4.79,4.79,0,0,0-.28,1.17c-.07,0,0-.12,0-.17A3.45,3.45,0,0,1,29.5,42Z" transform="translate(-10.86 -24.79)" style="fill:#5c5549"/><path d="M31.5,36.93l-.06,0c.32-.12.63-.32,1-.19Z" transform="translate(-10.86 -24.79)" style="fill:#575043"/><path d="M27.09,43.56a1.16,1.16,0,0,0,0-.42c.05-.11,0-.23,0-.34a2.52,2.52,0,0,1,0,1C27.08,43.76,27.14,43.65,27.09,43.56Z" transform="translate(-10.86 -24.79)" style="fill:#fefeef"/><path d="M36.87,36.51c-.25.05-.41-.16-.62-.24l.06,0C36.53,36.27,36.68,36.44,36.87,36.51Z" transform="translate(-10.86 -24.79)" style="fill:#5c5448"/><path d="M37.35,46.08l-.06,0c.15-.08.27-.27.48-.19A1.54,1.54,0,0,1,37.35,46.08Z" transform="translate(-10.86 -24.79)" style="fill:#5c5448"/><path d="M33.72,45.41a.31.31,0,0,1,.28-.31A1.09,1.09,0,0,1,33.72,45.41Z" transform="translate(-10.86 -24.79)" style="fill:#564e43"/><path d="M34.42,39.06a.71.71,0,0,1-.57,0A2.24,2.24,0,0,1,34.42,39.06Z" transform="translate(-10.86 -24.79)" style="fill:#51493c"/><path d="M39.76,41.89q0-.34,0-.68A1.56,1.56,0,0,1,39.76,41.89Z" transform="translate(-10.86 -24.79)" style="fill:#5e554a"/><path d="M32.62,49.73s0,0,0,.05h-.57C32.24,49.67,32.43,49.75,32.62,49.73Z" transform="translate(-10.86 -24.79)" style="fill:#50493d"/><path d="M32.76,49.78c.19-.1.39,0,.59,0A1.66,1.66,0,0,1,32.76,49.78Z" transform="translate(-10.86 -24.79)" style="fill:#5e554a"/><path d="M27.14,42.8l0,.34a1.51,1.51,0,0,1,0-.6Z" transform="translate(-10.86 -24.79)" style="fill:#5e554a"/><path d="M29.13,43.53a.78.78,0,0,1,0,.57A1.9,1.9,0,0,1,29.13,43.53Z" transform="translate(-10.86 -24.79)" style="fill:#524b3f"/><path d="M27.09,43.56l0,.29v.26C27,43.93,27.11,43.74,27.09,43.56Z" transform="translate(-10.86 -24.79)" style="fill:#5e554a"/><path d="M39.75,41c-.08-.08,0-.19,0-.29A.53.53,0,0,1,39.75,41Z" transform="translate(-10.86 -24.79)" style="fill:#5e554a"/><path d="M26,42c0,.09,0,.19,0,.27A.54.54,0,0,1,26,42Z" transform="translate(-10.86 -24.79)" style="fill:#5e554a"/><path d="M27.14,42.46c0-.09,0-.2,0-.28A.58.58,0,0,1,27.14,42.46Z" transform="translate(-10.86 -24.79)" style="fill:#5e554a"/><path d="M39.71,42.47c0-.1,0-.2,0-.29A.51.51,0,0,1,39.71,42.47Z" transform="translate(-10.86 -24.79)" style="fill:#5e554a"/><path d="M54.69,40a.1.1,0,0,1,.1-.05V53.46h0v-.28q0-6.41,0-12.83C54.74,40.26,54.78,40.14,54.69,40Z" transform="translate(-10.86 -24.79)" style="fill:#5cbae5"/><path d="M30.64,42.66a3.72,3.72,0,0,1,1.68-2.14c.22-.12.46-.21.69-.31s.21-.07.32-.11a1.1,1.1,0,0,0,.27,0,2.06,2.06,0,0,1,1,.09c.32.1.33.1.25.49l-.44,2.2a1,1,0,0,1-.23.62,4.16,4.16,0,0,1-1.1,1.37,1.82,1.82,0,0,1-.88.41h-.61a1.22,1.22,0,0,1-1-.8,1.87,1.87,0,0,1-.15-1,1,1,0,0,0,0-.29C30.53,43,30.49,42.77,30.64,42.66Z" transform="translate(-10.86 -24.79)" style="fill:#fdf4e3"/><path d="M30.64,42.66a1.49,1.49,0,0,0-.1.45c0,.09,0,.19,0,.28a3.37,3.37,0,0,0,.1,1.05c-.12,0-.12-.12-.14-.19a3,3,0,0,1,.11-1.6C30.58,42.59,30.62,42.53,30.64,42.66Z" transform="translate(-10.86 -24.79)" style="fill:#5d554a"/><path d="M33.33,40.14l-.31.07s-.13,0,0-.06A2.46,2.46,0,0,1,34.06,40a2.14,2.14,0,0,1,.71.13l-.18,0-1-.05C33.51,40.14,33.41,40.09,33.33,40.14Z" transform="translate(-10.86 -24.79)" style="fill:#5b5447"/><path d="M34.17,43.47l.23-.62A.57.57,0,0,1,34.17,43.47Z" transform="translate(-10.86 -24.79)" style="fill:#5c5448"/><path d="M31.58,45.24a.86.86,0,0,1,.61,0A1.05,1.05,0,0,1,31.58,45.24Z" transform="translate(-10.86 -24.79)" style="fill:#fefdec"/><path d="M33.33,40.14c.08-.08.17,0,.26,0A.48.48,0,0,1,33.33,40.14Z" transform="translate(-10.86 -24.79)" style="fill:#5e554a"/><path d="M30.5,43.39c0-.09,0-.2,0-.28A.66.66,0,0,1,30.5,43.39Z" transform="translate(-10.86 -24.79)" style="fill:#5e554a"/></svg>