<svg xmlns="http://www.w3.org/2000/svg" viewBox="0 0 2279.41 726.24"><title>governo-federal</title><path d="M110.29,892.9H299.74v569.87H110.29Z" transform="translate(-110.29 -886.89)" style="fill:#59807a"/><path d="M490.7,892.9h-191v569.87h191Zm1708.05,0H2009.3v569.87h189.45Z" transform="translate(-110.29 -886.89)" style="fill:#f1d333"/><path d="M2198.75,892.9h191v569.87h-191V892.9Z" transform="translate(-110.29 -886.89)" style="fill:#59807a"/><path d="M1544.7,1145.5V892.9h69.18l52.61,145.85L1659,966.57V892.9h67.66v252.6H1659l-51.11-147.35,4.5,58.64v88.71Zm-200,0V892.9h81.19c46.61,0,87.22,22.55,87.22,78.18,0,27.07-18.07,55.63-42.1,66.16l52.62,108.26H1451.5l-37.59-103.75V1145.5h-69.18Zm69.15-200v60.14c19.56,0,30.06-10.53,30.06-30.08,0-18-9-30.06-27.05-30.06Zm-230,200V892.9h127.8v58.65h-57.13v34.58h51.13v58.64h-51.13v40.6h57.13v60.14h-127.8Zm-218-252.6H1038l25.56,165.39,27.05-165.39h72.18l-64.65,252.6h-73.67ZM761.34,1019.2c0-64.65,27.05-132.32,99.23-132.32,69.17,0,97.74,67.66,97.74,132.32,0,66.16-25.56,130.81-97.74,130.81-70.66,0-99.23-64.65-99.23-130.81Zm73.68-1.5c0,16.54-1.5,67.66,25.56,67.66,25.56,0,25.56-51.11,25.56-67.66s0-67.66-25.56-67.66C833.51,950,835,1001.16,835,1017.7Zm921.67,1.5c0-64.65,25.56-132.32,99.24-132.32,69.15,0,97.73,67.66,97.73,132.32,0,66.16-27.05,130.81-97.73,130.81s-99.24-64.65-99.24-130.81Zm73.69-1.5c0,16.54-1.52,67.66,25.56,67.66,25.56,0,25.56-51.11,25.56-67.66s0-67.66-25.56-67.66C1828.87,950,1830.38,1001.16,1830.38,1017.7Zm-1090.1-16.54c3,69.17-6,148.85-93.23,148.85-75.17,0-97.73-64.65-97.73-130.81,0-67.65,24-132.32,100.74-132.32,39.09,0,70.66,27.07,82.7,63.15L668.11,975.6c-3-12-6-27.07-21-27.07-25.56,0-28.57,51.13-28.57,67.66s0,75.17,25.56,75.17c18,0,25.56-22.55,25.56-36.08v-4.51H644.05v-49.62h96.24Zm1070.54,461.61V1180.08h79.7v212h57.14v70.67H1810.83Zm-156.38-99.24h36.09l-15-117.29Zm-93.21,99.24,66.17-282.69h96.24l63.15,282.69h-82.71l-6-42.1h-52.62l-6,42.1h-78.19Zm-206,0V1180.08h88.71c49.62,0,96.24,24.06,96.24,87.21,0,34.58-15,60.17-43.59,72.16l55.63,123.32h-79.7l-42.1-118.8v118.8h-75.19Zm73.69-224v67.68c22.54-1.52,34.58-9,34.58-34.6,0-22.54-10.52-33.07-31.57-33.07Zm-260.12,224V1180.08h142.84v64.65h-66.16v39.09h58.64V1350h-58.64v43.59h66.16v69.18Zm-227-282.69h58.64c52.63,0,108.26,18,129.31,78.18q9,27.06,9,63.15c0,85.69-37.59,141.34-120.28,141.34H941.79V1180.08Zm79.69,67.68v142.82h3c33.07,0,37.59-45.1,37.59-70.65,0-27.08-9-72.16-37.59-72.16h-3Zm-275.15,215V1180.08H889.14v66.16H824.49v39.12h58.64v66.13H824.49v43.59h66.16v67.69Zm-177.43,0V1180.08H699.69v66.16H642.56v42.1H698.2v66.17H642.56v108.26Z" transform="translate(-110.29 -886.89)" style="fill:#57627c"/><path d="M137.35,1610.11v-82.68h-24v-25.56h78.18v25.56H167.43v82.68Zm60.15,0v-75.16h25.56v18c1.5-6,6-10.53,10.53-13.53,3-4.51,9-6,15-6h3a4.64,4.64,0,0,0,3,1.52l-1.5,24a5.56,5.56,0,0,0-4.51-1.49h-4.51c-6,0-12,1.49-15,6-3,3-6,9-6,16.54v30.06H197.5Zm124.8-37.6q0-9-4.51-13.53c-3-3-7.52-4.51-13.54-4.51a17.11,17.11,0,0,0-12,4.51c-3,3-4.51,7.52-4.51,13.53s1.5,10.53,4.51,13.55c3,4.51,7.52,6,12,6,6,0,10.53-1.49,13.54-6Q322.3,1581.55,322.3,1572.51Zm22.55-37.56v75.16H320.79v-12c-3,6-7.52,9-12,12-3,1.52-9,3-15,3-9,0-18-3-24-10.52s-9-16.54-9-30.09c0-12,4.51-21,10.53-28.55s13.53-10.53,24-10.53c6,0,10.53,1.52,15,3a27.8,27.8,0,0,1,10.53,12v-13.53h24Zm43.6,37.56a25.39,25.39,0,0,0,4.51,15c3,3,7.52,4.51,12,4.51,6,0,10.53-1.49,13.53-4.51a25.39,25.39,0,0,0,4.51-15c0-4.51-1.5-10.52-4.51-13.53s-7.52-4.51-13.53-4.51a17.09,17.09,0,0,0-12,4.51c-3,3-4.51,9-4.51,13.53Zm-22.55-76.68H390v52.64a27.79,27.79,0,0,1,10.53-12c3-1.49,9-3,15-3,10.53,0,18,3,24.06,10.53s9,16.54,9,28.55c0,13.55-3,22.57-9,30.09s-15,10.52-24.06,10.52c-6,0-10.53-1.49-15-3-4.51-3-7.52-7.5-10.53-12v12H365.9V1495.83Zm156.38,76.68q0-9-4.51-13.53c-3-3-7.52-4.51-13.53-4.51a17.16,17.16,0,0,0-12,4.51c-3,3-4.51,7.52-4.51,13.53s1.5,10.53,4.51,13.55c3,4.51,7.52,6,12,6,6,0,10.53-1.49,13.53-6Q522.28,1581.55,522.28,1572.51Zm22.54-37.56v75.16h-24v-12c-3,6-7.52,9-12,12-3,1.52-9,3-15,3-9,0-18-3-24.06-10.52s-9-16.54-9-30.09c0-12,4.51-21,10.53-28.55s13.54-10.53,24.06-10.53c6,0,10.52,1.52,15,3a27.8,27.8,0,0,1,10.53,12v-13.53h24Zm21-39.12h25.56v114.28H565.87Zm46.61,114.28V1495.83H638V1544a11.38,11.38,0,0,1-1.5,6c4.51-6,7.52-10.52,12-12a30.54,30.54,0,0,1,16.54-4.51c4.51,0,9,0,13.53,1.52,3,1.49,6,4.51,9,7.5,1.5,3,3,6,3,9,1.5,3,1.5,9,1.5,16.54v42.1H666.59V1571a30,30,0,0,0-3-13.53c-3-3-6-4.51-9-4.51-6,0-10.53,3-12,6-3,4.51-4.51,10.53-4.51,19.56v31.57H612.48Zm156.38-37.6a19.06,19.06,0,0,0-6-13.53c-3-3-6-4.51-12-4.51s-9,1.52-12,4.51c-4.51,3-6,7.52-6,13.53s1.5,10.53,6,13.55c3,4.51,6,6,12,6s9-1.49,12-6A19.08,19.08,0,0,0,768.86,1572.51Zm22.55-37.56v75.16H767.36v-12c-3,6-7.52,9-12,12-4.51,1.52-9,3-15,3-10.53,0-18-3-24.06-10.52s-9-16.54-9-30.09c0-12,3-21,9-28.55s15-10.53,25.56-10.53c6,0,10.53,1.52,15,3,3,3,7.52,6,10.52,12v-13.53h24.06ZM811,1610.11v-75.16H835v16.51a35.65,35.65,0,0,1,12-13.53,30.54,30.54,0,0,1,16.54-4.51c4.51,0,9,0,13.53,1.52,3,1.49,6,4.51,9,7.5l4.51,9c0,3,1.5,9,1.5,16.54v42.1H865.08V1571a30,30,0,0,0-3-13.53q-2.26-4.51-9-4.51c-6,0-9,3-12,6-3,4.51-4.51,10.53-4.51,19.56v31.57H811v0Zm156.36-37.6c0-4.51-1.5-10.52-4.51-13.53s-7.52-4.51-13.53-4.51a17.09,17.09,0,0,0-12,4.51c-3,3-4.51,9-4.51,13.53a25.39,25.39,0,0,0,4.51,15,17,17,0,0,0,12,4.51c6,0,10.53-1.49,13.53-4.51A25.36,25.36,0,0,0,967.32,1572.51Zm22.55-76.68v114.28H965.82v-12c-3,4.54-6,9-10.53,12-4.51,1.52-9,3-15,3-10.53,0-18-3-24.06-10.52s-9-16.54-9-30.09c0-12,3-21,9-28.55s13.53-10.53,24.06-10.53c6,0,10.53,1.52,15,3a27.8,27.8,0,0,1,10.53,12v-52.64h24.06Zm73.68,76.68A15.53,15.53,0,0,0,1047,1556a13.61,13.61,0,0,0-10.53,4.51c-3,3-4.51,7.5-4.51,12,0,6,1.5,10.53,4.51,13.55a13.75,13.75,0,0,0,10.53,4.51c6,0,9-1.52,12-4.51S1063.56,1578.54,1063.56,1572.51Zm25.56,0c0,6-1.5,10.53-3,16.54a23.49,23.49,0,0,1-9,12q-6.77,6.77-13.53,9a53.69,53.69,0,0,1-16.54,3c-6,0-10.53-1.49-15-3-6-1.49-10.53-4.51-13.53-9a23.31,23.31,0,0,1-9-12c-3-6-3-10.52-3-16.54,0-4.51,0-10.52,3-15a23.49,23.49,0,0,1,9-12q4.51-6.77,13.53-9c4.51-1.49,9-3,15-3a54.31,54.31,0,0,1,16.54,3c4.51,1.49,9,4.51,13.53,9a23.37,23.37,0,0,1,9,12C1087.62,1562,1089.12,1568,1089.12,1572.51Zm114.26-9a13.65,13.65,0,0,0-4.51-10.52c-3-3-6-3-10.53-3s-7.52,0-10.53,3c-3,1.49-4.51,6-4.51,10.52h30.09Zm25.56,15h-57.13q0,9,4.5,13.53t13.53,4.51c3,0,6-1.49,9-3a11.56,11.56,0,0,0,6-6l21,7.52a29.47,29.47,0,0,1-13.53,13.53,48,48,0,0,1-21,4.51c-13.53,0-24.06-3-31.58-10.52s-12-16.54-12-28.57,4.51-21,12-28.57c7.52-9,18-12,30.06-12s21,3,28.57,12c7.51,7.52,10.52,18,10.52,31.59v1.48h0Zm114.28,31.57v-40.58a30.06,30.06,0,0,0-3-13.53c-1.49-1.52-3-3-7.52-3s-9,1.49-10.52,4.51-3,10.52-3,21v31.57H1293.6v-40.58c0-6,0-10.53-1.49-13.53-1.52-1.52-4.54-3-9-3a13.62,13.62,0,0,0-10.52,4.51c-1.49,3-3,10.52-3,21v31.57H1244V1535h25.55v13.53c4.51-4.51,7.52-9,12-12a36.11,36.11,0,0,1,13.53-3c6,0,12,1.52,15,3,4.51,3,7.52,6,9,10.52a35.21,35.21,0,0,1,10.52-10.52c3-1.49,9-3,15-3,4.51,0,7.52,0,10.52,1.52a15.41,15.41,0,0,1,9,7.5c1.49,1.52,3,4.51,4.51,7.52v60.13h-25.58Zm96.21,0v-55.63h-10.51v-19.53h10.51v-21H1465v21h12v19.53h-12v55.63Zm102.27-37.6a17,17,0,0,0-4.54-12,13.59,13.59,0,0,0-10.52-4.51,17,17,0,0,0-12,4.51c-3,3-4.51,7.5-4.51,12,0,6,1.49,10.53,4.51,13.55s6,4.51,12,4.51a13.66,13.66,0,0,0,10.52-4.51Q1541.7,1581.55,1541.7,1572.51Zm27.05,0c0,6-1.49,10.53-4.51,16.54a23.42,23.42,0,0,1-9,12q-4.51,6.77-13.53,9c-4.54,1.52-10.53,3-15,3a53.61,53.61,0,0,1-16.54-3c-4.51-1.49-9-4.51-13.53-9a23.31,23.31,0,0,1-9-12c-1.52-6-3-10.52-3-16.54,0-4.51,1.49-10.52,3-15a23.42,23.42,0,0,1,9-12q6.77-6.77,13.53-9a54.47,54.47,0,0,1,16.54-3c6,0,10.52,1.52,15,3,6,1.49,10.52,4.51,13.53,9a23.3,23.3,0,0,1,9,12A28.82,28.82,0,0,1,1568.76,1572.51Zm72.18,0c0-4.51-1.49-10.52-6-13.53-3-3-6-4.51-12-4.51a17.16,17.16,0,0,0-12,4.51c-3,3-4.51,9-4.51,13.53a25.3,25.3,0,0,0,4.51,15,17.08,17.08,0,0,0,12,4.51c6,0,9-1.49,12-4.51C1639.43,1583.05,1640.93,1578.54,1640.93,1572.51Zm22.54-76.68v114.28h-24v-12a45.22,45.22,0,0,1-12,12,29.85,29.85,0,0,1-13.53,3c-10.53,0-18.07-3-25.56-10.52-6-7.52-9-16.54-9-30.09,0-12,3-21,9-28.55,7.5-7.52,15-10.53,25.56-10.53,6,0,10.52,1.52,15,3,3,3,7.52,6,10.53,12,0-1.52,0-4.51-1.52-6v-46.61h25.58Zm72.16,76.68a28.37,28.37,0,0,0-3-12,18.3,18.3,0,0,0-24.07,0,28.31,28.31,0,0,0-3,12,30.28,30.28,0,0,0,3,13.55,18.3,18.3,0,0,0,24.07,0A30.27,30.27,0,0,0,1735.64,1572.51Zm27.08,0c0,6-1.52,10.53-3,16.54-3,4.51-6,9-9,12q-6.77,6.77-13.53,9c-6,1.52-10.53,3-16.54,3s-10.53-1.49-16.54-3c-4.51-1.49-9-4.51-13.53-9-3-3-6-7.52-9-12-1.52-6-3-10.52-3-16.54,0-4.51,1.49-10.52,3-15,3-4.51,6-9,9-12q6.77-6.77,13.53-9c6-1.49,10.52-3,16.54-3s10.52,1.52,16.54,3c4.51,1.49,9,4.51,13.53,9,3,3,6,7.52,9,12C1761.2,1562,1762.72,1568,1762.72,1572.51Zm115.77,0c0-4.51-1.49-9-4.51-12a17.08,17.08,0,0,0-12-4.51,13.57,13.57,0,0,0-10.52,4.51c-3,3-4.51,7.5-4.51,12,0,6,1.49,10.53,4.51,13.55,1.49,3,6,4.51,10.52,4.51a17.16,17.16,0,0,0,12-4.51C1877,1583.05,1878.49,1578.54,1878.49,1572.51Zm25.56,0c0,6-1.49,10.53-3,16.54a23.28,23.28,0,0,1-9,12q-6.77,6.77-13.53,9a53.61,53.61,0,0,1-16.54,3c-6,0-10.52-1.49-15-3-6-1.49-10.53-4.51-13.53-9a23.35,23.35,0,0,1-9-12c-3-6-3-10.52-3-16.54,0-4.51,0-10.52,3-15a23.48,23.48,0,0,1,9-12q4.47-6.77,13.53-9c4.51-1.49,9-3,15-3a54.24,54.24,0,0,1,16.54,3c4.5,1.49,9,4.51,13.53,9a23.16,23.16,0,0,1,9,12C1902.55,1562,1904.05,1568,1904.05,1572.51Zm91.72-27.06h6c7.52,0,12-1.49,15-3a8.25,8.25,0,0,0,4.51-7.5c0-4.51-1.49-7.52-4.51-9-1.49-1.49-7.52-3-15-3h-6v22.53Zm-27.05,64.65V1501.86h30.06c12,0,19.53,0,25.56,1.49a17,17,0,0,1,12,4.51,13.6,13.6,0,0,1,9,9,28.54,28.54,0,0,1,3,12c0,6-1.49,12-4.51,15s-7.5,6-15,7.5q11.28,2.28,18,9c4.51,4.5,6,10.52,6,19.53,0,4.51,0,10.53-3,15a35.11,35.11,0,0,1-10.53,10.52,29.76,29.76,0,0,1-13.53,3c-6,1.49-15,1.49-27.05,1.49h-30.08Zm27.05-22.55h10.52c7.52,0,12,0,15-1.49s4.51-4.51,4.51-9-1.49-7.52-4.51-9c-3-3-7.52-3-15-3h-10.52Zm73.67,22.55v-75.16H2095v18c1.52-6,6-10.53,10.53-13.53,4.51-4.51,9-6,15-6h3c1.49,1.52,3,1.52,4.51,1.52l-3,24c-1.49-1.49-3-1.49-4.51-1.49H2116c-6,0-12,1.49-15,6-3,3-6,9-6,16.54v30.06h-25.55Zm124.81-37.6c0-6-1.49-10.52-4.51-13.53s-7.52-4.51-13.53-4.51a17.12,17.12,0,0,0-12,4.51q-4.51,4.51-4.51,13.53c0,6,1.49,10.53,4.51,13.55,3,4.51,7.52,6,12,6,6,0,10.52-1.49,13.53-6Q2194.25,1581.55,2194.25,1572.51Zm22.54-37.56v75.16h-24v-12c-3,6-7.52,9-12,12-3,1.52-9,3-15,3-9,0-18-3-24.06-10.52s-9-16.54-9-30.09c0-12,4.51-21,10.53-28.55s13.53-10.53,24-10.53c6,0,10.53,1.52,15,3a27.8,27.8,0,0,1,10.53,12v-13.53h24Zm13.53,69.15,6-19.56a32.59,32.59,0,0,0,12,7.52c4.51,1.49,9,3,13.53,3,3,0,6-1.52,7.52-1.52,1.49-1.49,3-3,3-6s-3-4.51-10.52-6c-1.49-1.52-4.51-1.52-6-1.52-7.52-3-13.55-6-16.54-9a19.07,19.07,0,0,1-6-13.53,21.44,21.44,0,0,1,9-18c4.51-4.51,12-6,22.57-6,4.51,0,9,0,13.53,1.52,6,1.49,10.52,3,15,4.51l-4.51,18a71.08,71.08,0,0,1-10.52-4.51c-4.51-1.52-7.52-1.52-12-1.52-3,0-4.51,0-6,1.52a3.22,3.22,0,0,0-3,3c0,3,4.51,6,10.52,7.5h4.51c9,3,15,6,18.07,10.53,4.51,3,6,7.52,6,13.53a21.44,21.44,0,0,1-9,18c-6,6-13.53,7.52-22.54,7.52-7.52,0-13.55,0-19.56-1.49a70.21,70.21,0,0,1-15-7.51Zm79.69-91.74a15.43,15.43,0,0,1,15-15c3,0,7.52,1.49,9,4.51a14.53,14.53,0,0,1,0,21c-3,3-6,4.51-9,4.51a15.43,15.43,0,0,1-15-15Zm1.53,22.58h25.56v75.16h-25.56Zm46.6-39.12h27.05v114.28h-27.05Z" transform="translate(-110.29 -886.89)" style="fill:#474545"/></svg>