<svg xmlns="http://www.w3.org/2000/svg" viewBox="0 0 94.36 31.47"><title>Sem título-1</title><path d="M16.22,54.91c-.91-.24-1.67,1-2.66.26-.2-.14-.81,0-.54-.43s-.29-1.18.37-1.26a3.2,3.2,0,0,0,2.18-1.67c1-1.48,2.16-2.85,3.16-4.33,2.29-3.4,4.58-6.79,6.75-10.27.3-.28.76-.43.81-.93,1.1-2.8,3.14-5.1,4.26-7.88.55-1.38,1.55-2.5,2.12-3.86.37-.88,1,.15,1.48-.06.29.4.66.72,1,1.09a1.64,1.64,0,0,1-.25,1.12,5.51,5.51,0,0,0-.81,1.25c-1.33,2.77-3.14,5.26-4.58,8C28.91,37,28,37.82,27.69,39c-.32.66-1,1.11-1.15,1.85a1,1,0,0,1-.23.28,2.2,2.2,0,0,0-.91,1,2.78,2.78,0,0,0-.48,1.13,4.16,4.16,0,0,1-1.16,1.88c-.44.26-.91.5-1.1,1a7.15,7.15,0,0,0-1,1.47,1.31,1.31,0,0,1-.21.27,3.67,3.67,0,0,0-.43.5c-.2.26-.37.54-.56.81a6.25,6.25,0,0,0-.8.86,16.71,16.71,0,0,1-1.3,1.9c-.25.29-.52.59.2.48a2,2,0,0,1,.63,0,5,5,0,0,0,2.33-.09,2.18,2.18,0,0,1,1.82.23c.29.7.84,0,1.22.22a5,5,0,0,0,1.7-.21,9,9,0,0,1,3.52.15c.38.54-.12.66-.42.88a7.79,7.79,0,0,1-1.63.08,9.45,9.45,0,0,0-2.25.12,32.93,32.93,0,0,1-3.51.29c-.75-.1-1.52-.34-2.22.2C18.54,54.51,17.38,54.77,16.22,54.91Z" transform="translate(-12.95 -23.92)" style="fill:#01923f"/><path d="M53.8,47.62v3.74c-.59.12-.69-.45-1-.71-1.43-1.57-2.76-3.22-4.18-4.8s-2.3-3.23-3.65-4.7c-.35-.59-.74-1.15-1.14-1.71-.74-1.06-2-1.78-2.19-3.2a.86.86,0,0,0-.34-1.08.77.77,0,0,1-.14-.32,1.62,1.62,0,0,0-.53-1.19,8.79,8.79,0,0,0-1-1.22c-.25-.4-.58-.75-.85-1.15a1.56,1.56,0,0,1-.13-.33A2,2,0,0,0,38,29.76a2.21,2.21,0,0,1-.49-.8,1.23,1.23,0,0,1,0-.8c.12-.19.25-.33.5-.22l1.87,3a.26.26,0,0,1,.16.3c1.37,1.53,2.42,3.31,3.68,4.93,2.49,3.2,5.31,6.11,7.89,9.23A17.78,17.78,0,0,0,53.8,47.62Z" transform="translate(-12.95 -23.92)" style="fill:#f8ce02"/><path d="M51.9,53.29a35.14,35.14,0,0,0-5.79.69c-1.74.44-3.67.11-5.52.12h-2c-1.88-.34-3.79,0-5.68-.2a.32.32,0,0,1,0-.45,3.17,3.17,0,0,1,1.83-.27c2.92-.07,5.84.13,8.75-.11a2.88,2.88,0,0,1,.71-.13c.54,0,1.07,0,1.61,0h.88c.59,0,1.14-.26,1.73-.26s1,0,1.57,0a3.81,3.81,0,0,1,1.82.24A.29.29,0,0,1,51.9,53.29Z" transform="translate(-12.95 -23.92)" style="fill:#f4fefe"/><path d="M32.85,53.83c1.48,0,3,0,4.44,0,.43,0,.91-.15,1.26.26-3.4,0-6.8-.07-10.2,0a75.9,75.9,0,0,0-10.65.77,9.2,9.2,0,0,1-1.49,0l3.6-.78A3.26,3.26,0,0,1,21.68,54l3.83-.27c.75-.22,1.54.07,2.28-.18l1.53-.06a2.7,2.7,0,0,1,1.18-.23,2.33,2.33,0,0,1,.4.08C31.54,53.6,32.29,53.3,32.85,53.83Z" transform="translate(-12.95 -23.92)" style="fill:#d9eae2"/><path d="M35,25.58c-.69,0-1.06-.35-.86-1.1l.05-.11c.43-.11.85-.22,1.08.33l.05.27c0,.06,0,.12,0,.18A.66.66,0,0,1,35,25.58Z" transform="translate(-12.95 -23.92)" style="fill:#55ad2e"/><path d="M57.45,53.61c-.6.67-1.2,1.58-1.79,0A2,2,0,0,1,57.45,53.61Z" transform="translate(-12.95 -23.92)" style="fill:#f7cf0a"/><path d="M36.42,26.05l.51.47c.19.3,0,.55-.11.8-1.08.53-1.07-.22-1.11-.93C35.86,26.11,36.07,25.93,36.42,26.05Z" transform="translate(-12.95 -23.92)" style="fill:#f5f7f1"/><path d="M36.67,27.14l.25-.62,1.15,1.41-.36.37a.5.5,0,0,1-.54,0C36.77,28,36.82,27.54,36.67,27.14Z" transform="translate(-12.95 -23.92)" style="fill:#f6d11a"/><path d="M36.42,26.05l-.55.28c-.24.12-.37,0-.5-.21-.09-.38-.31-.76-.09-1.17h0C36,25.06,36.05,25.7,36.42,26.05Z" transform="translate(-12.95 -23.92)" style="fill:#fdfbdf"/><path d="M35.28,24.71a1.91,1.91,0,0,0-1.08-.33c.35-.19.68-.57,1.09-.42A.41.41,0,0,1,35.28,24.71Z" transform="translate(-12.95 -23.92)" style="fill:#f0f2c3"/><path d="M51.9,53.29q0-.13,0-.26c.29-.3.64-.2,1-.13L53,53C52.93,54.18,52.35,53.48,51.9,53.29Z" transform="translate(-12.95 -23.92)" style="fill:#ddede6"/><path d="M26.28,36.29a.75.75,0,0,1-.81.93C25.51,36.7,26.1,36.67,26.28,36.29Z" transform="translate(-12.95 -23.92)" style="fill:#008b36"/><path d="M40.11,31.25l-.16-.3c.23,0,.53-.4.66,0C40.69,31.2,40.32,31.22,40.11,31.25Z" transform="translate(-12.95 -23.92)" style="fill:#faf7de"/><path d="M23.57,45.05c.56-.44.67-1.17,1.1-1.7a4,4,0,0,1,.88-1.14c.32-.35.4-.87.78-1.18l0,0a19.21,19.21,0,0,0,1.23-1.94c.12-.58.63-.84,1-1.23a5.44,5.44,0,0,0,.62-.87,73.44,73.44,0,0,1,5.22-7.49c.95-1.27,1-1.23,2.28-.12a1.6,1.6,0,0,1,.24.3,4.15,4.15,0,0,1,.31.68c.18.71.79,1.11,1.22,1.63a2.73,2.73,0,0,1,.34.42c.13.2.24.4.36.6a7.13,7.13,0,0,1,.78,1.16A3.58,3.58,0,0,0,41,35.74c.71,1.09,1.38,2.2,2.1,3.28a20.55,20.55,0,0,1,1.4,1.75c1.61,2.61,3.45,5.06,5.24,7.55.56.78,1.32,1.52,1.12,2.65a1.19,1.19,0,0,1-1.18.51c-6.86,0-13.72.11-20.58-.05-2.25-.43-4.52-.09-6.77-.2a3.52,3.52,0,0,1-2-.29,1,1,0,0,1-.15-1.07A15.51,15.51,0,0,0,21,48.46c.06-.17,0-.38.18-.52l.26-.12a9.81,9.81,0,0,0,1.29-1.65C22.93,45.75,23.33,45.46,23.57,45.05Z" transform="translate(-12.95 -23.92)" style="fill:#d9251c"/><path d="M28.8,38.06l-1.14,1.07c-.07.13-.14.12-.21,0a3.44,3.44,0,0,1,1-2.3A111.08,111.08,0,0,0,34.16,27c.14-.26.24-.47.56-.47a.27.27,0,0,1,.35,0,.71.71,0,0,1,0,.38c-1.79,3.45-4,6.64-5.91,10C28.9,37.29,28.57,37.57,28.8,38.06Z" transform="translate(-12.95 -23.92)" style="fill:#e3e9e1"/><path d="M18.14,51.9c.53-.58.65-1.42,1.3-1.92.36-.14.45.12.54.37a2.25,2.25,0,0,1,0,.55.46.46,0,0,0,.16.31c2.41.16,4.81,0,7.21.07a2.44,2.44,0,0,1,1.7.33.37.37,0,0,1-.12.44,2.15,2.15,0,0,1-1.31.25c-2.66,0-5.3.21-8,.3C19.18,52.62,18.1,53.25,18.14,51.9Z" transform="translate(-12.95 -23.92)" style="fill:#f6fdfd"/><path d="M18.14,51.9c.07.57.48.59.9.54a70.77,70.77,0,0,1,10-.52l.06.22a.71.71,0,0,1-.34.29c-1.09.31-2.25-.07-3.33.31a4.79,4.79,0,0,1-1.85,0,4.37,4.37,0,0,0-2.74.09A6,6,0,0,1,19,52.78c-.52-.08-1,.36-1.55.1C17.41,52.38,17.88,52.21,18.14,51.9Z" transform="translate(-12.95 -23.92)" style="fill:#e1f3ea"/><path d="M29.85,53.07,26.05,53a.27.27,0,0,1,.1-.39,3.48,3.48,0,0,1,1.35-.13,12.38,12.38,0,0,0,3.15-.26,4.7,4.7,0,0,1,1.82,0,4.39,4.39,0,0,0,1.55.18,1.81,1.81,0,0,1,1.34.36.36.36,0,0,1-.16.42,22,22,0,0,1-4.4.17A1.87,1.87,0,0,1,29.85,53.07Z" transform="translate(-12.95 -23.92)" style="fill:#a5d8bb"/><path d="M22.81,46.23c-.28.69-.46,1.48-1.4,1.59-.11-.85.48-1.24,1.07-1.63A.23.23,0,0,1,22.81,46.23Z" transform="translate(-12.95 -23.92)" style="fill:#fefefe"/><path d="M27.45,39.13h.21c-.28.76-.42,1.61-1.34,1.92A1.88,1.88,0,0,1,27.45,39.13Z" transform="translate(-12.95 -23.92)" style="fill:#ebe5e1"/><path d="M26.33,41a2,2,0,0,1-.54,1.39.49.49,0,0,1-.65-.33A1.16,1.16,0,0,1,26.33,41Z" transform="translate(-12.95 -23.92)" style="fill:#efe3e0"/><path d="M22.81,46.23l-.33,0c0-.75.55-.92,1.08-1.13A1,1,0,0,1,22.81,46.23Z" transform="translate(-12.95 -23.92)" style="fill:#e3dcd5"/><path d="M20.82,52.72a7.28,7.28,0,0,1,2.78-.21c.16.09.36.15.33.4s-.38.33-.62.08c-.6-.47-1.29-.16-1.94-.2A.42.42,0,0,1,20.82,52.72Z" transform="translate(-12.95 -23.92)" style="fill:#129245"/><path d="M19.8,50.59a.64.64,0,0,0-.36-.61c0-.55.59-.55.85-.86.28.12.16.42.29.62l-.27.78A.33.33,0,0,1,19.8,50.59Z" transform="translate(-12.95 -23.92)" style="fill:#ecf6f0"/><path d="M20.58,49.74c-.23-.14-.25-.39-.29-.62a.87.87,0,0,1,.56-.76q.17-.18.29,0C21.36,49,20.83,49.32,20.58,49.74Z" transform="translate(-12.95 -23.92)" style="fill:#fefefe"/><path d="M25.14,42.1l.65.33-1.12.93A1.23,1.23,0,0,1,25.14,42.1Z" transform="translate(-12.95 -23.92)" style="fill:#d7dfd2"/><path d="M35,26.59l-.3,0,.28-1,.29-.61L35.56,26C35.45,26.29,35.35,26.55,35,26.59Z" transform="translate(-12.95 -23.92)" style="fill:#dee6a7"/><path d="M20.82,52.72l.56.07a2.8,2.8,0,0,1-2.4,0Z" transform="translate(-12.95 -23.92)" style="fill:#008a36"/><path d="M29.85,53.07h.82c.16.14.13.28,0,.43l-1.37,0Z" transform="translate(-12.95 -23.92)" style="fill:#00842b"/><path d="M26.09,52.77a.6.6,0,0,0,0,.22c-.48.53-1.1.21-1.65.28a.28.28,0,0,1,0-.33A2.11,2.11,0,0,1,26.09,52.77Z" transform="translate(-12.95 -23.92)" style="fill:#2e9b5b"/><path d="M21.68,54l-1.86.07C20.42,53.56,21,53.78,21.68,54Z" transform="translate(-12.95 -23.92)" style="fill:#008a35"/><path d="M27.79,53.59a5.4,5.4,0,0,1-2.28.18C26.24,53.34,27,53.61,27.79,53.59Z" transform="translate(-12.95 -23.92)" style="fill:#149342"/><path d="M24.4,53a1,1,0,0,1,0,.24c-.35-.14-.87.38-1.08-.29a.53.53,0,0,0,.56-.24C24.18,52.61,24.31,52.77,24.4,53Z" transform="translate(-12.95 -23.92)" style="fill:#54af78"/><path d="M21.14,48.4l-.29,0c.06-.17,0-.4.3-.43Z" transform="translate(-12.95 -23.92)" style="fill:#c4dac7"/><path d="M59,51.37" transform="translate(-12.95 -23.92)" style="fill:#f8f8f8"/><path d="M53.73,52s0-.06.06-.08v-.21a2.43,2.43,0,0,0-1.53-.39c-1.08,0-2.15.12-3.23.12-2.42,0-4.84-.12-7.26.07a.32.32,0,0,0-.22.4c.45.54,1.07.4,1.64.44a29.37,29.37,0,0,0,4.19-.15.5.5,0,0,0-.14.31.89.89,0,0,0,.68.27c1.6-.11,3.23.3,4.8-.26a.91.91,0,0,0,.74-.23A.56.56,0,0,1,53.73,52Zm-5.11.11a17.27,17.27,0,0,1,2.37,0C50.31,52.09,49.48,52.06,48.62,52.07Z" transform="translate(-12.95 -23.92)" style="fill:#c3e3cf"/><path d="M59,51.37" transform="translate(-12.95 -23.92)" style="fill:#151515"/><path d="M53.79,51.66l-12.23,0a.24.24,0,0,1,.18-.37c3.07-.11,6.14.13,9.2-.12.67-.29,1.55.18,2.09-.59l.79.81Z" transform="translate(-12.95 -23.92)" style="fill:#e8d9d4"/><path d="M58.4,51.62" transform="translate(-12.95 -23.92)"/><path d="M57.13,51.54" transform="translate(-12.95 -23.92)"/><path d="M53,50.55c.1,1.72-1.18.46-1.72.8a1.36,1.36,0,0,1-.5-.78c-1.2-2.27-2.93-4.2-4.3-6.36-.72-1.13-1.58-2.2-2.24-3.39a.3.3,0,0,1,0-.35c.52-.18.6.39.93.54,2.53,2.85,4.57,6.11,7.37,8.74A3.48,3.48,0,0,1,53,50.55Z" transform="translate(-12.95 -23.92)" style="fill:#fdfbf7"/><path d="M42.89,39.14,40.8,35.86a.59.59,0,0,1,.32-.18.64.64,0,0,1,.7.49c.32,1.36,1.68,2,2.21,3.22a.21.21,0,0,1,.09.21c0,.08,0,.11-.06.11C43.55,39.76,43.28,39.31,42.89,39.14Z" transform="translate(-12.95 -23.92)" style="fill:#fbf8dc"/><path d="M41,35.86H40.8c-.56-.41-1.13-.83-1.14-1.63.1-.15.15-.33.33-.41a.78.78,0,0,1,.53,0,1.56,1.56,0,0,1,.79.94.56.56,0,0,0,0,.27C41.5,35.41,41.24,35.62,41,35.86Z" transform="translate(-12.95 -23.92)" style="fill:#fefef0"/><path d="M39.66,32.31c.5.35,1.18.56,1.08,1.38l-.13.12a1,1,0,0,1-.51-.09,2,2,0,0,1-.76-.72.68.68,0,0,1-.06-.35.63.63,0,0,1,.21-.28Z" transform="translate(-12.95 -23.92)" style="fill:#faeb96"/><path d="M41,35.86c-.11-.35.15-.56.3-.82.61.19,1.26.36.47,1.13A1,1,0,0,0,41,35.86Z" transform="translate(-12.95 -23.92)" style="fill:#f6d11a"/><path d="M38.89,31.21c.35.31.81.53.77,1.1h0c-.18.12-.4.07-.6.13a.64.64,0,0,1-.31-.07c-.11-.13-.25-.23-.37-.35a.57.57,0,0,1,.18-.91A.33.33,0,0,1,38.89,31.21Z" transform="translate(-12.95 -23.92)" style="fill:#f7e168"/><path d="M37.2,28.24l.52.06.11.76c0,.4-.29.42-.6.37a.85.85,0,0,1-.45-.43C36.75,28.65,36.62,28.25,37.2,28.24Z" transform="translate(-12.95 -23.92)" style="fill:#fdfadc"/><path d="M38.37,29.65a1.8,1.8,0,0,1,.47,1.3.4.4,0,0,1-.32.13.66.66,0,0,1-.44-.3,1.12,1.12,0,0,1-.21-.69A.52.52,0,0,1,38.37,29.65Z" transform="translate(-12.95 -23.92)" style="fill:#fcf9d9"/><path d="M41.31,34.77a2,2,0,0,1-.87-.76c0-.19.22-.22.32-.34v0C41.32,33.84,41.73,34.09,41.31,34.77Z" transform="translate(-12.95 -23.92)" style="fill:#f9e476"/><path d="M38.37,29.65l-.32.53c-.3.16-.53,0-.78-.14a.6.6,0,0,1-.2-.26.66.66,0,0,1,0-.33l.11-.13a.62.62,0,0,0,.63-.26Z" transform="translate(-12.95 -23.92)" style="fill:#f4cf1e"/><path d="M44,39.68v-.3A4.32,4.32,0,0,1,45.17,41l-.88-.54C44.06,40.25,43.86,40,44,39.68Z" transform="translate(-12.95 -23.92)" style="fill:#f8ebd2"/><path d="M38.48,30.93l.36,0a.66.66,0,0,1,.05.25l-.29,0A.27.27,0,0,1,38.48,30.93Z" transform="translate(-12.95 -23.92)" style="fill:#f8e063"/><path d="M30.69,53.51v-.43l4.61-.1a.93.93,0,0,1,.48-.25,47,47,0,0,1,8.39.12.32.32,0,0,1,.14.45l-.47,0c-3.23.22-6.47,0-9.7.1a2.6,2.6,0,0,0-1.45.15,4.3,4.3,0,0,1-2,0Z" transform="translate(-12.95 -23.92)" style="fill:#00842b"/><path d="M44.28,53l-9-.07,0-.2a1.34,1.34,0,0,1,1.11-.4H41.9l1.52,0c.34,0,.68-.05,1-.07a2.06,2.06,0,0,1,.4,0c.79.17,1.63-.15,2.38.3.35.61-.34.4-.48.62H45.9C45.39,53,44.79,53.31,44.28,53Z" transform="translate(-12.95 -23.92)" style="fill:#67b18a"/><path d="M32.57,53.52a2,2,0,0,1,.61-.22c3.54,0,7.09,0,10.63,0-3.06.48-6.14.09-9.2.22l-1.76.06C32.73,53.68,32.63,53.66,32.57,53.52Z" transform="translate(-12.95 -23.92)" style="fill:#149342"/><path d="M52.73,52.72,53,53c-.36.28-.72,0-1.07,0L50,53a.24.24,0,0,1,.15-.36A10.72,10.72,0,0,1,52.73,52.72Z" transform="translate(-12.95 -23.92)" style="fill:#bbd7c8"/><path d="M32.57,53.52l.28.09q0,.11,0,.22c-.73-.09-1.5.23-2.19-.23Z" transform="translate(-12.95 -23.92)" style="fill:#e7faef"/><path d="M46.74,53.27l.54-.48c.11-.21.32-.17.5-.18a1.84,1.84,0,0,1,.57.05.22.22,0,0,1,.08.22q0,.11-.06.11Z" transform="translate(-12.95 -23.92)" style="fill:#7cb898"/><path d="M48.37,53q0-.1,0-.21a1.79,1.79,0,0,1,1.63,0A.75.75,0,0,1,50,53Z" transform="translate(-12.95 -23.92)" style="fill:#8ebca7"/><path d="M44.28,53c.55,0,1.13-.23,1.62.22l-1.61,0Q44.28,53.17,44.28,53Z" transform="translate(-12.95 -23.92)" style="fill:#0a9544"/><path d="M37.2,28.24c-.3.21-.24.53-.24.83-1,.37-1.07-.64-1.5-1.09A2.25,2.25,0,0,1,35,26.64v0l.53-.55.31.29c.15.38,0,1.11.8.8A1.53,1.53,0,0,1,37.2,28.24Z" transform="translate(-12.95 -23.92)" style="fill:#faf4bb"/><path d="M50,52.76l-1.63,0-.54-.09q-.13-.07-.09-.13s.06-.07.09-.07l4.9,0q0,.13,0,.25Z" transform="translate(-12.95 -23.92)" style="fill:#f4fefe"/><path d="M35,26.64c.74.73.69,2.1,1.93,2.43l.25.25v0a.83.83,0,0,1-.57.3c-.95-1-1.52-.78-2.31.35-.5.71-1,1.45-1.46,2.18a60,60,0,0,0-3.52,5.08c-.29.09-.36,0-.32-.3C30.83,33.39,33,30.07,35,26.64Z" transform="translate(-12.95 -23.92)" style="fill:#f5f7f1"/><path d="M50.81,50.57l.5.78-9.74.07a2.46,2.46,0,0,1-1.69.34c-3,0-6,.16-8.93,0-3.56-.24-7.11-.16-10.66-.22-.33,0-.77.15-.84-.41l.09,0c.63-.41,1.32-.13,2-.13,2.51,0,5-.18,7.53.1H49.65C50.11,51.11,50.66,51.26,50.81,50.57Z" transform="translate(-12.95 -23.92)" style="fill:#cf0100"/><path d="M29,51.1l-9.5,0,.26-.53.51-.06c.38.48.91.3,1.38.3,2,0,4,0,6.07,0C28.2,50.85,28.68,50.69,29,51.1Z" transform="translate(-12.95 -23.92)" style="fill:#d82520"/><path d="M38.48,30.93l.13.3a.58.58,0,0,0,0,.81.44.44,0,0,1-.28.23c-.41-.64-1.39-.88-1.32-1.86a.64.64,0,0,1,.33-.19,1.27,1.27,0,0,1,1,.56A.28.28,0,0,0,38.48,30.93Z" transform="translate(-12.95 -23.92)" style="fill:#fefef0"/><path d="M44,39.68l.28.78,0,.36-1.37-1.67C43.41,39,43.7,39.36,44,39.68Z" transform="translate(-12.95 -23.92)" style="fill:#fdeaec"/><path d="M39.39,32.87l.79.71c.08.22-.1.25-.23.33l-.29.32c-.16-.44-.75-.57-.77-1.1a.53.53,0,0,1,.24-.36A.21.21,0,0,1,39.39,32.87Z" transform="translate(-12.95 -23.92)" style="fill:#f7ebcb"/><path d="M29,36.95l.32.3-.55.81C28.13,37.63,28.17,37.43,29,36.95Z" transform="translate(-12.95 -23.92)" style="fill:#edf0eb"/><path d="M36.65,29.64a.53.53,0,0,1,.57-.3l0,.49a.35.35,0,0,1-.54,0A.37.37,0,0,1,36.65,29.64Z" transform="translate(-12.95 -23.92)" style="fill:#f4e2be"/><path d="M39.12,32.87l-.22.26-.28-.53a.29.29,0,0,1,.27-.13l.16,0,.13.1A.22.22,0,0,1,39.12,32.87Z" transform="translate(-12.95 -23.92)" style="fill:#fefef0"/><path d="M36.7,29.88l.54,0h0a.45.45,0,0,1-.06.59H37Z" transform="translate(-12.95 -23.92)" style="fill:#fefef0"/><path d="M38.84,32.59h-.22l-.31-.32.28-.23.29.24q.11.12.06.22T38.84,32.59Z" transform="translate(-12.95 -23.92)" style="fill:#fefef0"/><path d="M19.44,51.09c.36.55.91.27,1.36.27q10.38.05,20.76.06,0,.11,0,.21l0,0c-.51.49-1.15.34-1.76.37-3,0-6,0-9,0a2.45,2.45,0,0,1-1.81-.38c-2.89,0-5.79,0-8.68,0C20.06,51.62,19.25,52.12,19.44,51.09Z" transform="translate(-12.95 -23.92)" style="fill:#f5e9e7"/><path d="M29.05,51.66l10.89,0c-.13.7-.71.56-1.16.6-.71.06-1.43,0-2.14.09a2.55,2.55,0,0,1-.64.1c-.35,0-.68.21-1,.07-.63-.16-1.28,0-1.92-.14a5.83,5.83,0,0,0-2.43-.18,1.71,1.71,0,0,1-1.57-.3h0Q29,51.79,29.05,51.66Z" transform="translate(-12.95 -23.92)" style="fill:#d7ece2"/><path d="M30.68,52.43c-1.07.57-2.21.18-3.32.25-.61-.27-1.33.19-1.91-.27A12.66,12.66,0,0,1,29,52.24a8.86,8.86,0,0,1,1.54-.1A.22.22,0,0,1,30.68,52.43Z" transform="translate(-12.95 -23.92)" style="fill:#49ac71"/><path d="M25.44,52.41c.62.25,1.32-.15,1.91.27l-1.26.09L24.4,53l-.52-.29-.27-.24Z" transform="translate(-12.95 -23.92)" style="fill:#008d39"/><path d="M30.7,52.25a1.81,1.81,0,0,1-1.68,0l0-.32h1.63l.11.15Z" transform="translate(-12.95 -23.92)" style="fill:#f4fefe"/><path d="M30.68,52.43a.3.3,0,0,0,0-.18l0-.07a6.12,6.12,0,0,1,2.45,0c.61.23,1.34-.29,1.89.31-.33.26-.72.1-1.08.14a4.44,4.44,0,0,1-1.33-.09Z" transform="translate(-12.95 -23.92)" style="fill:#008631"/><path d="M33.95,52.51,35,52.46l.85-.26c.15.19.41.09.58.23a.21.21,0,0,1,0,.28l-1.07.06L34,52.71c-.1,0-.13-.08-.1-.12S33.92,52.51,33.95,52.51Z" transform="translate(-12.95 -23.92)" style="fill:#d6f5e4"/><path d="M33.95,52.51a1.19,1.19,0,0,0,0,.19c-.46,0-1,.2-1.36-.19Z" transform="translate(-12.95 -23.92)" style="fill:#c2edd5"/><path d="M36.38,52.15c1.13-.59,2.44.15,3.57-.48h1.63c.41.43.94.24,1.41.25,2.88,0,5.76,0,8.64.09-1.43.46-2.94-.15-4.35.43a5.12,5.12,0,0,1-2.68,0l-.07,0a6.63,6.63,0,0,0-2.11,0,1.51,1.51,0,0,1-.39,0c-.81,0-1.62,0-2.43-.05a10.68,10.68,0,0,0-1.94-.08C37.21,52.44,36.73,52.56,36.38,52.15Z" transform="translate(-12.95 -23.92)" style="fill:#afd6c1"/><path d="M44.6,52.47l2.68,0,.55.06q0,.1,0,.2l-.55.09C46.4,52.56,45.44,53.05,44.6,52.47Z" transform="translate(-12.95 -23.92)" style="fill:#fefefe"/><path d="M39.95,33.91l.23-.33.57.09-.32.34Z" transform="translate(-12.95 -23.92)" style="fill:#f5d22c"/><path d="M39.12,32.31c.19-.31.36.07.55,0l-.29.28q-.14.16-.25,0h0q-.14-.07-.11-.16C39.07,32.34,39.09,32.31,39.12,32.31Z" transform="translate(-12.95 -23.92)" style="fill:#f4cf1e"/><path d="M39.13,32.57l.25,0q0,.13,0,.27h-.27Z" transform="translate(-12.95 -23.92)" style="fill:#f7e9ba"/><path d="M39.12,32.31a.66.66,0,0,1,0,.25l-.3,0,0-.31Z" transform="translate(-12.95 -23.92)" style="fill:#f7e9ba"/><path d="M37.19,30.42l.06-.59c.35-.08.51.28.8.36l.24.59Z" transform="translate(-12.95 -23.92)" style="fill:#f7e4b7"/><path d="M39.63,52.45l2.48.07v.16l-3.53,0a.23.23,0,0,1,.07-.33A1.64,1.64,0,0,1,39.63,52.45Z" transform="translate(-12.95 -23.92)" style="fill:#f2f9f8"/><path d="M42.39,52.45a1.9,1.9,0,0,1,2.13.06l-.82.21C43.31,52.42,42.78,52.8,42.39,52.45Z" transform="translate(-12.95 -23.92)" style="fill:#90c7ab"/><path d="M38.57,52.51q0,.09,0,.19H36.4q0-.1,0-.2c.4-.35.88-.1,1.32-.18S38.33,52.23,38.57,52.51Z" transform="translate(-12.95 -23.92)" style="fill:#e7faef"/><path d="M42.39,52.45c.43.12,1-.2,1.31.27l-1.6,0c0-.05,0-.11,0-.16Z" transform="translate(-12.95 -23.92)" style="fill:#e6f8ee"/><path d="M33.11,52.15l-2.45,0q0-.13,0-.26C31.48,52,32.34,51.69,33.11,52.15Z" transform="translate(-12.95 -23.92)" style="fill:#e7faef"/><path d="M37.75,52.42l-1.35.09c-.2-.07-.49,0-.53-.31l.52,0,1.36.1Z" transform="translate(-12.95 -23.92)" style="fill:#2e9358"/><path d="M37.75,52.42q0-.09,0-.17c.63,0,1.3-.33,1.88.19l-1.05.07Z" transform="translate(-12.95 -23.92)" style="fill:#419e66"/><path d="M52.48,50c0,.06.33.54.4.5s-.35-.58-.07,0,.62.67,1,1.05c0,0-.11-.09,0,.07a5.67,5.67,0,0,1,.34.52c.27.42.52.85.76,1.29.93,1.69,3.52.18,2.59-1.51A13.89,13.89,0,0,0,56,49.61a2.66,2.66,0,0,0-.4-.38c-.6-.47.05.06,0,.2.06-.12-.18-.54-.25-.65s-.44-.59-.27-.28c-.94-1.69-3.53-.18-2.59,1.51Z" transform="translate(-12.95 -23.92)" style="fill:#f8ce02"/><path d="M51.72,49.13l4.35,4.35a1.5,1.5,0,0,0,2.12-2.12L53.84,47a1.5,1.5,0,0,0-2.12,2.12Z" transform="translate(-12.95 -23.92)" style="fill:#f8ce02"/><path d="M56.14,54.34a1.56,1.56,0,0,0,2-1.5,1.5,1.5,0,0,0-3,0v0l.74-1.3,0,0L57,51.46l0,0a1.5,1.5,0,0,0-1.85,1,1.55,1.55,0,0,0,1,1.85Z" transform="translate(-12.95 -23.92)" style="fill:#f8ce02"/><path d="M53.76,51.82c-.22-.14,0,0,.1.11A1.5,1.5,0,1,0,56,49.81a3.44,3.44,0,0,0-.71-.58,1.5,1.5,0,0,0-1.51,2.59Z" transform="translate(-12.95 -23.92)" style="fill:#f8ce02"/><path d="M53.85,51.82l.13,0a.5.5,0,0,0-.27-1l-.13,0a.5.5,0,0,0,.27,1Z" transform="translate(-12.95 -23.92)" style="fill:#e8d9d4"/><path d="M53.2,52.44a1.4,1.4,0,0,0,1-.17c.57-.29.07-1.15-.5-.86a.21.21,0,0,1-.23.07c-.63-.13-.9.84-.27,1Z" transform="translate(-12.95 -23.92)" style="fill:#c3e3cf"/><path d="M54.1,52.27l.06-.06a.5.5,0,0,0-.71-.71l-.06.06a.5.5,0,0,0,.71.71Z" transform="translate(-12.95 -23.92)" style="fill:#c3e3cf"/><path d="M53.89,53a1.81,1.81,0,0,0,.33-.28l.08-.1q.24-.28-.18,0c.64,0,.64-1,0-1-.43,0-.44.31-.74.53-.52.37,0,1.23.5.86Z" transform="translate(-12.95 -23.92)" style="fill:#fff"/><path d="M53.19,50.73c.42.35.62.86,1,1.18s1-.41.61-.79-.48-.59-.77-.85a.5.5,0,0,0-.84.49.72.72,0,0,0,.16.35c0,.05.24.31.19.09l.13-.49,0,0,.49-.13h0l.3.23,0-.06c-.29-.57-1.16-.07-.86.5a.54.54,0,0,0,.87.15.52.52,0,0,0,.13-.5c0-.16-.31-.31-.34-.43l-.84.49c.28.26.48.59.77.85l.61-.79a2.92,2.92,0,0,1-.35-.5A3.28,3.28,0,0,0,53.9,50c-.49-.41-1.2.3-.71.71Z" transform="translate(-12.95 -23.92)" style="fill:#f8ce02"/><path d="M60.2,35.29V34H63V37.1a3.44,3.44,0,0,1-1.2.86,3.7,3.7,0,0,1-1.56.36,3,3,0,0,1-1.69-.47,3.18,3.18,0,0,1-1.16-1.41,5.92,5.92,0,0,1,0-4.43,3.25,3.25,0,0,1,1.12-1.38,2.92,2.92,0,0,1,1.65-.46,2.77,2.77,0,0,1,1.85.59,2.8,2.8,0,0,1,.89,1.73l-1.29.3a1.67,1.67,0,0,0-.53-.93,1.4,1.4,0,0,0-.92-.32,1.64,1.64,0,0,0-1.35.65,3.14,3.14,0,0,0-.52,2,3.56,3.56,0,0,0,.56,2.16,1.53,1.53,0,0,0,1.29.64,2,2,0,0,0,.79-.18,2.47,2.47,0,0,0,.73-.49v-1Z" transform="translate(-12.95 -23.92)" style="fill:#333"/><path d="M63.92,35.25a3.46,3.46,0,0,1,.33-1.53,2.46,2.46,0,0,1,.87-1,2.19,2.19,0,0,1,1.21-.34,2.07,2.07,0,0,1,1.77.89,3.42,3.42,0,0,1,.64,2.07,3.68,3.68,0,0,1-.34,1.59A2.52,2.52,0,0,1,67.53,38a2.13,2.13,0,0,1-1.19.36,2.19,2.19,0,0,1-1.73-.8A3.37,3.37,0,0,1,63.92,35.25Zm1.27.08a2.14,2.14,0,0,0,.34,1.31,1,1,0,0,0,.82.44,1,1,0,0,0,.8-.45,2.19,2.19,0,0,0,.33-1.32,2.12,2.12,0,0,0-.34-1.3,1,1,0,0,0-.81-.45,1,1,0,0,0-.8.45A2.15,2.15,0,0,0,65.18,35.33Z" transform="translate(-12.95 -23.92)" style="fill:#333"/><path d="M71,38.18l-1.9-5.7h1.29l.88,2.91.26,1,.26-1,.9-2.91H74l-1.86,5.7Z" transform="translate(-12.95 -23.92)" style="fill:#333"/><path d="M77.45,36.37l1.23.25a2.44,2.44,0,0,1-.77,1.28,2,2,0,0,1-1.27.42,2,2,0,0,1-1.6-.69,3.45,3.45,0,0,1-.67-2.26A3.62,3.62,0,0,1,75,33.07a1.79,1.79,0,0,1,1.47-.73,1.87,1.87,0,0,1,1.57.74,4.06,4.06,0,0,1,.66,2.51v.17h-3.1a1.71,1.71,0,0,0,.3,1.05.88.88,0,0,0,.71.37Q77.25,37.19,77.45,36.37Zm.06-1.53a1.66,1.66,0,0,0-.28-1,.8.8,0,0,0-.64-.34.81.81,0,0,0-.66.35,1.57,1.57,0,0,0-.27,1Z" transform="translate(-12.95 -23.92)" style="fill:#333"/><path d="M80.94,38.18H79.7v-5.7h1.15v.81a2.49,2.49,0,0,1,.53-.76.84.84,0,0,1,.54-.19,1.35,1.35,0,0,1,.81.28l-.39,1.32a.94.94,0,0,0-.58-.25.63.63,0,0,0-.45.19,1.27,1.27,0,0,0-.28.69,12.91,12.91,0,0,0-.09,1.84Z" transform="translate(-12.95 -23.92)" style="fill:#333"/><path d="M87.51,38.18H86.27V35.27a6.16,6.16,0,0,0-.07-1.17.8.8,0,0,0-.26-.45.67.67,0,0,0-.43-.16.88.88,0,0,0-.56.2,1.06,1.06,0,0,0-.35.56,5.73,5.73,0,0,0-.1,1.34v2.59H83.25v-5.7H84.4v.83a2.27,2.27,0,0,1,.69-.73,1.57,1.57,0,0,1,.85-.24,1.48,1.48,0,0,1,.92.28,1.45,1.45,0,0,1,.52.73,4.43,4.43,0,0,1,.14,1.28Z" transform="translate(-12.95 -23.92)" style="fill:#333"/><path d="M88.48,35.25a3.46,3.46,0,0,1,.33-1.53,2.46,2.46,0,0,1,.87-1,2.19,2.19,0,0,1,1.21-.34,2.07,2.07,0,0,1,1.77.89,3.42,3.42,0,0,1,.64,2.07A3.68,3.68,0,0,1,93,36.89,2.52,2.52,0,0,1,92.09,38a2.13,2.13,0,0,1-1.19.36,2.19,2.19,0,0,1-1.73-.8A3.37,3.37,0,0,1,88.48,35.25Zm1.27.08a2.14,2.14,0,0,0,.34,1.31,1,1,0,0,0,.82.44,1,1,0,0,0,.8-.45A2.19,2.19,0,0,0,92,35.32,2.12,2.12,0,0,0,91.7,34a1,1,0,0,0-.81-.45,1,1,0,0,0-.8.45A2.15,2.15,0,0,0,89.75,35.33Z" transform="translate(-12.95 -23.92)" style="fill:#333"/><path d="M96.79,30.31h2.38a3.55,3.55,0,0,1,1.36.2,2.29,2.29,0,0,1,.85.68,3.5,3.5,0,0,1,.61,1.24,6.94,6.94,0,0,1,.22,1.9A6.1,6.1,0,0,1,102,36.1a3.56,3.56,0,0,1-.58,1.19,2.28,2.28,0,0,1-.86.66,3.2,3.2,0,0,1-1.29.22H96.79Zm1.3,1.33v5.21h1a2.54,2.54,0,0,0,.91-.12,1.1,1.1,0,0,0,.46-.36,2,2,0,0,0,.3-.75,6.3,6.3,0,0,0,.12-1.36,6.16,6.16,0,0,0-.12-1.38,1.82,1.82,0,0,0-.38-.79,1.19,1.19,0,0,0-.62-.38,5.16,5.16,0,0,0-1.06-.07Z" transform="translate(-12.95 -23.92)" style="fill:#333"/><path d="M106,36.37l1.23.25a2.44,2.44,0,0,1-.77,1.28,2,2,0,0,1-1.27.42,2,2,0,0,1-1.6-.69,3.45,3.45,0,0,1-.67-2.26,3.62,3.62,0,0,1,.67-2.29,1.79,1.79,0,0,1,1.47-.73,1.87,1.87,0,0,1,1.57.74,4.06,4.06,0,0,1,.66,2.51v.17h-3.1a1.71,1.71,0,0,0,.3,1.05.88.88,0,0,0,.71.37Q105.82,37.19,106,36.37Zm.06-1.53a1.66,1.66,0,0,0-.28-1,.8.8,0,0,0-.64-.34.81.81,0,0,0-.66.35,1.57,1.57,0,0,0-.27,1Z" transform="translate(-12.95 -23.92)" style="fill:#333"/><path d="M57.18,51.38V43.51h1.95l1.17,5.38,1.16-5.38h2v7.87H62.21v-6.2l-1.29,6.2H59.67l-1.28-6.2v6.2Z" transform="translate(-12.95 -23.92)" style="fill:#333"/><path d="M64.7,44.9v-1.4h1.24v1.4Zm0,6.48v-5.7h1.24v5.7Z" transform="translate(-12.95 -23.92)" style="fill:#333"/><path d="M71.46,51.38H70.22V48.47a6.16,6.16,0,0,0-.07-1.17.8.8,0,0,0-.26-.45.67.67,0,0,0-.43-.16.88.88,0,0,0-.56.2,1.06,1.06,0,0,0-.35.56,5.73,5.73,0,0,0-.1,1.34v2.59H67.2v-5.7h1.15v.83a2.27,2.27,0,0,1,.69-.73,1.57,1.57,0,0,1,.85-.24,1.48,1.48,0,0,1,.92.28,1.45,1.45,0,0,1,.52.73,4.43,4.43,0,0,1,.14,1.28Z" transform="translate(-12.95 -23.92)" style="fill:#333"/><path d="M73.64,47.41l-1.12-.25a2.19,2.19,0,0,1,.67-1.24,2.11,2.11,0,0,1,1.35-.38,2.6,2.6,0,0,1,1.2.22,1.3,1.3,0,0,1,.59.6,3.65,3.65,0,0,1,.18,1.38V49.5a7.49,7.49,0,0,0,.06,1.1,3.77,3.77,0,0,0,.22.77H75.56l-.16-.62a2.31,2.31,0,0,1-.68.57,1.64,1.64,0,0,1-.77.19,1.47,1.47,0,0,1-1.12-.46,1.71,1.71,0,0,1-.44-1.22,1.89,1.89,0,0,1,.18-.84,1.45,1.45,0,0,1,.5-.58,3.32,3.32,0,0,1,1-.38,5.9,5.9,0,0,0,1.2-.37,1.84,1.84,0,0,0-.07-.62.53.53,0,0,0-.25-.24,1.11,1.11,0,0,0-.51-.09.82.82,0,0,0-.52.15A1.08,1.08,0,0,0,73.64,47.41Zm1.65,1.23a6.21,6.21,0,0,1-.74.23,1.72,1.72,0,0,0-.75.33.65.65,0,0,0-.18.47.81.81,0,0,0,.2.55.63.63,0,0,0,.49.22.9.9,0,0,0,.52-.18,1,1,0,0,0,.36-.43,2.76,2.76,0,0,0,.1-.9Z" transform="translate(-12.95 -23.92)" style="fill:#333"/><path d="M77.3,49.76l1.24-.23a.94.94,0,0,0,1,.9,1.07,1.07,0,0,0,.67-.17.54.54,0,0,0,.22-.45.43.43,0,0,0-.1-.3.89.89,0,0,0-.4-.19A5.49,5.49,0,0,1,78,48.55a1.59,1.59,0,0,1-.52-1.25A1.68,1.68,0,0,1,78,46a2.05,2.05,0,0,1,1.47-.48,2.31,2.31,0,0,1,1.4.36,2,2,0,0,1,.67,1.15l-1.17.26a.81.81,0,0,0-.88-.69,1.2,1.2,0,0,0-.65.13.4.4,0,0,0-.19.34.37.37,0,0,0,.18.31,4.93,4.93,0,0,0,1.1.39,3,3,0,0,1,1.41.71,1.61,1.61,0,0,1,.37,1.1A1.8,1.8,0,0,1,81.11,51a2.18,2.18,0,0,1-1.57.54,2.34,2.34,0,0,1-1.48-.45A2.16,2.16,0,0,1,77.3,49.76Z" transform="translate(-12.95 -23.92)" style="fill:#333"/></svg>