<svg xmlns="http://www.w3.org/2000/svg" xmlns:xlink="http://www.w3.org/1999/xlink" viewBox="0 0 120.92 40.94"><defs><linearGradient id="a" x1="33.91" y1="20.55" x2="33.91" y2="48.2" gradientUnits="userSpaceOnUse"><stop offset="0" stop-color="blue"/><stop offset="1" stop-color="#29abe2"/></linearGradient></defs><title>Sem título-1</title><path d="M63.45,41.39l.89-.08a2,2,0,0,0,.3.88,1.61,1.61,0,0,0,.72.56,2.73,2.73,0,0,0,1.1.21,2.63,2.63,0,0,0,1-.16,1.33,1.33,0,0,0,.62-.44,1,1,0,0,0,.2-.61.93.93,0,0,0-.2-.59,1.45,1.45,0,0,0-.64-.42,12.57,12.57,0,0,0-1.27-.35,6.49,6.49,0,0,1-1.38-.45,1.94,1.94,0,0,1-.76-.67,1.63,1.63,0,0,1-.25-.89,1.82,1.82,0,0,1,.31-1,1.9,1.9,0,0,1,.9-.72,3.41,3.41,0,0,1,1.31-.24,3.59,3.59,0,0,1,1.4.26,2,2,0,0,1,.94.75,2.16,2.16,0,0,1,.35,1.13l-.91.07a1.46,1.46,0,0,0-.5-1,1.93,1.93,0,0,0-1.25-.35,2,2,0,0,0-1.25.31.94.94,0,0,0-.39.76.81.81,0,0,0,.28.63,3.77,3.77,0,0,0,1.43.51,9.45,9.45,0,0,1,1.58.46,2.17,2.17,0,0,1,.92.73,1.78,1.78,0,0,1,.3,1,2,2,0,0,1-.33,1.08,2.15,2.15,0,0,1-.94.79,3.28,3.28,0,0,1-1.38.28,4.12,4.12,0,0,1-1.63-.28,2.28,2.28,0,0,1-1-.85A2.42,2.42,0,0,1,63.45,41.39Z" transform="translate(-12.54 -20.55)" style="fill:#333"/><path d="M73.88,42l.91.11a2.22,2.22,0,0,1-.8,1.24,2.7,2.7,0,0,1-3.29-.26,2.74,2.74,0,0,1-.67-2,2.87,2.87,0,0,1,.67-2,2.28,2.28,0,0,1,1.75-.72,2.22,2.22,0,0,1,1.7.71,2.81,2.81,0,0,1,.66,2c0,.05,0,.13,0,.23H70.94a2,2,0,0,0,.48,1.31,1.44,1.44,0,0,0,1.08.45,1.34,1.34,0,0,0,.83-.25A1.68,1.68,0,0,0,73.88,42ZM71,40.6h2.9a1.76,1.76,0,0,0-.33-1,1.35,1.35,0,0,0-1.09-.51,1.4,1.4,0,0,0-1,.41A1.6,1.6,0,0,0,71,40.6Z" transform="translate(-12.54 -20.55)" style="fill:#333"/><path d="M75.89,43.69V38.51h.79v.74a1.86,1.86,0,0,1,1.65-.85,2.17,2.17,0,0,1,.86.17,1.36,1.36,0,0,1,.59.44,1.7,1.7,0,0,1,.27.65,5,5,0,0,1,0,.85v3.19h-.88V40.54a2.37,2.37,0,0,0-.1-.8.85.85,0,0,0-.36-.42,1.16,1.16,0,0,0-.61-.16,1.42,1.42,0,0,0-1,.36,1.76,1.76,0,0,0-.41,1.35v2.83Z" transform="translate(-12.54 -20.55)" style="fill:#333"/><path d="M84.84,43.05a3.27,3.27,0,0,1-.94.59,2.72,2.72,0,0,1-1,.17,1.89,1.89,0,0,1-1.31-.42,1.38,1.38,0,0,1-.46-1.07,1.42,1.42,0,0,1,.17-.7,1.44,1.44,0,0,1,.45-.51,2.13,2.13,0,0,1,.63-.29,6.34,6.34,0,0,1,.78-.13,8,8,0,0,0,1.57-.3c0-.12,0-.2,0-.23a1,1,0,0,0-.25-.76,1.47,1.47,0,0,0-1-.3,1.55,1.55,0,0,0-.92.22,1.33,1.33,0,0,0-.44.77L81.31,40a2.13,2.13,0,0,1,.39-.89,1.69,1.69,0,0,1,.78-.52,3.46,3.46,0,0,1,1.18-.18,3.12,3.12,0,0,1,1.08.16,1.42,1.42,0,0,1,.61.39,1.38,1.38,0,0,1,.27.6,5,5,0,0,1,0,.81v1.17a12.4,12.4,0,0,0,.06,1.55,2,2,0,0,0,.22.62H85A1.86,1.86,0,0,1,84.84,43.05Zm-.07-2a6.44,6.44,0,0,1-1.44.33,3.34,3.34,0,0,0-.77.18.76.76,0,0,0-.35.29.78.78,0,0,0,.14,1,1.14,1.14,0,0,0,.78.23,1.81,1.81,0,0,0,.9-.22,1.37,1.37,0,0,0,.58-.61,2.13,2.13,0,0,0,.14-.88Z" transform="translate(-12.54 -20.55)" style="fill:#333"/><path d="M90.38,43.69V43a1.61,1.61,0,0,1-1.45.77,2,2,0,0,1-1.14-.34,2.25,2.25,0,0,1-.81-1,3.3,3.3,0,0,1-.29-1.41A3.69,3.69,0,0,1,87,39.69a2,2,0,0,1,.78-1,2.08,2.08,0,0,1,1.16-.34,1.73,1.73,0,0,1,1.43.71V36.53h.87v7.16ZM87.6,41.1A2.25,2.25,0,0,0,88,42.59a1.27,1.27,0,0,0,1,.49,1.24,1.24,0,0,0,1-.47,2.17,2.17,0,0,0,.4-1.44A2.44,2.44,0,0,0,90,39.61a1.26,1.26,0,0,0-1-.5,1.22,1.22,0,0,0-1,.48A2.36,2.36,0,0,0,87.6,41.1Z" transform="translate(-12.54 -20.55)" style="fill:#333"/><path d="M92.25,41.1A2.67,2.67,0,0,1,93,39a2.41,2.41,0,0,1,1.63-.58,2.33,2.33,0,0,1,1.75.7A2.67,2.67,0,0,1,97.11,41a3.43,3.43,0,0,1-.3,1.57,2.13,2.13,0,0,1-.87.89,2.55,2.55,0,0,1-1.25.32,2.33,2.33,0,0,1-1.76-.7A2.79,2.79,0,0,1,92.25,41.1Zm.9,0a2.21,2.21,0,0,0,.43,1.49,1.45,1.45,0,0,0,2.18,0,2.26,2.26,0,0,0,.43-1.52,2.14,2.14,0,0,0-.44-1.46,1.45,1.45,0,0,0-2.18,0A2.2,2.2,0,0,0,93.15,41.1Z" transform="translate(-12.54 -20.55)" style="fill:#333"/><path d="M101.08,43.69V36.53h4.83v.84H102v2.22h3.36v.84H102v3.25Z" transform="translate(-12.54 -20.55)" style="fill:#333"/><path d="M110.57,42l.91.11a2.22,2.22,0,0,1-.8,1.24,2.7,2.7,0,0,1-3.29-.26,2.74,2.74,0,0,1-.67-2,2.87,2.87,0,0,1,.67-2,2.28,2.28,0,0,1,1.75-.72,2.22,2.22,0,0,1,1.7.71,2.81,2.81,0,0,1,.66,2c0,.05,0,.13,0,.23h-3.87a2,2,0,0,0,.48,1.31,1.44,1.44,0,0,0,1.08.45,1.34,1.34,0,0,0,.83-.25A1.68,1.68,0,0,0,110.57,42Zm-2.89-1.42h2.9a1.76,1.76,0,0,0-.33-1,1.35,1.35,0,0,0-1.09-.51,1.4,1.4,0,0,0-1,.41A1.6,1.6,0,0,0,107.69,40.6Z" transform="translate(-12.54 -20.55)" style="fill:#333"/><path d="M115.95,43.69V43a1.61,1.61,0,0,1-1.45.77,2,2,0,0,1-1.14-.34,2.25,2.25,0,0,1-.81-1,3.3,3.3,0,0,1-.29-1.41,3.69,3.69,0,0,1,.26-1.41,2,2,0,0,1,.78-1,2.08,2.08,0,0,1,1.16-.34,1.73,1.73,0,0,1,1.43.71V36.53h.87v7.16Zm-2.78-2.59a2.25,2.25,0,0,0,.42,1.49,1.27,1.27,0,0,0,1,.49,1.24,1.24,0,0,0,1-.47,2.17,2.17,0,0,0,.4-1.44,2.44,2.44,0,0,0-.41-1.56,1.26,1.26,0,0,0-1-.5,1.22,1.22,0,0,0-1,.48A2.36,2.36,0,0,0,113.17,41.1Z" transform="translate(-12.54 -20.55)" style="fill:#333"/><path d="M121.7,42l.91.11a2.22,2.22,0,0,1-.8,1.24,2.7,2.7,0,0,1-3.29-.26,2.74,2.74,0,0,1-.67-2,2.87,2.87,0,0,1,.67-2,2.28,2.28,0,0,1,1.75-.72,2.22,2.22,0,0,1,1.7.71,2.81,2.81,0,0,1,.66,2c0,.05,0,.13,0,.23h-3.87a2,2,0,0,0,.48,1.31,1.44,1.44,0,0,0,1.08.45,1.34,1.34,0,0,0,.83-.25A1.68,1.68,0,0,0,121.7,42Zm-2.89-1.42h2.9a1.76,1.76,0,0,0-.33-1,1.35,1.35,0,0,0-1.09-.51,1.4,1.4,0,0,0-1,.41A1.6,1.6,0,0,0,118.81,40.6Z" transform="translate(-12.54 -20.55)" style="fill:#333"/><path d="M123.7,43.69V38.51h.79v.79a2.14,2.14,0,0,1,.56-.73,1,1,0,0,1,.56-.18,1.71,1.71,0,0,1,.9.28l-.3.82a1.26,1.26,0,0,0-.64-.19.84.84,0,0,0-.52.17.94.94,0,0,0-.33.48,3.42,3.42,0,0,0-.15,1v2.71Z" transform="translate(-12.54 -20.55)" style="fill:#333"/><path d="M130.42,43.05a3.27,3.27,0,0,1-.94.59,2.72,2.72,0,0,1-1,.17,1.89,1.89,0,0,1-1.31-.42,1.38,1.38,0,0,1-.46-1.07,1.42,1.42,0,0,1,.17-.7,1.44,1.44,0,0,1,.45-.51,2.13,2.13,0,0,1,.63-.29,6.34,6.34,0,0,1,.78-.13,8,8,0,0,0,1.57-.3c0-.12,0-.2,0-.23a1,1,0,0,0-.25-.76,1.47,1.47,0,0,0-1-.3,1.55,1.55,0,0,0-.92.22,1.33,1.33,0,0,0-.44.77l-.86-.12a2.13,2.13,0,0,1,.39-.89,1.69,1.69,0,0,1,.78-.52,3.46,3.46,0,0,1,1.18-.18,3.12,3.12,0,0,1,1.08.16,1.42,1.42,0,0,1,.61.39,1.38,1.38,0,0,1,.27.6,5,5,0,0,1,0,.81v1.17a12.4,12.4,0,0,0,.06,1.55,2,2,0,0,0,.22.62h-.92A1.86,1.86,0,0,1,130.42,43.05Zm-.07-2a6.44,6.44,0,0,1-1.44.33,3.34,3.34,0,0,0-.77.18.76.76,0,0,0-.35.29.78.78,0,0,0,.14,1,1.14,1.14,0,0,0,.78.23,1.81,1.81,0,0,0,.9-.22,1.37,1.37,0,0,0,.58-.61,2.13,2.13,0,0,0,.14-.88Z" transform="translate(-12.54 -20.55)" style="fill:#333"/><path d="M132.58,43.69V36.53h.88v7.16Z" transform="translate(-12.54 -20.55)" style="fill:#333"/><rect y="30.88" width="42.62" height="10.06" style="fill:#57aa27"/><path d="M12.66,20.55V48a15.63,15.63,0,0,0,4.07.19c2.3-1.35,4.07-3.93,6.68-5.24,4.67-1.56,9-.84,13.29.44a11.93,11.93,0,0,1,2.71.56,10.6,10.6,0,0,1,2.06,1,59.13,59.13,0,0,0,6.16,1.88,4.89,4.89,0,0,0,1-.42V24.47a1.57,1.57,0,0,1,1.56-1.56h2.63a1.57,1.57,0,0,1,1.56,1.56V47.3l.75-.11V20.55Z" transform="translate(-12.54 -20.55)" style="fill:url(#a)"/><path d="M36.7,43.35c1.6.48,3.19,1,4.77,1.59a10.6,10.6,0,0,0-2.06-1A11.93,11.93,0,0,0,36.7,43.35Z" transform="translate(-12.54 -20.55)" style="fill:#0e89ff"/></svg>